SplineFontDB: 3.0
FontName: Mailpile-Regular
FullName: Mailpile Regular
FamilyName: Mailpile
Weight: Normal
Copyright: Copyright (c) 2013, Mailpile (http://mailpile.is), with Reserved Font Name 'Mailpile'
Version: 1.001;PS (version unavailable);hotconv 1.0.70;makeotf.lib2.5.58329 DEVELOPMENT
ItalicAngle: 0
UnderlinePosition: -52
UnderlineWidth: 102
Ascent: 1638
Descent: 410
LayerCount: 2
Layer: 0 0 "Back"  1
Layer: 1 0 "Fore"  0
NeedsXUIDChange: 1
XUID: [1021 402 1057041433 12064149]
FSType: 0
OS2Version: 3
OS2_WeightWidthSlopeOnly: 0
OS2_UseTypoMetrics: 1
CreationTime: 1379553411
ModificationTime: 1383244152
PfmFamily: 17
TTFWeight: 400
TTFWidth: 5
LineGap: 0
VLineGap: 0
Panose: 2 0 5 3 2 0 0 2 0 4
OS2TypoAscent: -61
OS2TypoAOffset: 1
OS2TypoDescent: -67
OS2TypoDOffset: 1
OS2TypoLinegap: 115
OS2WinAscent: 1
OS2WinAOffset: 1
OS2WinDescent: -110
OS2WinDOffset: 1
HheadAscent: 1
HheadAOffset: 1
HheadDescent: 110
HheadDOffset: 1
OS2SubXSize: 1331
OS2SubYSize: 1228
OS2SubXOff: 0
OS2SubYOff: 153
OS2SupXSize: 1331
OS2SupYSize: 1228
OS2SupXOff: 0
OS2SupYOff: 716
OS2StrikeYSize: 102
OS2StrikeYPos: 650
OS2Vendor: 'TIPO'
OS2CodePages: 00000093.00000000
OS2UnicodeRanges: 0000002f.0000000e.00000002.00000000
DEI: 91125
LangName: 1033 "" "" "" "1.001;TIPO;Mailpile-Regular" "Mailpile" "Version 1.001;PS (version unavailable);hotconv 1.0.70;makeotf.lib2.5.58329 DEVELOPMENT" "" "Fauna is a trademark of Eduardo Rodriguez Tunni." "Eduardo Rodriguez Tunni" "Eduardo Rodriguez Tunni" "Fauna is a modern typeface with low contrast strokes and soft terminals that form traditional serifs. Its structure is soft and slightly condensed. It reads clearly in paragraph composition and looks beautiful in headlines." "http://www.tipo.net.ar" "http://www.tipo.net.ar" "This Font Software is licensed under the SIL Open Font License, Version 1.1. This license is available with a FAQ at: http://scripts.sil.org/OFL" "http://scripts.sil.org/OFL" 
Encoding: UnicodeBmp
UnicodeInterp: none

StartChar: Eth
Encoding: 208 208 1
Width: 1490
Flags: MW
HStem: 0 140<405 760> 690 135<102 241 102 241> 693 134<405 737 405 737> 1360 137<405 760 760 768 405 405>
VStem: 241 164<140 690 690 690 140 827 827 1358 1358 1358> 1228 161<647.5 854>
LayerCount: 2
Fore
SplineSet
102 1359 m 1xbc
 102 1497 l 1
 760 1497 l 2
 965 1497 1121 1433 1228 1306 c 0
 1335 1179 1389 993 1389 749 c 0
 1389 504 1335 318 1228 191 c 0
 1121 64 965 0 760 0 c 2
 241 0 l 1
 241 690 l 1
 102 690 l 1
 102 825 l 1
 241 825 l 1xdc
 241 1358 l 1
 102 1359 l 1xbc
737 827 m 1xbc
 737 693 l 1
 405 693 l 1
 405 140 l 1
 768 140 l 2
 917 140 1031 190 1110 290 c 0
 1189 390 1228 544 1228 751 c 0
 1228 957 1189 1110 1110 1210 c 0
 1031 1310 917 1360 768 1360 c 2
 405 1360 l 1
 405 827 l 1
 737 827 l 1xbc
EndSplineSet
EndChar

StartChar: eth
Encoding: 240 240 2
Width: 1420
Flags: MW
HStem: -28 126<701 755 701 783.5> 999 135
VStem: 125 159<501 612.5 501 635> 1111 152
LayerCount: 2
Fore
SplineSet
892 1421 m 1
 891 1422 l 1
 1014 1267 1108 1134 1173 1023 c 0
 1238 912 1268 766 1263 586 c 0
 1257 387 1202 235 1099 130 c 0
 996 25 864 -28 703 -28 c 0
 624 -28 542 -13 458 16 c 0
 374 45 310 87 265 141 c 0
 220 195 185 252 161 311 c 0
 137 370 125 447 125 541 c 0
 125 729 178 875 284 978 c 0
 390 1081 526 1134 692 1137 c 0
 723 1138 761 1137 805 1134 c 0
 849 1131 904 1113 970 1080 c 1
 929 1141 896 1187 871 1218 c 0
 846 1249 812 1291 769 1344 c 1
 599 1248 l 1
 527 1336 l 1
 693 1433 l 1
 677 1454 656 1478 629 1505 c 0
 602 1532 579 1556 559 1576 c 1
 668 1659 l 1
 694 1633 718 1610 741 1590 c 0
 764 1570 787 1546 810 1517 c 1
 968 1611 l 1
 1044 1515 l 1
 892 1421 l 1
702 97 m 1
 701 98 l 1
 809 98 904 139 987 222 c 0
 1070 305 1111 422 1111 573 c 0
 1111 725 1068 834 981 900 c 0
 894 966 795 999 684 999 c 0
 576 999 482 959 403 880 c 0
 324 801 284 687 284 538 c 0
 284 464 293 405 310 361 c 0
 327 317 351 274 382 231 c 0
 413 188 460 155 524 132 c 0
 588 109 647 97 702 97 c 1
EndSplineSet
EndChar

StartChar: Lslash
Encoding: 321 321 3
Width: 1053
Flags: MW
HStem: 0 138<439 908 439 969> 1372 123<150 276 148 440>
VStem: 149 291 276 163.5 907.5 123.5
LayerCount: 2
Fore
SplineSet
440 752 m 1xd8
 439 138 l 1
 908 138 l 1
 907 265 l 1
 1031 265 l 1
 1031 64 l 2
 1031 43 1026 27 1016 16 c 0
 1006 5 990 0 969 0 c 2
 276 0 l 1
 276 686 l 1
 102 616 l 1
 102 764 l 1
 276 834 l 1
 276 1372 l 1xd8
 148 1372 l 1
 150 1495 l 1xe8
 440 1495 l 1
 440 899 l 1
 618 971 l 1
 618 823 l 1
 440 752 l 1xd8
EndSplineSet
EndChar

StartChar: lslash
Encoding: 322 322 4
Width: 682
Flags: MW
HStem: -14 152<403.5 489> 1454 123<94 239 94 340>
VStem: 239 162<218 236 236 686 686 686 897 1454 1454 1454>
LayerCount: 2
Fore
SplineSet
401 750 m 1
 401 236 l 2
 401 199 408 173 423 159 c 0
 438 145 460 138 489 138 c 2
 592 137 l 1
 592 -13 l 1
 436 -14 l 2
 371 -14 322 5 289 44 c 0
 256 83 239 141 239 218 c 2
 239 686 l 1
 65 616 l 1
 65 764 l 1
 239 834 l 1
 239 1454 l 1
 94 1454 l 1
 94 1577 l 1
 340 1577 l 2
 361 1577 376 1572 386 1561 c 0
 396 1550 401 1534 401 1513 c 2
 401 897 l 1
 581 971 l 1
 581 823 l 1
 401 750 l 1
EndSplineSet
EndChar

StartChar: Scaron
Encoding: 352 352 5
Width: 1116
Flags: MW
HStem: -31 140<537 578.5> 1392 133<569.5 599.5>
VStem: 129 164<1138.5 1170 1138.5 1170.5> 948 149<352.5 376.5>
LayerCount: 2
Fore
SplineSet
557 1803 m 1
 786 2003 l 1
 852 1936 l 1
 600 1643 l 1
 514 1643 l 1
 264 1936 l 1
 329 2003 l 1
 557 1803 l 1
1068 1164 m 1
 934 1160 l 1
 933 1188 930 1217 924 1247 c 0
 918 1277 901 1303 872 1324 c 1
 844 1337 825 1346 814 1351 c 0
 803 1356 785 1362 760 1369 c 1
 730 1376 700 1382 670 1386 c 0
 640 1390 612 1392 587 1392 c 0
 540 1392 498 1386 461 1373 c 0
 424 1360 392 1343 366 1321 c 0
 340 1298 321 1273 310 1247 c 0
 299 1221 293 1189 293 1151 c 0
 293 1126 297 1102 305 1080 c 0
 313 1058 322 1038 333 1021 c 0
 344 1004 358 987 374 971 c 0
 390 955 407 940 425 927 c 0
 442 914 461 901 483 889 c 0
 505 877 527 866 550 856 c 0
 573 846 597 836 621 826 c 0
 645 816 669 806 693 796 c 0
 716 786 739 775 762 764 c 0
 785 753 808 741 831 729 c 0
 854 717 878 704 903 690 c 0
 928 676 950 661 968 645 c 0
 985 629 1003 611 1021 592 c 0
 1039 573 1054 552 1065 529 c 0
 1076 507 1084 482 1089 455 c 0
 1094 428 1097 399 1097 368 c 0
 1097 337 1093 307 1084 279 c 0
 1075 251 1065 225 1054 200 c 0
 1043 176 1024 153 998 132 c 0
 972 111 949 92 929 75 c 0
 908 58 886 43 862 30 c 0
 838 17 812 6 784 -3 c 0
 755 -12 719 -19 676 -24 c 0
 633 -29 595 -31 562 -31 c 0
 494 -31 434 -21 382 -1 c 0
 330 19 283 47 242 82 c 0
 200 118 166 156 139 196 c 0
 112 236 88 280 67 329 c 1
 205 407 l 1
 221 364 241 326 265 292 c 0
 289 258 316 227 345 200 c 0
 373 173 405 151 440 134 c 0
 475 117 515 109 559 109 c 0
 608 109 656 115 703 126 c 0
 750 137 789 152 820 171 c 0
 851 190 880 216 907 248 c 0
 934 280 948 318 948 361 c 0
 948 392 941 422 928 451 c 0
 915 480 899 504 881 523 c 0
 862 542 836 559 802 575 c 0
 768 591 737 606 710 621 c 0
 682 636 652 650 620 664 c 0
 588 678 556 691 523 704 c 0
 490 717 457 732 425 748 c 0
 393 764 363 782 336 801 c 0
 308 820 281 841 256 864 c 0
 231 887 209 913 191 941 c 0
 172 969 157 1001 146 1037 c 0
 135 1073 129 1113 129 1156 c 0
 129 1185 132 1213 138 1239 c 0
 144 1265 153 1290 165 1313 c 0
 176 1336 190 1357 206 1376 c 0
 222 1395 240 1413 261 1429 c 0
 281 1444 303 1458 327 1470 c 0
 351 1482 377 1492 405 1501 c 0
 432 1509 461 1515 491 1519 c 0
 521 1523 553 1525 586 1525 c 0
 618 1525 653 1523 690 1520 c 0
 727 1517 763 1511 798 1503 c 0
 825 1496 861 1485 905 1469 c 0
 949 1453 984 1432 1009 1407 c 1
 1047 1373 1066 1324 1067 1260 c 0
 1068 1196 1068 1164 1068 1164 c 1
EndSplineSet
EndChar

StartChar: scaron
Encoding: 353 353 6
Width: 1034
Flags: MW
HStem: -35 135<479 516 478 539> 985 130<487 520 460 525>
VStem: 93 152 750 141
LayerCount: 2
Fore
SplineSet
515 1479 m 1
 744 1679 l 1
 810 1612 l 1
 558 1319 l 1
 472 1319 l 1
 222 1612 l 1
 287 1679 l 1
 515 1479 l 1
729 519 m 1
 730 513 l 1
 776 485 815 450 846 408 c 0
 877 366 892 315 891 256 c 0
 890 206 880 166 861 136 c 0
 842 106 814 77 778 49 c 0
 741 21 702 0 661 -14 c 0
 620 -28 569 -35 509 -35 c 0
 449 -35 394 -28 345 -13 c 0
 296 2 253 24 216 53 c 0
 179 82 148 118 124 162 c 0
 100 206 81 252 68 300 c 1
 210 346 l 1
 221 305 236 269 254 238 c 0
 272 207 293 181 317 160 c 0
 340 140 367 125 397 115 c 0
 427 105 460 100 496 100 c 0
 536 100 572 103 605 108 c 0
 638 113 665 124 687 141 c 0
 727 174 748 210 750 249 c 0
 752 288 737 324 704 357 c 0
 689 372 667 387 638 402 c 0
 609 417 574 434 534 452 c 1
 505 462 472 474 436 487 c 0
 400 500 366 515 334 531 c 1
 287 558 250 580 222 596 c 0
 194 612 167 639 140 676 c 0
 101 728 86 789 96 858 c 0
 106 927 141 985 202 1031 c 0
 238 1059 280 1080 328 1094 c 0
 376 1108 430 1115 490 1115 c 0
 550 1115 606 1108 657 1094 c 0
 708 1080 752 1058 789 1029 c 0
 826 1000 847 973 853 948 c 0
 859 923 864 884 867 831 c 1
 728 831 l 1
 727 858 727 874 727 879 c 0
 727 884 718 900 699 927 c 1
 675 947 646 962 612 971 c 0
 578 980 543 985 507 985 c 0
 467 985 430 981 397 973 c 0
 364 965 337 953 316 936 c 0
 275 903 251 870 245 836 c 0
 239 802 253 769 286 736 c 0
 306 715 328 696 352 680 c 0
 376 664 403 650 433 638 c 1
 434 638 l 1
 436 637 437 638 436 641 c 0
 435 644 436 645 438 644 c 0
 485 623 534 604 586 586 c 0
 638 568 686 546 729 519 c 1
EndSplineSet
EndChar

StartChar: Yacute
Encoding: 221 221 7
Width: 1122
Flags: MW
HStem: 1358 137<37 173 37 249 1164 1164 1164 1300>
VStem: 37 1263<1358 1495 1358 1495> 595 167.5
LayerCount: 2
Fore
SplineSet
797 1981 m 1xa0
 885 1853 l 1
 485 1597 l 1
 403 1723 l 1
 797 1981 l 1xa0
763 537 m 1
 762 0 l 1
 595 0 l 1
 595 530 l 1xa0
 173 1358 l 1
 37 1358 l 1
 37 1495 l 1
 249 1495 l 2
 268 1495 284 1491 297 1483 c 0
 310 1475 319 1463 325 1447 c 1
 678 710 l 1
 1012 1447 l 2
 1019 1463 1029 1475 1042 1483 c 0
 1055 1491 1071 1495 1090 1495 c 2
 1300 1495 l 1
 1300 1358 l 1xc0
 1164 1358 l 1
 763 537 l 1
EndSplineSet
EndChar

StartChar: yacute
Encoding: 253 253 8
Width: 1165
Flags: MW
HStem: -501 133<315.5 321 305 334.5> 948 136<39 139 39 202>
VStem: 39 1140<948 1083 947 1084 947 1084>
LayerCount: 2
Fore
SplineSet
820 1657 m 1
 908 1529 l 1
 508 1273 l 1
 426 1399 l 1
 820 1657 l 1
1017 1084 m 2
 1179 1083 l 1
 1179 947 l 1
 1079 947 l 1
 645 -221 l 2
 636 -248 626 -273 616 -295 c 0
 606 -317 596 -337 586 -354 c 0
 577 -371 567 -387 556 -401 c 0
 545 -415 533 -428 521 -439 c 0
 509 -450 496 -459 482 -467 c 0
 468 -475 454 -482 439 -487 c 0
 424 -492 406 -496 385 -498 c 0
 364 -500 344 -501 325 -501 c 0
 306 -501 283 -497 256 -489 c 0
 229 -481 206 -475 188 -470 c 0
 171 -465 149 -457 123 -446 c 0
 97 -435 76 -425 61 -416 c 1
 106 -298 l 1
 119 -305 136 -313 158 -322 c 0
 180 -331 197 -338 210 -342 c 0
 223 -345 240 -350 261 -357 c 0
 282 -364 299 -368 311 -368 c 0
 331 -368 352 -365 373 -360 c 0
 394 -355 412 -347 426 -336 c 0
 440 -325 453 -311 465 -295 c 0
 477 -279 486 -260 492 -239 c 2
 558 -20 l 1
 139 948 l 1
 39 948 l 1
 39 1084 l 1
 202 1084 l 2
 212 1084 221 1083 229 1081 c 0
 237 1079 244 1076 250 1072 c 0
 256 1068 261 1062 266 1055 c 0
 271 1048 275 1040 278 1031 c 2
 629 152 l 1
 941 1031 l 2
 944 1040 948 1048 953 1055 c 0
 958 1062 963 1068 969 1072 c 0
 975 1076 982 1079 990 1081 c 0
 998 1083 1007 1084 1017 1084 c 2
EndSplineSet
EndChar

StartChar: Thorn
Encoding: 222 222 9
Width: 1284
Flags: MW
HStem: 397 134<672 725.5 442 751.5> 1110 134<442 672 442 672> 1469 122
VStem: 152 290.5 279 163<1 398 1 531 531 1110> 992 161<766.5 870.5>
LayerCount: 2
Fore
SplineSet
672 397 m 2xec
 442 398 l 1
 442 1 l 1
 279 1 l 1
 279 1468 l 1xec
 152 1470 l 1
 152 1591 l 1xf4
 443 1591 l 1
 442 1244 l 1
 672 1244 l 2
 829 1244 948 1207 1030 1133 c 0
 1112 1059 1153 954 1153 818 c 0
 1153 681 1113 577 1032 505 c 0
 951 433 831 397 672 397 c 2xec
442 1110 m 1
 442 531 l 1
 672 531 l 2
 779 531 859 553 912 597 c 0
 965 641 992 715 992 818 c 0
 992 923 965 998 912 1043 c 0
 859 1088 779 1110 672 1110 c 2
 442 1110 l 1
EndSplineSet
EndChar

StartChar: thorn
Encoding: 254 254 10
Width: 1487
Flags: MW
HStem: -31 151<766 819 738 834.5> 1053 147<803 811.5> 1454.5 123.5
VStem: 107.5 280.5 251 161<204 204 204 886> 1213 169<545.5 619.5>
LayerCount: 2
Fore
SplineSet
412 204 m 1xec
 413 203 l 1
 455 180 511 160 581 144 c 0
 651 128 712 120 764 120 c 0
 874 120 976 149 1071 207 c 0
 1166 265 1213 391 1213 586 c 0
 1213 653 1205 714 1190 770 c 0
 1175 826 1155 877 1131 922 c 0
 1106 967 1056 1000 982 1021 c 0
 908 1042 841 1053 782 1053 c 0
 729 1053 666 1041 594 1017 c 0
 522 993 461 949 412 886 c 1
 412 204 l 1xec
107 1456 m 1xf4
 108 1578 l 1xf4
 326 1578 l 2
 347 1578 363 1573 373 1563 c 0
 383 1553 388 1538 388 1517 c 2
 388 1063 l 1
 455 1125 529 1163 610 1178 c 0
 691 1193 767 1200 839 1200 c 0
 913 1200 994 1182 1081 1147 c 0
 1168 1112 1229 1065 1263 1007 c 0
 1296 949 1324 883 1347 809 c 0
 1370 735 1382 661 1382 586 c 0
 1382 505 1369 427 1343 353 c 0
 1317 279 1286 213 1250 156 c 0
 1213 99 1149 54 1059 20 c 0
 969 -14 879 -31 790 -31 c 0
 742 -31 680 -25 604 -13 c 0
 528 -1 464 18 413 44 c 1
 413 -475 l 1
 251 -478 l 1
 251 1453 l 1xec
 107 1456 l 1xf4
EndSplineSet
EndChar

StartChar: Zcaron
Encoding: 381 381 11
Width: 1231
Flags: MW
HStem: 1 112<299 991 299 1050> 1383 112<280 931 280 280>
VStem: 116 312 157 114.5 428 684
LayerCount: 2
Fore
SplineSet
655 1802 m 1xe0
 885 2003 l 1xd8
 1006 1935 l 1
 698 1642 l 1
 612 1642 l 1
 362 1935 l 1
 428 2003 l 1
 655 1802 l 1xe0
1006 342 m 1
 1112 344 l 1
 1112 65 l 2
 1112 44 1107 28 1097 17 c 0
 1087 6 1071 1 1050 1 c 2xd8
 116 1 l 1
 116 99 l 1xe0
 931 1383 l 1
 280 1383 l 1
 263 1154 l 1
 157 1154 l 1
 157 1433 l 2
 157 1454 162 1470 173 1480 c 0
 184 1490 200 1495 221 1495 c 2
 1114 1495 l 1
 1114 1397 l 1
 299 113 l 1
 991 113 l 1
 1006 342 l 1
EndSplineSet
EndChar

StartChar: zcaron
Encoding: 382 382 12
Width: 1167
Flags: MW
HStem: 1 112<315 924 315 978> 1060 111<271 822 271 271>
VStem: 155 108 932 107
LayerCount: 2
Fore
SplineSet
612 1479 m 1
 842 1679 l 1
 940 1612 l 1
 655 1319 l 1
 569 1319 l 1
 319 1612 l 1
 385 1679 l 1
 612 1479 l 1
940 344 m 1
 1039 346 l 1
 1039 65 l 2
 1039 44 1034 28 1024 17 c 0
 1014 6 999 1 978 1 c 2
 126 1 l 1
 126 107 l 1
 822 1060 l 1
 271 1060 l 1
 255 828 l 1
 155 828 l 1
 155 1109 l 2
 155 1130 160 1146 171 1156 c 0
 182 1166 198 1171 219 1171 c 2
 1012 1171 l 1
 1012 1065 l 1
 315 113 l 1
 924 113 l 1
 940 344 l 1
EndSplineSet
EndChar

StartChar: onehalf
Encoding: 189 189 13
Width: 1690
Flags: MW
HStem: -1 98<1193 1578 1193 1578> 708 99<1277.5 1299>
VStem: 281 133<731 1403 1403 1403> 1021 557<-1 91 91 91> 1031 125<558 582 558 599> 1434 132<575.5 601>
LayerCount: 2
Fore
SplineSet
1067 1628 m 1xe4
 575 -135 l 1
 449 -135 l 1
 940 1628 l 1
 1067 1628 l 1xe4
414 1524 m 1
 414 731 l 1
 281 731 l 1
 281 1403 l 1
 98 1364 l 1
 88 1458 l 1
 309 1524 l 1
 414 1524 l 1
1298 707 m 1
 1299 708 l 1xe4
 1256 708 1221 695 1195 669 c 0
 1169 643 1156 606 1156 558 c 1
 1031 558 l 1
 1031 640 1055 702 1102 744 c 0
 1149 786 1214 807 1297 807 c 0
 1383 807 1449 788 1496 750 c 0
 1543 712 1566 656 1566 583 c 0
 1566 534 1551 489 1521 447 c 0xec
 1491 405 1449 357 1396 302 c 1
 1193 97 l 1
 1578 97 l 1
 1578 -1 l 1
 1021 -1 l 1
 1021 91 l 1xf0
 1306 376 l 2
 1330 401 1350 422 1367 440 c 0
 1384 458 1397 475 1407 491 c 0
 1417 506 1424 521 1428 536 c 0
 1432 551 1434 567 1434 584 c 0
 1434 618 1422 647 1399 671 c 0
 1376 695 1342 707 1298 707 c 1
EndSplineSet
EndChar

StartChar: onequarter
Encoding: 188 188 14
Width: 1690
Flags: MW
HStem: 172 86<1096 1356 1096 1356 1489 1581>
VStem: 281 133<731 1403 1403 1403> 1356 133<0 172 0 172 258 668 668 668>
LayerCount: 2
Fore
SplineSet
1087 1628 m 1
 596 -135 l 1
 469 -135 l 1
 961 1628 l 1
 1087 1628 l 1
414 1524 m 1
 414 731 l 1
 281 731 l 1
 281 1403 l 1
 98 1364 l 1
 88 1458 l 1
 309 1524 l 1
 414 1524 l 1
1489 793 m 1
 1489 258 l 1
 1581 258 l 1
 1581 172 l 1
 1489 172 l 1
 1489 0 l 1
 1356 0 l 1
 1356 172 l 1
 954 172 l 1
 954 250 l 1
 1290 793 l 1
 1489 793 l 1
1096 258 m 1
 1356 258 l 1
 1356 668 l 1
 1096 258 l 1
EndSplineSet
EndChar

StartChar: threequarters
Encoding: 190 190 15
Width: 1690
Flags: MW
HStem: 171 86<1095 1355 1095 1355 1488 1580> 716 99<365.5 415.5 365.5 441> 1094 74<339 344 283 371> 1439 99<366.5 410.5>
VStem: 117 121<945.5 969 945.5 969> 129 119<1287 1310.5 1287 1324.5> 531 133<1294 1331> 550 131<927 969.5 911.5 972.5> 1355 133<-1 171 -1 171 257 667 667 667>
LayerCount: 2
Fore
SplineSet
1182 1628 m 1xf980
 690 -135 l 1
 563 -135 l 1
 1055 1628 l 1
 1182 1628 l 1xf980
283 1169 m 1
 339 1168 l 1
 403 1168 451 1180 483 1204 c 0
 515 1228 531 1264 531 1312 c 0
 531 1350 518 1381 493 1404 c 0
 468 1427 433 1439 388 1439 c 0
 345 1439 311 1425 286 1398 c 0
 261 1371 248 1334 248 1287 c 1
 129 1287 l 1
 129 1362 153 1423 200 1469 c 0
 247 1515 312 1538 395 1538 c 0
 478 1538 544 1519 592 1481 c 0
 640 1443 664 1387 664 1314 c 0
 664 1274 653 1238 631 1206 c 0xf680
 609 1174 577 1150 535 1134 c 1
 582 1120 618 1096 643 1062 c 0
 668 1028 681 990 681 949 c 0
 681 874 656 816 606 776 c 0
 556 736 486 716 396 716 c 0
 306 716 237 739 189 784 c 0
 141 829 117 891 117 969 c 1
 238 969 l 1
 238 922 251 885 277 857 c 0
 303 829 341 815 390 815 c 0
 441 815 480 827 508 850 c 0
 536 873 550 906 550 948 c 0
 550 997 533 1034 499 1058 c 0
 465 1082 413 1094 344 1094 c 2
 283 1094 l 1
 283 1169 l 1
1488 792 m 1
 1488 257 l 1
 1580 257 l 1
 1580 171 l 1
 1488 171 l 1
 1488 -1 l 1
 1355 -1 l 1
 1355 171 l 1
 953 171 l 1
 953 249 l 1
 1289 792 l 1
 1488 792 l 1
1095 257 m 1
 1355 257 l 1
 1355 667 l 1
 1095 257 l 1
EndSplineSet
EndChar

StartChar: brokenbar
Encoding: 166 166 16
Width: 657
Flags: MW
HStem: -217 670<244 414 244 414> 915 672<244 414 244 414>
VStem: 244 170<-217 453 -217 453 915 1587>
LayerCount: 2
Fore
SplineSet
414 1587 m 1
 414 915 l 1
 244 915 l 1
 244 1587 l 1
 414 1587 l 1
414 453 m 1
 414 -217 l 1
 244 -217 l 1
 244 453 l 1
 414 453 l 1
EndSplineSet
EndChar

StartChar: multiply
Encoding: 215 215 17
Width: 1196
Flags: MW
HStem: 379 735<324 324 324 872>
VStem: 231 736<471 471 471 1022>
LayerCount: 2
Fore
SplineSet
872 1114 m 1
 967 1022 l 1
 692 748 l 1
 967 471 l 1
 872 379 l 1
 598 655 l 1
 324 379 l 1
 231 471 l 1
 504 748 l 1
 231 1022 l 1
 324 1114 l 1
 598 840 l 1
 872 1114 l 1
EndSplineSet
EndChar

StartChar: exclam
Encoding: 33 33 19
Width: 575
Flags: MW
HStem: -17 218<271.5 301> 360 1135<242 343 242 242>
VStem: 177 218<75.5 105> 227 135
LayerCount: 2
Fore
SplineSet
381 1495 m 1x50
 343 360 l 1
 242 360 l 1
 212 1495 l 1
 381 1495 l 1x50
395 90 m 0xa0
 395 61 384 36 363 15 c 0
 342 -6 316 -17 286 -17 c 0
 257 -17 232 -6 210 15 c 0
 188 36 177 61 177 90 c 0
 177 120 188 146 210 168 c 0
 232 190 257 201 286 201 c 0
 316 201 342 190 363 168 c 0
 384 146 395 120 395 90 c 0xa0
EndSplineSet
EndChar

StartChar: quotedbl
Encoding: 34 34 20
Width: 811
Flags: MW
HStem: 1004 491<253 278 147 386 540 566 253 433>
VStem: 147 526<1004 1495>
LayerCount: 2
Fore
SplineSet
673 1495 m 1
 566 1004 l 1
 433 1004 l 1
 540 1495 l 1
 673 1495 l 1
386 1495 m 1
 278 1004 l 1
 147 1004 l 1
 253 1495 l 1
 386 1495 l 1
EndSplineSet
EndChar

StartChar: numbersign
Encoding: 35 35 21
Width: 1632
Flags: MW
HStem: 401 125<130 354 108 377 539 981 1165 1389> 1036 125<241 469 220 492 653 1094 1278 1502>
VStem: 108 1414<401 1161>
LayerCount: 2
Fore
SplineSet
1094 1036 m 1
 631 1036 l 1
 539 526 l 1
 1004 526 l 1
 1094 1036 l 1
1376 1683 m 1
 1278 1161 l 1
 1522 1161 l 1
 1502 1036 l 1
 1255 1036 l 1
 1165 526 l 1
 1412 526 l 1
 1389 401 l 1
 1141 401 l 1
 1049 -121 l 1
 885 -121 l 1
 981 401 l 1
 516 401 l 1
 422 -121 l 1
 260 -121 l 1
 354 401 l 1
 108 401 l 1
 130 526 l 1
 377 526 l 1
 469 1036 l 1
 220 1036 l 1
 241 1161 l 1
 492 1161 l 1
 588 1683 l 1
 750 1683 l 1
 653 1161 l 1
 1118 1161 l 1
 1212 1683 l 1
 1376 1683 l 1
EndSplineSet
EndChar

StartChar: dollar
Encoding: 36 36 22
Width: 1116
Flags: MW
HStem: -194 1870<508 646 508 646>
VStem: 138 152<1115.5 1147 1147 1148 1115.5 1188.5> 508 138<-194 -8 -194 -8 136 655 889 1357 1357 1357 1493 1676> 844 139<1138 1207 1207 1226.5> 871 152<386 413.5>
LayerCount: 2
Fore
SplineSet
290 1148 m 2xf0
 290 1147 l 2
 290 1084 311 1033 353 994 c 0
 395 955 447 920 508 889 c 1
 508 1357 l 1
 439 1344 385 1319 347 1282 c 0
 309 1245 290 1200 290 1148 c 2xf0
646 136 m 1
 647 135 l 1xf0
 716 148 771 176 811 220 c 0
 851 264 871 317 871 380 c 0
 871 447 849 502 805 544 c 0xe8
 761 586 708 623 646 655 c 1
 646 136 l 1
1023 386 m 1xe8
 1022 383 l 1xe8
 1022 286 988 200 921 125 c 0
 854 50 762 6 646 -8 c 1
 646 -194 l 1
 508 -194 l 1
 508 -8 l 1
 365 9 260 59 193 142 c 0
 126 225 92 267 92 267 c 1
 201 355 l 1
 201 355 227 324 278 262 c 0
 329 200 406 156 508 131 c 1
 508 717 l 1
 416 760 331 812 254 873 c 0
 177 934 138 1024 138 1143 c 0
 138 1234 172 1311 239 1374 c 0
 306 1437 396 1476 508 1491 c 1
 508 1676 l 1
 646 1676 l 1
 646 1493 l 1
 716 1485 790 1463 867 1426 c 0
 944 1389 983 1328 983 1243 c 2
 983 1138 l 1
 844 1138 l 1
 844 1207 l 2
 844 1246 825 1279 787 1307 c 0xf0
 749 1335 702 1352 646 1359 c 1
 646 824 l 1
 739 782 825 730 904 668 c 0
 983 606 1023 512 1023 386 c 1xe8
EndSplineSet
EndChar

StartChar: percent
Encoding: 37 37 23
Width: 1850
Flags: MW
HStem: -112 138 543 120 825 119 1484 116
VStem: 106 119 742 141 986 117 1644 118
LayerCount: 2
Fore
SplineSet
1615 1640 m 1
 1709 1564 l 1
 278 -125 l 1
 182 -28 l 1
 1615 1640 l 1
215 933 m 0
 196 951 180 971 166 992 c 0
 152 1013 140 1035 130 1058 c 0
 119 1082 111 1107 106 1133 c 0
 101 1159 98 1185 98 1212 c 0
 98 1239 101 1265 106 1291 c 0
 111 1317 119 1342 130 1367 c 0
 140 1390 152 1412 166 1433 c 0
 180 1454 196 1474 215 1492 c 0
 233 1510 253 1526 274 1540 c 0
 295 1554 318 1566 342 1576 c 0
 366 1587 391 1595 417 1600 c 0
 443 1605 469 1608 496 1608 c 0
 523 1608 549 1605 575 1600 c 0
 601 1595 626 1587 651 1576 c 0
 674 1566 696 1554 717 1540 c 0
 738 1526 758 1510 776 1492 c 0
 794 1474 810 1454 824 1433 c 0
 838 1412 850 1390 860 1367 c 0
 870 1342 878 1317 883 1291 c 0
 888 1265 891 1239 891 1212 c 0
 891 1185 888 1159 883 1133 c 0
 878 1107 870 1082 860 1058 c 0
 850 1035 838 1013 824 992 c 0
 810 971 794 951 776 933 c 0
 758 915 738 899 717 885 c 0
 696 871 674 859 651 849 c 0
 626 838 601 830 575 825 c 0
 549 820 523 817 496 817 c 0
 469 817 443 820 417 825 c 0
 391 830 366 838 342 849 c 0
 318 859 295 871 274 885 c 0
 253 899 233 915 215 933 c 0
305 1404 m 0
 280 1379 260 1350 246 1317 c 0
 232 1284 225 1249 225 1213 c 0
 225 1178 232 1144 246 1111 c 0
 260 1078 280 1049 305 1024 c 0
 330 999 359 979 392 965 c 0
 425 951 459 944 494 944 c 0
 530 944 565 951 598 965 c 0
 631 979 660 999 685 1024 c 0
 710 1049 729 1078 742 1111 c 0
 755 1144 762 1178 762 1213 c 0
 762 1249 755 1284 742 1317 c 0
 729 1350 710 1379 685 1404 c 0
 660 1429 631 1449 598 1463 c 0
 565 1477 530 1484 494 1484 c 0
 459 1484 425 1477 392 1463 c 0
 359 1449 330 1429 305 1404 c 0
1655 554 m 0
 1673 536 1689 516 1703 495 c 0
 1717 474 1729 452 1739 429 c 0
 1749 405 1757 380 1762 354 c 0
 1767 328 1770 302 1770 275 c 0
 1770 248 1767 222 1762 196 c 0
 1757 170 1749 145 1739 120 c 0
 1729 97 1717 75 1703 54 c 0
 1689 33 1673 13 1655 -5 c 0
 1636 -23 1616 -39 1595 -53 c 0
 1574 -67 1551 -79 1527 -89 c 0
 1503 -99 1478 -107 1452 -112 c 0
 1426 -117 1400 -120 1373 -120 c 0
 1346 -120 1320 -117 1294 -112 c 0
 1268 -107 1243 -99 1218 -89 c 0
 1195 -79 1173 -67 1152 -53 c 0
 1131 -39 1111 -23 1093 -5 c 0
 1075 13 1059 33 1045 54 c 0
 1031 75 1019 97 1009 120 c 0
 999 145 991 170 986 196 c 0
 981 222 978 248 978 275 c 0
 978 302 981 328 986 354 c 0
 991 380 999 405 1009 429 c 0
 1019 452 1031 474 1045 495 c 0
 1059 516 1075 536 1093 554 c 0
 1111 573 1131 589 1152 603 c 0
 1173 617 1195 629 1218 639 c 0
 1243 650 1268 658 1294 663 c 0
 1320 668 1346 671 1373 671 c 0
 1400 671 1426 668 1452 663 c 0
 1478 658 1503 650 1527 639 c 0
 1551 629 1574 617 1595 603 c 0
 1616 589 1636 573 1655 554 c 0
1564 83 m 0
 1589 108 1609 137 1623 170 c 0
 1637 203 1644 238 1644 274 c 0
 1644 309 1637 343 1623 376 c 0
 1609 409 1589 438 1564 463 c 0
 1539 488 1510 508 1477 522 c 0
 1444 536 1410 543 1374 543 c 0
 1338 543 1303 536 1270 522 c 0
 1237 508 1208 488 1183 463 c 0
 1158 438 1138 409 1124 376 c 0
 1110 343 1103 309 1103 274 c 0
 1103 238 1110 203 1124 170 c 0
 1138 137 1158 108 1183 83 c 0
 1208 58 1237 39 1270 26 c 0
 1303 13 1338 6 1374 6 c 0
 1410 6 1444 13 1477 26 c 0
 1510 39 1539 58 1564 83 c 0
EndSplineSet
EndChar

StartChar: ampersand
Encoding: 38 38 24
Width: 1362
Flags: MW
HStem: -35 116<535.5 563.5> 1408 113<593.5 603>
VStem: 81 131<406 425 402.5 436.5> 283 124 789 124<1169.5 1238.5>
LayerCount: 2
Fore
SplineSet
708 989 m 1
 702 990 l 1
 722 1005 740 1025 755 1051 c 0
 770 1077 780 1103 785 1128 c 0
 788 1143 789 1160 789 1179 c 0
 789 1198 788 1216 787 1232 c 0
 786 1248 783 1263 778 1277 c 0
 773 1291 767 1305 760 1318 c 0
 752 1331 741 1343 728 1354 c 0
 715 1365 702 1374 689 1382 c 0
 676 1391 661 1398 645 1402 c 0
 629 1406 612 1408 594 1408 c 0
 581 1408 569 1407 557 1405 c 0
 545 1403 533 1400 522 1396 c 0
 511 1392 500 1387 490 1381 c 0
 480 1375 470 1368 461 1360 c 0
 452 1353 444 1344 437 1334 c 0
 430 1324 424 1313 419 1302 c 0
 414 1291 410 1279 407 1266 c 0
 404 1253 403 1240 403 1226 c 0
 403 1215 404 1203 407 1191 c 0
 410 1179 414 1166 419 1153 c 0
 424 1140 430 1127 437 1114 c 0
 444 1101 451 1088 458 1075 c 0
 466 1062 474 1050 482 1038 c 0
 490 1026 498 1014 507 1003 c 0
 516 991 530 973 549 950 c 0
 568 927 581 911 588 903 c 1
 608 915 628 929 648 944 c 0
 668 959 688 974 708 989 c 1
912 284 m 1
 486 827 l 1
 466 818 446 807 426 794 c 0
 406 781 387 768 370 755 c 0
 353 741 338 725 325 708 c 0
 312 691 299 674 287 657 c 0
 274 640 263 621 255 600 c 0
 247 579 239 559 232 540 c 0
 225 521 220 500 217 478 c 0
 214 456 212 435 212 415 c 0
 212 390 216 365 223 340 c 0
 230 315 238 293 247 273 c 0
 255 253 265 234 277 217 c 0
 289 200 302 184 316 170 c 0
 331 156 347 143 364 132 c 0
 381 121 399 112 418 105 c 0
 437 97 458 91 480 87 c 0
 502 83 524 81 547 81 c 0
 586 81 622 86 656 95 c 0
 690 104 722 118 751 136 c 0
 781 155 809 177 836 202 c 0
 863 227 888 254 912 284 c 1
662 810 m 1
 982 396 l 1
 995 419 1006 442 1015 466 c 0
 1024 490 1030 514 1033 539 c 0
 1036 564 1040 587 1044 608 c 0
 1048 629 1052 653 1055 681 c 1
 1167 644 l 1
 1162 608 1158 581 1154 564 c 0
 1150 547 1144 521 1137 487 c 0
 1130 453 1120 420 1107 388 c 0
 1094 356 1078 325 1060 296 c 1
 1294 0 l 1
 1132 0 l 1
 993 185 l 1
 962 146 929 112 895 84 c 0
 861 56 826 34 790 17 c 0
 755 0 716 -13 674 -22 c 0
 632 -31 587 -35 540 -35 c 0
 509 -35 479 -32 450 -26 c 0
 421 -20 393 -12 366 -1 c 0
 339 10 314 23 290 38 c 0
 266 53 244 70 224 89 c 0
 203 109 184 131 167 155 c 0
 150 179 136 205 125 232 c 0
 114 260 104 290 95 323 c 0
 86 356 81 389 81 423 c 0
 81 450 83 478 87 506 c 0
 91 534 98 560 107 583 c 0
 116 607 126 631 137 656 c 0
 148 681 161 703 176 723 c 0
 191 742 207 761 224 780 c 0
 241 799 260 816 281 831 c 0
 301 846 322 862 343 878 c 0
 364 894 386 908 409 919 c 1
 390 942 376 961 367 975 c 0
 358 989 346 1010 331 1037 c 0
 315 1065 303 1094 295 1125 c 0
 287 1156 283 1188 283 1221 c 0
 283 1245 285 1268 289 1289 c 0
 293 1310 300 1330 309 1349 c 0
 318 1367 328 1384 340 1400 c 0
 352 1416 365 1430 379 1443 c 0
 394 1456 410 1467 427 1477 c 0
 444 1487 462 1495 481 1501 c 0
 500 1508 520 1513 541 1516 c 0
 562 1519 583 1521 604 1521 c 0
 626 1521 647 1519 667 1515 c 0
 687 1511 707 1505 726 1498 c 1
 744 1490 761 1481 777 1471 c 0
 793 1461 808 1449 821 1436 c 0
 834 1423 847 1408 860 1392 c 0
 873 1376 883 1359 890 1341 c 0
 897 1323 903 1305 907 1286 c 0
 911 1267 913 1248 913 1229 c 0
 913 1204 912 1178 911 1152 c 0
 910 1126 907 1103 903 1083 c 0
 898 1060 891 1038 882 1017 c 0
 873 996 862 978 849 963 c 0
 836 949 822 935 807 922 c 0
 792 909 776 896 759 884 c 0
 742 873 726 861 712 848 c 0
 698 835 681 822 662 810 c 1
EndSplineSet
EndChar

StartChar: quotesingle
Encoding: 39 39 25
Width: 446
Flags: MW
HStem: 1004 491<274 300 168 408>
VStem: 168 240
LayerCount: 2
Fore
SplineSet
408 1495 m 1
 300 1004 l 1
 168 1004 l 1
 274 1495 l 1
 408 1495 l 1
EndSplineSet
EndChar

StartChar: parenleft
Encoding: 40 40 26
Width: 650
Flags: MW
HStem: -165 1818<462 477>
VStem: 107 148<657 838.5 657 861>
LayerCount: 2
Fore
SplineSet
255 748 m 0
 255 566 283 405 338 266 c 0
 393 127 468 18 562 -60 c 1
 462 -165 l 1
 352 -68 265 52 202 195 c 0
 139 338 107 522 107 748 c 0
 107 974 142 1164 212 1318 c 0
 282 1472 370 1584 477 1653 c 1
 562 1535 l 1
 468 1457 393 1352 338 1219 c 0
 283 1086 255 929 255 748 c 0
EndSplineSet
EndChar

StartChar: parenright
Encoding: 41 41 27
Width: 600
Flags: MW
HStem: -164 1818<125 139>
VStem: 342 148<748 749 748 839.5>
LayerCount: 2
Fore
SplineSet
490 748 m 1
 490 749 l 1
 491 536 450 342 367 168 c 0
 284 -6 208 -117 139 -164 c 1
 39 -59 l 1
 133 19 207 128 261 267 c 0
 315 406 342 567 342 749 c 0
 342 930 315 1087 261 1220 c 0
 207 1353 133 1458 39 1536 c 1
 125 1654 l 1
 221 1579 306 1466 379 1315 c 0
 452 1164 489 975 490 748 c 1
EndSplineSet
EndChar

StartChar: asterisk
Encoding: 42 42 28
Width: 1102
Flags: MW
HStem: 719 856<356 623 481 745>
VStem: 481 142<1232 1575 1232 1575 1232 1575>
LayerCount: 2
Fore
SplineSet
481 1575 m 1
 623 1575 l 1
 623 1232 l 1
 956 1331 l 1
 1002 1195 l 1
 678 1092 l 1
 863 808 l 1
 745 719 l 1
 556 1015 l 1
 356 719 l 1
 231 806 l 1
 432 1094 l 1
 107 1184 l 1
 147 1328 l 1
 481 1229 l 1
 481 1575 l 1
EndSplineSet
EndChar

StartChar: plus
Encoding: 43 43 29
Width: 1196
Flags: MW
HStem: 682 131<181 530 181 530 664 1013>
VStem: 530 134<328 682 328 682 813 1165>
LayerCount: 2
Fore
SplineSet
664 1165 m 1
 664 813 l 1
 1013 813 l 1
 1013 682 l 1
 664 682 l 1
 664 328 l 1
 530 328 l 1
 530 682 l 1
 181 682 l 1
 181 813 l 1
 530 813 l 1
 530 1165 l 1
 664 1165 l 1
EndSplineSet
EndChar

StartChar: comma
Encoding: 44 44 30
Width: 537
Flags: MW
HStem: -281 491<149 280.5>
VStem: 97 274
LayerCount: 2
Fore
SplineSet
279 209 m 1
 277 210 l 1
 284 210 291 208 299 205 c 0
 307 202 312 200 315 200 c 1
 334 189 348 175 357 159 c 0
 366 143 371 124 371 103 c 2
 371 89 l 1
 368 63 364 37 359 11 c 0
 354 -15 344 -42 329 -69 c 2
 312 -99 l 2
 301 -117 289 -135 276 -153 c 0
 263 -171 247 -190 228 -209 c 2
 192 -246 l 1
 149 -281 l 1
 97 -223 l 1
 122 -199 l 1
 149 -162 168 -133 178 -113 c 0
 188 -93 191 -70 188 -45 c 1
 186 -16 l 1
 183 -13 181 -9 180 -4 c 0
 179 1 178 6 177 11 c 0
 176 14 175 17 175 20 c 0
 175 23 175 26 175 29 c 2
 169 49 l 2
 168 54 166 60 163 66 c 0
 160 72 159 80 159 91 c 0
 159 100 161 112 165 126 c 0
 169 140 177 158 189 180 c 1
 228 203 l 1
 232 205 l 1
 235 205 238 205 240 205 c 0
 242 205 243 206 244 207 c 2
 279 209 l 1
EndSplineSet
EndChar

StartChar: hyphen
Encoding: 45 45 31
Width: 993
Flags: MW
HStem: 588 125<135 856 135 856>
VStem: 135 721<588 713 588 713>
LayerCount: 2
Fore
SplineSet
856 713 m 1
 856 588 l 1
 135 588 l 1
 135 713 l 1
 856 713 l 1
EndSplineSet
EndChar

StartChar: period
Encoding: 46 46 32
Width: 537
Flags: MW
HStem: -17 226<253 283 253 283.5>
VStem: 157 226<79 94 79 109.5>
LayerCount: 2
Fore
SplineSet
381 96 m 1
 383 94 l 1
 383 64 372 38 349 16 c 0
 326 -6 299 -17 268 -17 c 0
 238 -17 212 -6 190 16 c 0
 168 38 157 64 157 94 c 0
 157 125 168 152 190 175 c 0
 212 198 238 209 268 209 c 0
 298 209 324 198 347 175 c 0
 370 152 381 126 381 96 c 1
EndSplineSet
EndChar

StartChar: slash
Encoding: 47 47 33
Width: 658
Flags: MW
HStem: -217 1804<20 638 20 638>
VStem: 20 618
LayerCount: 2
Fore
SplineSet
638 1587 m 1
 147 -217 l 1
 20 -217 l 1
 512 1587 l 1
 638 1587 l 1
EndSplineSet
EndChar

StartChar: zero
Encoding: 48 48 34
Width: 1369
Flags: MW
HStem: -31 125<705 763 705 784> 1399 127<643 757>
VStem: 146 163<657 860.5 657 883.5> 1065 159<631.5 836.5>
LayerCount: 2
Fore
SplineSet
700 -31 m 1
 702 -30 l 1
 535 -30 401 42 299 186 c 0
 197 330 146 522 146 762 c 0
 146 1005 197 1193 298 1326 c 0
 399 1459 532 1526 697 1526 c 0
 860 1526 989 1454 1083 1311 c 0
 1177 1168 1224 975 1224 732 c 0
 1224 489 1179 301 1088 168 c 0
 997 35 868 -31 700 -31 c 1
703 95 m 1
 705 94 l 1
 821 94 910 149 972 260 c 0
 1034 371 1065 529 1065 734 c 0
 1065 939 1032 1101 967 1220 c 0
 902 1339 813 1399 701 1399 c 0
 585 1399 491 1343 418 1232 c 0
 345 1121 309 963 309 758 c 0
 309 556 346 395 420 275 c 0
 494 155 588 95 703 95 c 1
EndSplineSet
EndChar

StartChar: one
Encoding: 49 49 35
Width: 951
Flags: MW
HStem: 0 137<120 418 582 876 120 418>
VStem: 418 164<137 1332 1332 1332>
LayerCount: 2
Fore
SplineSet
876 137 m 1
 876 0 l 1
 120 0 l 1
 120 137 l 1
 418 137 l 1
 418 1332 l 1
 140 1233 l 1
 75 1359 l 1
 461 1495 l 1
 582 1495 l 1
 582 137 l 1
 876 137 l 1
EndSplineSet
EndChar

StartChar: two
Encoding: 50 50 36
Width: 1258
Flags: MW
HStem: 2 135 1395 124<602.5 650.5>
VStem: 157 152<1088 1169 1088 1201 1088 1201> 940 164<1125.5 1153 1111.5 1153.5> 986 136<138 274 2 274>
LayerCount: 2
Fore
SplineSet
374 136 m 1xe8
 986 138 l 1
 986 274 l 1
 1122 274 l 1
 1122 2 l 1xe8
 210 2 l 2
 171 2 147 21 139 58 c 0
 131 95 149 136 193 180 c 0
 212 199 305 296 472 470 c 0
 639 644 723 731 723 731 c 2
 744 752 763 772 780 791 c 0
 797 810 812 828 825 845 c 0
 838 862 850 879 861 895 c 0
 872 911 882 927 891 943 c 0
 900 959 908 975 914 991 c 0
 920 1007 925 1023 928 1038 c 0
 932 1054 935 1069 937 1084 c 0
 939 1099 940 1116 940 1135 c 0
 940 1172 934 1206 921 1237 c 0
 908 1268 889 1296 864 1321 c 0
 839 1346 805 1365 763 1377 c 0
 721 1389 675 1395 626 1395 c 0
 579 1395 536 1388 496 1374 c 0
 456 1360 422 1339 394 1312 c 0
 375 1294 358 1273 342 1249 c 0
 326 1225 315 1198 309 1169 c 1
 309 1088 l 1
 157 1088 l 1
 157 1201 l 1
 159 1234 173 1270 198 1309 c 0
 223 1348 250 1380 279 1406 c 0
 319 1443 369 1471 429 1490 c 0
 489 1509 555 1519 628 1519 c 0
 702 1519 770 1510 832 1493 c 0
 894 1476 945 1450 985 1415 c 0
 1024 1380 1054 1338 1074 1289 c 0
 1094 1240 1104 1184 1104 1122 c 0
 1104 1101 1102 1082 1099 1064 c 0
 1096 1046 1092 1027 1087 1008 c 0
 1081 989 1074 969 1066 949 c 0
 1058 929 1048 909 1037 890 c 0xf0
 1026 871 1013 851 999 831 c 0
 985 811 970 791 953 771 c 0
 936 750 918 728 898 706 c 0
 878 684 857 660 834 635 c 2
 374 136 l 1xe8
EndSplineSet
EndChar

StartChar: three
Encoding: 51 51 37
Width: 1227
Flags: MW
HStem: -33 120<563.5 602.5> 724 132<457 601> 1357 138<314 892 314 314>
VStem: 178 136<1221 1357 1221 1361 1221 1384.5> 935 156<383.5 411.5 383.5 419.5>
LayerCount: 2
Fore
SplineSet
1089 1377 m 1
 601 856 l 1
 686 859 781 839 886 797 c 0
 991 755 1057 663 1084 522 c 0
 1087 502 1089 482 1090 462 c 0
 1091 442 1091 422 1091 401 c 0
 1091 366 1087 333 1080 302 c 0
 1073 271 1064 242 1053 215 c 0
 1041 188 1027 163 1011 140 c 0
 995 117 976 97 955 79 c 0
 933 61 909 45 882 31 c 0
 855 17 826 5 795 -4 c 0
 763 -13 729 -20 694 -25 c 0
 659 -30 622 -33 583 -33 c 0
 544 -33 507 -31 472 -27 c 0
 437 -23 405 -15 376 -3 c 0
 305 26 247 66 203 116 c 0
 159 166 137 191 137 191 c 1
 234 284 l 1
 234 284 245 270 266 241 c 0
 287 212 310 189 335 172 c 0
 376 143 414 122 448 108 c 0
 482 94 526 87 579 87 c 0
 633 87 681 94 724 108 c 0
 767 122 804 142 835 169 c 0
 866 196 890 228 908 266 c 0
 926 304 935 347 935 394 c 0
 935 445 929 495 916 544 c 0
 903 593 880 629 847 652 c 0
 814 676 773 694 723 706 c 0
 673 718 615 724 549 724 c 2
 457 724 l 1
 425 853 l 1
 892 1357 l 1
 314 1357 l 1
 314 1221 l 1
 178 1221 l 1
 178 1361 l 2
 178 1408 188 1442 208 1463 c 0
 228 1484 261 1495 308 1495 c 2
 1089 1495 l 1
 1089 1377 l 1
EndSplineSet
EndChar

StartChar: four
Encoding: 52 52 38
Width: 1249
Flags: MW
HStem: 327 138<219 788 219 788 952 1133>
VStem: 788 164<0 327 0 327 465 1350 1350 1350>
LayerCount: 2
Fore
SplineSet
952 1495 m 1
 952 465 l 1
 1133 465 l 1
 1133 327 l 1
 952 327 l 1
 952 0 l 1
 788 0 l 1
 788 327 l 1
 39 327 l 1
 39 449 l 1
 702 1495 l 1
 952 1495 l 1
219 465 m 1
 788 465 l 1
 788 1350 l 1
 219 465 l 1
EndSplineSet
EndChar

StartChar: five
Encoding: 53 53 39
Width: 1245
Flags: MW
HStem: -17 125<575.5 682 575.5 694> 765 118<603.5 613.5> 1359 136<406 915 406 406>
VStem: 159 145<411.5 447> 915 136<1222 1359 1359 1359> 968 160<382 454.5 349.5 466.5>
LayerCount: 2
Fore
SplineSet
915 1222 m 1xe8
 915 1359 l 1xe8
 406 1359 l 1
 356 839 l 1
 405 854 452 865 497 872 c 0
 542 879 584 883 623 883 c 0
 706 883 779 872 842 850 c 0
 905 828 958 797 1001 756 c 0
 1043 715 1075 666 1096 609 c 0
 1117 552 1128 489 1128 420 c 0
 1128 279 1084 171 995 96 c 0
 906 21 778 -17 610 -17 c 0
 541 -17 479 -6 424 16 c 0
 369 38 322 69 283 110 c 1
 243 150 212 198 191 255 c 0
 170 312 159 376 159 447 c 1
 304 447 l 1
 304 345 331 263 386 201 c 0
 441 139 522 108 629 108 c 0
 735 108 818 135 878 189 c 0
 938 243 968 326 968 438 c 0
 968 495 958 545 938 587 c 0xf4
 918 629 891 664 856 691 c 0
 821 718 781 737 736 748 c 0
 691 759 641 765 586 765 c 0
 530 765 479 757 433 741 c 0
 387 725 336 707 280 688 c 1
 205 745 l 1
 274 1495 l 1
 1051 1495 l 1
 1051 1222 l 1
 915 1222 l 1xe8
EndSplineSet
EndChar

StartChar: six
Encoding: 54 54 40
Width: 1288
Flags: MW
HStem: -30 125<606.5 715 606.5 736> 793 142<660.5 728.5 660.5 729.5> 1376 141<640.5 746.5>
VStem: 147 160 1009 155<380.5 433>
LayerCount: 2
Fore
SplineSet
988 1100 m 1
 989 1101 l 1
 980 1195 952 1264 906 1309 c 0
 860 1354 792 1376 701 1376 c 0
 580 1376 484 1330 414 1238 c 0
 344 1146 308 995 307 784 c 1
 367 831 429 868 494 895 c 0
 559 922 626 935 695 935 c 0
 762 935 823 922 878 896 c 0
 933 870 982 838 1025 801 c 0
 1067 764 1101 711 1126 642 c 0
 1151 573 1164 502 1164 429 c 0
 1164 287 1120 175 1032 93 c 0
 944 11 818 -30 654 -30 c 0
 492 -30 367 33 279 159 c 0
 191 285 147 471 147 716 c 0
 147 836 159 943 182 1037 c 0
 205 1131 239 1214 284 1285 c 0
 329 1356 385 1412 451 1454 c 0
 517 1496 594 1517 681 1517 c 0
 824 1517 934 1482 1010 1412 c 0
 1086 1342 1130 1249 1143 1133 c 1
 988 1100 l 1
1009 433 m 1
 1010 434 l 1
 1010 541 978 628 915 694 c 0
 852 760 775 793 684 793 c 0
 617 793 552 776 489 743 c 0
 426 710 365 669 306 621 c 1
 313 458 347 330 407 236 c 0
 467 142 552 95 661 95 c 0
 769 95 854 125 916 185 c 0
 978 245 1009 328 1009 433 c 1
EndSplineSet
EndChar

StartChar: seven
Encoding: 55 55 41
Width: 1081
Flags: MW
HStem: 1358 137<202 823 202 202>
VStem: 74 128<1255 1358 1255 1495>
LayerCount: 2
Fore
SplineSet
379 0 m 1
 217 0 l 1
 823 1358 l 1
 202 1358 l 1
 202 1255 l 1
 74 1255 l 1
 74 1495 l 1
 985 1495 l 1
 985 1374 l 1
 379 0 l 1
EndSplineSet
EndChar

StartChar: eight
Encoding: 56 56 42
Width: 1284
Flags: MW
HStem: -34 117<635 672.5> 1388 128<601 659.5>
VStem: 137 158<325.5 406.5 317.5 407.5> 164 151<1098.5 1162 1098.5 1164> 965 140<1088.5 1143.5> 984 147<320.5 378.5 320.5 385.5>
LayerCount: 2
Fore
SplineSet
973 1410 m 1xe8
 974 1406 l 1
 1015 1373 1047 1333 1070 1287 c 0
 1093 1241 1105 1189 1105 1130 c 0
 1105 1047 1086 968 1048 893 c 0xe8
 1010 818 939 762 835 725 c 1
 888 705 929 686 957 668 c 0
 985 650 1013 626 1042 597 c 0
 1071 568 1093 532 1108 490 c 0
 1123 448 1131 403 1131 354 c 0
 1131 287 1119 230 1094 184 c 0
 1069 138 1035 98 992 65 c 0
 948 31 896 6 835 -10 c 0
 774 -26 708 -34 637 -34 c 0
 566 -34 500 -26 439 -10 c 0
 378 6 325 31 280 64 c 0
 235 97 200 137 175 185 c 0
 150 233 137 291 137 360 c 0
 137 455 157 539 198 611 c 0xe4
 239 683 303 742 391 787 c 1
 338 813 287 855 238 912 c 0
 189 969 164 1043 164 1134 c 0
 164 1194 176 1247 199 1293 c 0xd8
 222 1339 255 1379 297 1412 c 0
 338 1445 388 1471 446 1489 c 0
 504 1507 567 1516 635 1516 c 0
 705 1516 769 1507 826 1488 c 0
 883 1469 932 1443 973 1410 c 1xe8
413 930 m 1xd8
 416 933 l 1
 443 908 478 885 520 864 c 0
 562 843 610 823 663 803 c 1
 750 828 822 869 879 925 c 0
 936 981 965 1048 965 1125 c 0
 965 1162 955 1196 934 1227 c 0
 913 1258 890 1286 864 1311 c 0
 838 1336 806 1355 768 1368 c 0
 730 1381 685 1388 634 1388 c 0
 535 1388 457 1365 400 1318 c 0
 343 1271 315 1205 315 1119 c 0
 315 1078 325 1043 344 1013 c 0
 363 983 386 955 413 930 c 1xd8
636 85 m 1
 635 83 l 1xd8
 742 83 827 106 890 151 c 0
 953 196 984 268 984 367 c 0
 984 404 976 437 961 466 c 0
 946 495 923 522 892 547 c 0
 861 572 817 598 759 626 c 0
 701 654 631 683 550 713 c 1
 464 690 400 648 358 587 c 0
 316 526 295 451 295 362 c 0
 295 273 325 205 386 157 c 0xe4
 447 109 530 85 636 85 c 1
EndSplineSet
EndChar

StartChar: nine
Encoding: 57 57 43
Width: 1282
Flags: MW
HStem: -20 144 580 138<550.5 619.5> 1388 128<569 677.5>
VStem: 124 161<1061 1114 1061 1134.5> 980 158 988 151
LayerCount: 2
Fore
SplineSet
285 1061 m 1xf4
 286 1061 l 1xf4
 286 954 314 870 370 809 c 0
 426 748 499 718 589 718 c 0
 656 718 723 739 789 781 c 0
 855 823 919 869 980 918 c 1
 977 1083 944 1203 881 1277 c 0xf8
 818 1351 732 1388 623 1388 c 0
 515 1388 432 1360 373 1304 c 0
 314 1248 285 1167 285 1061 c 1xf4
1138 821 m 1
 1139 818 l 1
 1139 548 1091 342 996 201 c 0
 901 60 765 -14 588 -20 c 0
 494 -23 415 -17 351 -1 c 0
 287 15 221 51 154 106 c 1
 226 237 l 1
 310 184 367 152 397 141 c 0
 427 130 492 124 592 124 c 0
 716 124 812 175 880 276 c 0
 948 377 984 538 988 758 c 1
 925 709 859 667 791 632 c 0
 723 597 654 580 585 580 c 0
 516 580 453 593 395 619 c 0
 337 645 289 678 252 719 c 0
 215 759 184 808 160 866 c 0
 136 924 124 989 124 1062 c 0
 124 1207 168 1319 255 1398 c 0
 342 1477 466 1516 627 1516 c 0
 788 1516 913 1457 1003 1339 c 0
 1093 1221 1138 1048 1138 821 c 1
EndSplineSet
EndChar

StartChar: colon
Encoding: 58 58 44
Width: 537
Flags: MW
HStem: -19 226<255 285 255 285.5> -19 1129<255 283 253 285.5> 884 226<253 283 253 283.5>
VStem: 157 228
LayerCount: 2
Fore
SplineSet
381 997 m 1x50
 383 995 l 1x50
 383 965 372 939 349 917 c 0
 326 895 299 884 268 884 c 0
 238 884 212 895 190 917 c 0
 168 939 157 965 157 995 c 0
 157 1026 168 1053 190 1076 c 0
 212 1099 238 1110 268 1110 c 0
 298 1110 324 1099 347 1076 c 0x30
 370 1053 381 1027 381 997 c 1x50
383 94 m 1
 385 92 l 1x50
 385 62 374 36 351 14 c 0
 328 -8 301 -19 270 -19 c 0
 240 -19 214 -8 192 14 c 0
 170 36 159 62 159 92 c 0
 159 123 170 150 192 173 c 0
 214 196 240 207 270 207 c 0
 300 207 326 196 349 173 c 0x90
 372 150 383 124 383 94 c 1
EndSplineSet
EndChar

StartChar: semicolon
Encoding: 59 59 45
Width: 537
Flags: MW
HStem: -283 1393<151 283> 884 226<253 283 253 283.5>
VStem: 99 284 161 211<88 100 100 107.5>
LayerCount: 2
Fore
SplineSet
381 997 m 1xa0
 383 995 l 1xa0
 383 965 372 939 349 917 c 0
 326 895 299 884 268 884 c 0
 238 884 212 895 190 917 c 0
 168 939 157 965 157 995 c 0
 157 1026 168 1053 190 1076 c 0
 212 1099 238 1110 268 1110 c 0
 298 1110 324 1099 347 1076 c 0x60
 370 1053 381 1027 381 997 c 1xa0
246 205 m 1x90
 246 206 l 1
 266 208 l 2
 272 208 277 208 282 207 c 0
 287 206 291 205 295 204 c 2
 315 198 l 2
 317 197 319 196 320 195 c 0
 321 194 322 194 323 194 c 2
 333 187 l 1
 349 169 l 1
 363 151 370 138 370 129 c 0
 370 120 371 114 372 110 c 1
 372 87 l 1
 370 66 366 44 361 21 c 0
 356 -2 349 -25 340 -48 c 1
 324 -81 l 2
 319 -90 314 -99 309 -108 c 0
 304 -117 299 -125 294 -133 c 1
 230 -211 l 1
 214 -228 199 -242 186 -254 c 0
 173 -266 161 -276 151 -283 c 1
 99 -225 l 1
 124 -201 l 1
 139 -180 154 -156 168 -129 c 0
 182 -102 189 -75 189 -48 c 2
 189 -34 l 1
 186 -20 181 -3 173 17 c 0
 165 37 161 61 161 88 c 2
 161 100 l 2
 161 115 162 127 165 136 c 0
 168 145 172 153 177 159 c 0
 182 165 188 171 195 176 c 0
 202 181 210 188 218 197 c 0
 219 197 220 197 221 197 c 0
 222 197 222 198 222 199 c 2
 234 203 l 2
 237 203 240 203 242 203 c 0
 244 203 245 204 246 205 c 1x90
EndSplineSet
EndChar

StartChar: less
Encoding: 60 60 46
Width: 1196
Flags: MW
HStem: 315 861<1001 1001>
VStem: 195 806<315 829 315 829>
LayerCount: 2
Fore
SplineSet
1001 1176 m 1
 1001 1028 l 1
 319 745 l 1
 1001 463 l 1
 1001 315 l 1
 195 662 l 1
 195 829 l 1
 1001 1176 l 1
EndSplineSet
EndChar

StartChar: equal
Encoding: 61 61 47
Width: 1196
Flags: MW
HStem: 455 133<195 1001 195 1001> 871 133<195 1001 195 1001>
VStem: 195 806<455 588 455 588 871 1004 455 1004>
LayerCount: 2
Fore
SplineSet
1001 1004 m 1
 1001 871 l 1
 195 871 l 1
 195 1004 l 1
 1001 1004 l 1
1001 588 m 1
 1001 455 l 1
 195 455 l 1
 195 588 l 1
 1001 588 l 1
EndSplineSet
EndChar

StartChar: greater
Encoding: 62 62 48
Width: 1196
Flags: MW
HStem: 315 861<195 195>
VStem: 195 806<315 829 463 829 662 1176 662 1176>
LayerCount: 2
Fore
SplineSet
195 463 m 1
 877 745 l 1
 195 1028 l 1
 195 1176 l 1
 1001 829 l 1
 1001 662 l 1
 195 315 l 1
 195 463 l 1
EndSplineSet
EndChar

StartChar: question
Encoding: 63 63 49
Width: 936
Flags: MW
HStem: -18 218<395.5 425> 1401 121<434 454>
VStem: 37 141<1129 1158.5> 301 218<74.5 104> 348 119<335 361> 689 150<1107.5 1152.5>
LayerCount: 2
Fore
SplineSet
434 1401 m 1xf4
 433 1400 l 1xf4
 355 1400 293 1374 247 1323 c 0
 201 1272 178 1207 178 1129 c 1
 37 1129 l 1
 37 1188 46 1242 64 1290 c 0
 82 1338 109 1379 144 1413 c 0
 179 1447 221 1474 271 1493 c 0
 321 1512 377 1522 438 1522 c 0
 501 1522 558 1512 608 1493 c 0
 658 1474 700 1447 734 1413 c 0
 768 1379 794 1338 812 1290 c 0
 830 1242 839 1189 839 1132 c 0
 839 1073 828 1016 806 962 c 0
 784 908 751 857 707 808 c 2
 598 685 l 2
 555 636 522 580 500 518 c 0
 478 456 467 395 467 335 c 1
 348 335 l 1
 348 387 353 438 363 487 c 0
 373 536 388 580 407 619 c 0xec
 426 657 449 694 476 729 c 0
 503 764 534 802 569 842 c 0
 609 887 639 934 659 982 c 0
 679 1030 689 1081 689 1134 c 0
 689 1171 683 1205 671 1237 c 0
 659 1269 642 1297 621 1322 c 0
 599 1347 572 1366 541 1380 c 0
 510 1394 474 1401 434 1401 c 1xf4
519 89 m 0
 519 60 508 35 487 14 c 0
 466 -7 440 -18 410 -18 c 0
 381 -18 356 -7 334 14 c 0
 312 35 301 60 301 89 c 0
 301 119 312 145 334 167 c 0
 356 189 381 200 410 200 c 0
 440 200 466 189 487 167 c 0
 508 145 519 119 519 89 c 0
EndSplineSet
EndChar

StartChar: at
Encoding: 64 64 50
Width: 2191
Flags: MW
HStem: -190 125<997.5 1111.5 997.5 1113> 230 108<1566.5 1609> 258 112<1020.5 1024> 1094 109<1035.5 1081.5 1027.5 1097.5> 1513 124<1065.5 1193.5>
VStem: 174 155<622.5 736.5> 676 145<670.5 727> 1274.5 149 1873 148<746.5 828.5>
LayerCount: 2
Fore
SplineSet
1806 1382 m 1xdf80
 1812 1388 l 1
 1883 1309 1936 1217 1970 1112 c 0
 2004 1007 2021 897 2021 781 c 0
 2021 710 2012 641 1994 575 c 0
 1976 509 1948 450 1911 399 c 0
 1874 348 1827 307 1770 276 c 0
 1713 245 1647 230 1571 230 c 0
 1500 230 1447 245 1413 275 c 0xdf80
 1379 305 1351 353 1330 418 c 1
 1293 362 1243 321 1181 296 c 0
 1119 271 1056 258 992 258 c 0
 939 258 893 270 854 293 c 0xbf80
 815 316 782 347 756 386 c 0
 729 425 709 471 696 524 c 0
 683 577 676 634 676 694 c 0
 676 760 683 823 697 884 c 0
 711 945 734 999 765 1046 c 0
 796 1093 836 1131 885 1160 c 0
 934 1189 993 1203 1062 1203 c 0
 1101 1203 1142 1197 1184 1185 c 0
 1226 1173 1269 1154 1313 1128 c 1
 1312 1220 l 1
 1438 1204 l 1
 1409 643 l 2
 1408 636 1407 629 1407 622 c 0
 1407 615 1407 608 1407 601 c 0
 1407 514 1423 448 1456 404 c 0
 1489 360 1536 338 1597 338 c 0
 1642 338 1682 349 1716 370 c 0
 1750 391 1779 421 1802 460 c 0
 1825 498 1843 544 1855 599 c 0
 1867 654 1873 714 1873 779 c 0
 1873 878 1858 972 1829 1061 c 0
 1800 1150 1755 1228 1695 1295 c 0
 1634 1362 1557 1415 1463 1454 c 0
 1369 1493 1258 1513 1129 1513 c 0
 1002 1513 889 1492 790 1450 c 0
 691 1408 607 1350 538 1276 c 0
 469 1201 417 1113 382 1011 c 0
 347 909 329 798 329 678 c 0
 329 567 345 466 376 375 c 0
 407 284 453 206 514 141 c 0
 575 76 651 25 742 -11 c 0
 833 -47 938 -65 1057 -65 c 0
 1166 -65 1251 -56 1312 -38 c 0
 1373 -20 1441 18 1516 77 c 1
 1594 -26 l 1
 1509 -89 1429 -132 1354 -155 c 0
 1279 -178 1177 -190 1049 -190 c 0
 900 -190 770 -167 660 -121 c 0
 550 -75 459 -13 388 66 c 1
 316 144 262 235 227 339 c 0
 192 443 174 554 174 671 c 0
 174 802 194 926 234 1043 c 0
 274 1160 335 1263 416 1351 c 0
 497 1439 597 1509 716 1560 c 0
 835 1611 974 1637 1133 1637 c 0
 1287 1637 1420 1614 1531 1568 c 0
 1642 1522 1734 1460 1806 1382 c 1xdf80
1288 1026 m 1
 1288 1025 l 1xdf80
 1257 1043 1223 1059 1187 1073 c 0
 1151 1087 1115 1094 1080 1094 c 0
 991 1094 926 1061 884 994 c 0
 842 927 821 827 821 693 c 0
 821 648 825 606 833 566 c 0
 841 526 854 491 871 462 c 0
 888 433 910 410 938 394 c 0
 966 378 1000 370 1041 370 c 0
 1082 370 1121 381 1157 403 c 0xbf80
 1193 425 1228 457 1261 500 c 1
 1288 1026 l 1
EndSplineSet
EndChar

StartChar: A
Encoding: 65 65 51
Width: 1297
Flags: MW
HStem: 0 137<-19 83 -19 145 -19 83> 459 127<393 898 393 939 352 898> 1341 154<640 651 640 640>
VStem: -19 1325<0 136 0 137 0 137>
LayerCount: 2
Fore
SplineSet
898 586 m 1
 651 1341 l 1
 640 1341 l 1
 393 586 l 1
 898 586 l 1
218 53 m 2
 212 36 203 23 191 14 c 0
 179 5 164 0 145 0 c 2
 -19 0 l 1
 -19 137 l 1
 83 137 l 1
 536 1495 l 1
 753 1495 l 1
 1208 136 l 1
 1306 136 l 1
 1306 0 l 1
 1146 0 l 2
 1127 0 1111 5 1099 14 c 0
 1087 23 1078 36 1072 53 c 2
 939 459 l 1
 352 459 l 1
 218 53 l 2
EndSplineSet
EndChar

StartChar: B
Encoding: 66 66 52
Width: 1298
Flags: MW
HStem: 0 133<424 736 736 737> 694 145<423 744.5> 1356 137<422 740.5>
VStem: 119 303 255 168.5 973 162<1059.5 1144> 1041 160<357.5 454>
LayerCount: 2
Fore
SplineSet
119 1495 m 1xf2
 666 1493 l 2
 815 1493 930 1458 1012 1388 c 0
 1094 1318 1135 1223 1135 1103 c 0
 1135 1016 1112 942 1067 882 c 0xec
 1022 822 958 784 876 767 c 1
 979 754 1059 715 1116 650 c 0
 1173 585 1201 505 1201 410 c 0
 1201 273 1162 170 1085 102 c 0
 1008 34 892 0 737 0 c 2
 255 0 l 1
 255 1358 l 1xea
 119 1358 l 1
 119 1495 l 1xf2
422 840 m 1
 698 839 l 2
 791 839 860 859 905 899 c 0
 950 939 973 1006 973 1101 c 0
 973 1187 946 1251 892 1293 c 0
 838 1335 759 1356 656 1356 c 2
 422 1356 l 1
 422 840 l 1
423 694 m 1
 424 133 l 1
 736 133 l 2
 838 133 914 154 965 196 c 0
 1016 238 1041 308 1041 407 c 0
 1041 501 1012 572 953 621 c 0xea
 894 670 809 694 698 694 c 2
 423 694 l 1
EndSplineSet
EndChar

StartChar: C
Encoding: 67 67 53
Width: 1400
Flags: MW
HStem: -37 140<708.5 871 708.5 883.5> 1377 140<704 830>
VStem: 42 154<751 842.5 662.5 859>
LayerCount: 2
Fore
SplineSet
40 752 m 1
 42 751 l 1
 42 967 113 1149 255 1296 c 0
 397 1443 573 1517 784 1517 c 0
 890 1517 1006 1492 1132 1443 c 0
 1258 1394 1335 1313 1363 1200 c 1
 1226 1162 l 1
 1195 1244 1136 1300 1048 1331 c 0
 960 1362 873 1377 787 1377 c 0
 621 1377 481 1318 367 1200 c 0
 253 1082 196 933 196 752 c 0
 196 573 253 420 367 293 c 0
 481 166 623 103 794 103 c 0
 948 103 1064 134 1142 196 c 0
 1220 258 1259 289 1259 289 c 1
 1371 207 l 1
 1371 207 1321 166 1220 85 c 0
 1119 4 976 -37 791 -37 c 0
 572 -37 392 40 251 194 c 0
 110 348 40 534 40 752 c 1
EndSplineSet
EndChar

StartChar: D
Encoding: 68 68 54
Width: 1436
Flags: MW
HStem: 1.5 132.5 1360 137<732 806.5>
VStem: 206 164<134 1358 1358 1358> 1213 154<647.5 854>
LayerCount: 2
Fore
SplineSet
70 1358 m 1
 70 1497 l 1
 724 1497 l 2
 929 1497 1087 1433 1199 1306 c 0
 1311 1179 1367 993 1367 749 c 0
 1367 504 1311 318 1199 190 c 0
 1087 62 929 -1 724 0 c 2
 206 3 l 1
 206 1358 l 1
 70 1358 l 1
732 1360 m 2
 370 1361 l 1
 370 134 l 1
 732 134 l 2
 881 134 998 185 1084 287 c 0
 1170 389 1213 544 1213 751 c 0
 1213 957 1170 1110 1084 1210 c 0
 998 1310 881 1360 732 1360 c 2
EndSplineSet
EndChar

StartChar: E
Encoding: 69 69 55
Width: 1182
Flags: MW
HStem: 0 138<398 957 398 1029> 691 137<398 980 398 980> 1359 136<398 957 398 398>
VStem: 235 163<138 691 828 1358 1358 1358> 957 115<1223 1359 1359 1359> 957 136<138 273>
LayerCount: 2
Fore
SplineSet
99 1358 m 1xf8
 99 1495 l 1
 1011 1495 l 2
 1032 1495 1047 1490 1057 1480 c 0
 1067 1470 1072 1454 1072 1433 c 2
 1072 1223 l 1
 957 1223 l 1
 957 1359 l 1xf8
 398 1359 l 1
 398 828 l 1
 980 828 l 1
 980 691 l 1
 398 691 l 1
 398 138 l 1
 957 138 l 1
 957 273 l 1
 1093 273 l 1
 1093 64 l 2
 1093 43 1088 27 1077 16 c 0
 1066 5 1050 0 1029 0 c 2xf4
 235 0 l 1
 235 1358 l 1
 99 1358 l 1xf8
EndSplineSet
EndChar

StartChar: F
Encoding: 70 70 56
Width: 1148
Flags: MW
HStem: 690 137<408 955 408 955> 1358 136<408 923 408 408>
VStem: 110 298<1357 1358> 246 162.5 923 126<1202 1358 1358 1358>
LayerCount: 2
Fore
SplineSet
408 690 m 1xd8
 409 -1 l 1
 246 -1 l 1
 246 1357 l 1xd8
 110 1357 l 1
 110 1494 l 1xe8
 987 1494 l 2
 1008 1494 1024 1489 1034 1479 c 0
 1044 1469 1049 1453 1049 1432 c 2
 1049 1202 l 1
 923 1202 l 1
 923 1358 l 1
 408 1358 l 1
 408 827 l 1
 955 827 l 1
 955 690 l 1
 408 690 l 1xd8
EndSplineSet
EndChar

StartChar: G
Encoding: 71 71 57
Width: 1425
Flags: MW
HStem: -23 140<707.5 848.5 707.5 865> 571 132<1003 1209 1003 1266> 1389 142<699 850>
VStem: 31 156<665 846.5 665 865.5> 1256 141<364 379 379 523 523 531>
LayerCount: 2
Fore
SplineSet
31 758 m 0
 31 973 103 1156 247 1306 c 0
 391 1456 569 1531 780 1531 c 0
 953 1531 1084 1500 1173 1439 c 0
 1262 1378 1306 1347 1306 1347 c 1
 1218 1235 l 1
 1218 1235 1179 1261 1101 1312 c 0
 1023 1363 917 1389 783 1389 c 0
 615 1389 474 1328 359 1207 c 0
 244 1086 187 936 187 757 c 0
 187 573 246 420 363 299 c 0
 480 178 623 117 792 117 c 0
 905 117 1007 147 1098 206 c 0
 1189 265 1241 311 1254 344 c 0
 1255 347 1256 354 1256 364 c 0
 1256 374 1256 379 1256 379 c 1
 1256 523 l 2
 1256 539 1252 551 1244 559 c 0
 1236 567 1224 571 1209 571 c 2
 1003 571 l 1
 1003 703 l 1
 1266 703 l 2
 1312 703 1345 693 1366 672 c 0
 1387 651 1397 618 1397 573 c 2
 1397 344 l 2
 1397 271 1334 192 1207 106 c 0
 1080 20 941 -23 789 -23 c 0
 585 -23 408 51 257 199 c 0
 106 347 31 533 31 758 c 0
EndSplineSet
EndChar

StartChar: H
Encoding: 72 72 58
Width: 1587
Flags: MW
HStem: 690 138<410 1174 409 1175 410 410> 1358 137<120 246 120 347 1339 1466 1339 1339>
VStem: 120 289<1358 1433 828 1495 828 1495> 246 164<0 690 0 1358> 1174 292<1358 1433 1433 1443.5> 1175 164<1 690 690 690>
LayerCount: 2
Fore
SplineSet
1339 1358 m 1xd4
 1339 0 l 1
 1175 1 l 1
 1175 690 l 1
 410 690 l 1
 410 0 l 1
 246 0 l 1
 246 1358 l 1xd4
 120 1358 l 1
 120 1495 l 1xe4
 347 1495 l 2
 368 1495 384 1490 394 1480 c 0
 404 1470 409 1454 409 1433 c 2
 409 828 l 1
 1174 828 l 1
 1174 1433 l 2
 1174 1454 1179 1470 1190 1480 c 0
 1201 1490 1217 1495 1238 1495 c 2xd4
 1466 1495 l 1
 1466 1358 l 1xd8
 1339 1358 l 1xd4
EndSplineSet
EndChar

StartChar: I
Encoding: 73 73 59
Width: 717
Flags: MW
HStem: 0 137<140 276 440 576 140 276> 1358 137<140 276 140 576 440 440 440 576>
VStem: 276 164<137 1358 137 1358>
LayerCount: 2
Fore
SplineSet
576 137 m 1
 576 0 l 1
 140 0 l 1
 140 137 l 1
 276 137 l 1
 276 1358 l 1
 140 1358 l 1
 140 1495 l 1
 576 1495 l 1
 576 1358 l 1
 440 1358 l 1
 440 137 l 1
 576 137 l 1
EndSplineSet
EndChar

StartChar: J
Encoding: 74 74 60
Width: 1100
Flags: MW
HStem: -3 134<515.5 597.5 515.5 627.5> 1358 137<473 856 473 943>
VStem: 78 147<445 451 451 506 396.5 506> 856 156<453 1358 1358 1358>
LayerCount: 2
Fore
SplineSet
943 1495 m 1
 944 1492 l 1
 967 1492 984 1487 995 1477 c 0
 1006 1467 1012 1451 1012 1430 c 2
 1012 445 l 2
 1012 296 970 184 887 109 c 0
 804 34 695 -3 560 -3 c 0
 427 -3 313 34 219 109 c 0
 125 184 78 296 78 445 c 2
 78 506 l 1
 225 506 l 1
 225 451 l 2
 225 342 260 261 329 209 c 0
 398 157 474 131 557 131 c 0
 638 131 708 153 767 196 c 0
 826 239 856 325 856 453 c 2
 856 1358 l 1
 473 1358 l 1
 473 1495 l 1
 943 1495 l 1
EndSplineSet
EndChar

StartChar: K
Encoding: 75 75 61
Width: 1365
Flags: MW
HStem: -1 138<1119.5 1316 1171 1316 1171 1316> 684 144<441 627 441 441> 1357 137<137 273 137 372>
VStem: 137 303<1357 1426 828 1494 828 1494> 273 168<-1 684 -1 1357>
LayerCount: 2
Fore
SplineSet
1316 137 m 1xe8
 1316 -1 l 1
 1127 -1 l 2
 1112 -1 1096 4 1080 14 c 0
 1064 24 1051 36 1041 49 c 1
 627 684 l 1
 441 684 l 1
 441 -1 l 1
 273 -1 l 1
 273 1357 l 1xe8
 137 1357 l 1
 137 1494 l 1xf0
 372 1494 l 2
 393 1494 410 1488 422 1476 c 0
 434 1464 440 1447 440 1426 c 2
 440 828 l 1
 634 828 l 1
 1129 1495 l 1
 1308 1495 l 1
 772 754 l 1
 1171 137 l 1
 1316 137 l 1xe8
EndSplineSet
EndChar

StartChar: L
Encoding: 76 76 62
Width: 1053
Flags: MW
HStem: 0 137<443 909 443 969> 1358 137<140 276 140 444>
VStem: 276 167.5 908 123
LayerCount: 2
Fore
SplineSet
444 1495 m 1
 443 137 l 1
 909 137 l 1
 907 273 l 1
 1031 273 l 1
 1031 64 l 2
 1031 43 1026 27 1016 16 c 0
 1006 5 990 0 969 0 c 2
 276 0 l 1
 276 1358 l 1
 140 1358 l 1
 140 1495 l 1
 444 1495 l 1
EndSplineSet
EndChar

StartChar: M
Encoding: 77 77 63
Width: 1971
Flags: MW
HStem: 0 136<160 296 160 390 160 296 1726 1862>
VStem: 160 1703<0 136 0 136>
LayerCount: 2
Fore
SplineSet
1862 136 m 1
 1863 0 l 1
 1633 0 l 2
 1613 0 1597 5 1586 15 c 0
 1575 25 1569 40 1568 59 c 2
 1490 1272 l 1
 1076 211 l 1
 923 211 l 1
 531 1272 l 1
 456 59 l 2
 455 40 449 25 438 15 c 0
 427 5 411 0 390 0 c 2
 160 0 l 1
 160 136 l 1
 296 136 l 1
 370 1495 l 1
 556 1495 l 2
 573 1495 588 1491 600 1483 c 0
 612 1475 621 1462 627 1445 c 2
 997 409 l 1
 1393 1445 l 2
 1399 1462 1408 1475 1420 1483 c 0
 1432 1491 1447 1495 1464 1495 c 2
 1641 1494 l 1
 1726 136 l 1
 1862 136 l 1
EndSplineSet
EndChar

StartChar: N
Encoding: 78 78 64
Width: 1624
Flags: MW
HStem: 1 137<140 276 140 376 140 276> 1358 137<1368 1368 1368 1504>
VStem: 276 162<138 1237> 1204 163
LayerCount: 2
Fore
SplineSet
1368 1358 m 1
 1366 2 l 1
 1231 2 l 2
 1214 2 1199 6 1186 13 c 0
 1173 20 1163 30 1155 43 c 2
 438 1237 l 1
 438 65 l 2
 438 44 433 28 423 17 c 0
 413 6 397 1 376 1 c 2
 140 1 l 1
 140 138 l 1
 276 138 l 1
 276 1498 l 1
 411 1498 l 1
 426 1497 440 1493 454 1486 c 0
 468 1479 479 1469 487 1455 c 2
 1204 259 l 1
 1204 1433 l 2
 1204 1454 1209 1470 1219 1480 c 0
 1229 1490 1245 1495 1266 1495 c 2
 1504 1495 l 1
 1504 1358 l 1
 1368 1358 l 1
EndSplineSet
EndChar

StartChar: O
Encoding: 79 79 65
Width: 1633
Flags: MW
HStem: 0 141<733 900.5 733 923> 1385 142<733 900.5>
VStem: 51 156<681.5 860.5 681.5 879.5> 1428 155<681.5 860.5>
LayerCount: 2
Fore
SplineSet
51 772 m 0
 51 987 125 1167 274 1311 c 0
 423 1455 604 1527 817 1527 c 0
 1029 1527 1210 1455 1359 1311 c 0
 1508 1167 1583 987 1583 772 c 0
 1583 553 1508 370 1359 222 c 0
 1210 74 1029 0 817 0 c 0
 604 0 423 74 274 222 c 0
 125 370 51 553 51 772 c 0
207 772 m 0
 207 591 267 441 386 321 c 0
 505 201 649 141 817 141 c 0
 984 141 1128 201 1248 321 c 0
 1368 441 1428 591 1428 772 c 0
 1428 949 1368 1095 1248 1211 c 0
 1128 1327 984 1385 817 1385 c 0
 649 1385 505 1327 386 1211 c 0
 267 1095 207 949 207 772 c 0
EndSplineSet
EndChar

StartChar: P
Encoding: 80 80 66
Width: 1312
Flags: MW
HStem: 572 135<409 720 411 719> 1359 137<111 247 111 720 720 773.5>
VStem: 247 164<707 1359 1359 1359> 1040 159<990.5 1105.5>
LayerCount: 2
Fore
SplineSet
409 572 m 1
 410 1 l 1
 247 1 l 1
 247 1359 l 1
 111 1359 l 1
 111 1496 l 1
 720 1496 l 2
 877 1496 996 1459 1077 1385 c 0
 1158 1311 1199 1197 1199 1044 c 0
 1199 891 1159 774 1079 693 c 0
 999 612 879 572 719 572 c 2
 409 572 l 1
720 1359 m 2
 411 1360 l 1
 411 707 l 1
 720 707 l 2
 827 707 907 735 960 791 c 0
 1013 847 1040 933 1040 1048 c 0
 1040 1163 1013 1244 960 1290 c 0
 907 1336 827 1359 720 1359 c 2
EndSplineSet
EndChar

StartChar: Q
Encoding: 81 81 67
Width: 1678
Flags: MW
HStem: -34 141<761 845 761 889.5> 1382 139<761 928.5>
VStem: 77 158<663.5 842.5 663.5 861.5> 1456 154<754 842.5>
LayerCount: 2
Fore
SplineSet
1610 754 m 1
 1611 753 l 1
 1611 658 1595 567 1564 481 c 0
 1533 395 1490 318 1436 250 c 1
 1610 77 l 1
 1499 -34 l 1
 1327 139 l 1
 1262 85 1188 43 1105 12 c 0
 1022 -19 935 -34 844 -34 c 0
 631 -34 450 43 301 196 c 0
 152 349 77 535 77 754 c 0
 77 969 152 1151 301 1299 c 0
 450 1447 631 1521 844 1521 c 0
 1056 1521 1237 1447 1386 1299 c 0
 1535 1151 1610 969 1610 754 c 1
845 107 m 1
 846 108 l 1
 917 108 985 120 1050 144 c 0
 1115 168 1173 202 1224 245 c 1
 1004 465 l 1
 1115 576 l 1
 1331 359 l 1
 1370 413 1401 474 1423 541 c 0
 1445 608 1456 679 1456 754 c 0
 1456 931 1396 1080 1276 1201 c 0
 1156 1322 1012 1382 845 1382 c 0
 677 1382 533 1322 414 1201 c 0
 295 1080 235 931 235 754 c 0
 235 573 295 420 414 295 c 0
 533 170 677 107 845 107 c 1
EndSplineSet
EndChar

StartChar: R
Encoding: 82 82 68
Width: 1409
Flags: MW
HStem: 1 137<1122 1337 1201 1337 1201 1338> 616 131<620 639.5> 1358 141<400 400 400 696>
VStem: 238 162<747 1358 747 1362 747 1362> 1016 161<1001.5 1106>
LayerCount: 2
Fore
SplineSet
400 1358 m 1
 400 747 l 1
 696 747 l 2
 803 747 883 772 936 822 c 0
 989 872 1016 949 1016 1053 c 0
 1016 1159 989 1236 936 1285 c 0
 883 1334 803 1358 696 1358 c 2
 400 1358 l 1
620 616 m 2
 402 620 l 1
 402 4 l 1
 238 4 l 1
 238 1362 l 1
 102 1362 l 1
 102 1499 l 1
 698 1499 l 2
 855 1499 974 1461 1055 1385 c 0
 1136 1309 1177 1199 1177 1056 c 0
 1177 947 1152 858 1102 788 c 0
 1052 718 989 670 912 645 c 1
 945 630 971 609 990 583 c 0
 1009 557 1026 526 1041 490 c 1
 1201 138 l 1
 1337 138 l 1
 1338 1 l 1
 1131 1 l 2
 1113 1 1098 5 1086 13 c 0
 1074 21 1064 33 1057 48 c 2
 879 468 l 2
 866 499 852 524 838 543 c 0
 824 562 807 577 788 588 c 0
 769 599 746 606 719 610 c 0
 692 614 659 616 620 616 c 2
EndSplineSet
EndChar

StartChar: S
Encoding: 83 83 69
Width: 1185
Flags: MW
HStem: -31 140<537 578.5> 1392 133<569.5 599.5>
VStem: 129 164<1138.5 1170 1138.5 1170.5> 948 149<352.5 376.5>
LayerCount: 2
Fore
SplineSet
1068 1164 m 1
 934 1160 l 1
 933 1188 930 1217 924 1247 c 0
 918 1277 901 1303 872 1324 c 1
 844 1337 825 1346 814 1351 c 0
 803 1356 785 1362 760 1369 c 1
 730 1376 700 1382 670 1386 c 0
 640 1390 612 1392 587 1392 c 0
 540 1392 498 1386 461 1373 c 0
 424 1360 392 1343 366 1321 c 0
 340 1298 321 1273 310 1247 c 0
 299 1221 293 1189 293 1151 c 0
 293 1126 297 1102 305 1080 c 0
 313 1058 322 1038 333 1021 c 0
 344 1004 358 987 374 971 c 0
 390 955 407 940 425 927 c 0
 442 914 461 901 483 889 c 0
 505 877 527 866 550 856 c 0
 573 846 597 836 621 826 c 0
 645 816 669 806 693 796 c 0
 716 786 739 775 762 764 c 0
 785 753 808 741 831 729 c 0
 854 717 878 704 903 690 c 0
 928 676 950 661 968 645 c 0
 985 629 1003 611 1021 592 c 0
 1039 573 1054 552 1065 529 c 0
 1076 507 1084 482 1089 455 c 0
 1094 428 1097 399 1097 368 c 0
 1097 337 1093 307 1084 279 c 0
 1075 251 1065 225 1054 200 c 0
 1043 176 1024 153 998 132 c 0
 972 111 949 92 929 75 c 0
 908 58 886 43 862 30 c 0
 838 17 812 6 784 -3 c 0
 755 -12 719 -19 676 -24 c 0
 633 -29 595 -31 562 -31 c 0
 494 -31 434 -21 382 -1 c 0
 330 19 283 47 242 82 c 0
 200 118 166 156 139 196 c 0
 112 236 88 280 67 329 c 1
 205 407 l 1
 221 364 241 326 265 292 c 0
 289 258 316 227 345 200 c 0
 373 173 405 151 440 134 c 0
 475 117 515 109 559 109 c 0
 608 109 656 115 703 126 c 0
 750 137 789 152 820 171 c 0
 851 190 880 216 907 248 c 0
 934 280 948 318 948 361 c 0
 948 392 941 422 928 451 c 0
 915 480 899 504 881 523 c 0
 862 542 836 559 802 575 c 0
 768 591 737 606 710 621 c 0
 682 636 652 650 620 664 c 0
 588 678 556 691 523 704 c 0
 490 717 457 732 425 748 c 0
 393 764 363 782 336 801 c 0
 308 820 281 841 256 864 c 0
 231 887 209 913 191 941 c 0
 172 969 157 1001 146 1037 c 0
 135 1073 129 1113 129 1156 c 0
 129 1185 132 1213 138 1239 c 0
 144 1265 153 1290 165 1313 c 0
 176 1336 190 1357 206 1376 c 0
 222 1395 240 1413 261 1429 c 0
 281 1444 303 1458 327 1470 c 0
 351 1482 377 1492 405 1501 c 0
 432 1509 461 1515 491 1519 c 0
 521 1523 553 1525 586 1525 c 0
 618 1525 653 1523 690 1520 c 0
 727 1517 763 1511 798 1503 c 0
 825 1496 861 1485 905 1469 c 0
 949 1453 984 1432 1009 1407 c 1
 1047 1373 1066 1324 1067 1260 c 0
 1068 1196 1068 1164 1068 1164 c 1
EndSplineSet
EndChar

StartChar: T
Encoding: 84 84 70
Width: 1143
Flags: MW
HStem: 1358 136<175 488 175 175 654 968 654 654>
VStem: 39 136<1222 1358 1222 1432 1222 1432> 488 166<0 1358 0 1358> 968 136<1222 1358 1358 1358>
LayerCount: 2
Fore
SplineSet
39 1432 m 1
 38 1432 l 1
 38 1453 43 1469 54 1479 c 0
 65 1489 81 1494 102 1494 c 2
 1040 1494 l 2
 1061 1494 1077 1489 1088 1479 c 0
 1099 1469 1104 1453 1104 1432 c 2
 1104 1222 l 1
 968 1222 l 1
 968 1358 l 1
 654 1358 l 1
 654 0 l 1
 488 0 l 1
 488 1358 l 1
 175 1358 l 1
 175 1222 l 1
 39 1222 l 1
 39 1432 l 1
EndSplineSet
EndChar

StartChar: U
Encoding: 85 85 71
Width: 1494
Flags: MW
HStem: 0 146<705 784.5> 1358 137<77 213 77 309 1279 1415 1279 1279>
VStem: 213 164<574 581 581 1358 1358 1358> 1116 163<581 1358>
LayerCount: 2
Fore
SplineSet
1279 1358 m 1
 1279 575 l 2
 1279 468 1266 378 1241 305 c 0
 1216 232 1180 173 1133 128 c 0
 1086 83 1030 50 964 30 c 0
 898 10 825 0 744 0 c 0
 666 0 595 10 530 29 c 0
 465 48 409 80 362 125 c 0
 315 170 278 229 252 302 c 0
 226 375 213 466 213 574 c 2
 213 1358 l 1
 77 1358 l 1
 77 1495 l 1
 309 1495 l 2
 332 1495 349 1490 360 1480 c 0
 371 1470 377 1454 377 1433 c 2
 377 581 l 2
 377 431 408 321 469 251 c 0
 530 181 622 146 744 146 c 0
 868 146 961 181 1023 251 c 0
 1085 321 1116 431 1116 581 c 2
 1116 1433 l 2
 1116 1454 1122 1470 1133 1480 c 0
 1144 1490 1161 1495 1183 1495 c 2
 1415 1495 l 1
 1415 1358 l 1
 1279 1358 l 1
EndSplineSet
EndChar

StartChar: V
Encoding: 86 86 72
Width: 1436
Flags: MW
HStem: 0 166<714 722 714 823 610 722> 1358 137<38 174 38 252 1260 1396 1260 1260>
VStem: 38 1358<1358 1495 1358 1495>
LayerCount: 2
Fore
SplineSet
1115 1442 m 1
 1113 1442 l 1
 1118 1460 1127 1473 1139 1482 c 0
 1151 1491 1166 1495 1184 1495 c 2
 1396 1495 l 1
 1396 1358 l 1
 1260 1358 l 1
 823 0 l 1
 610 0 l 1
 174 1358 l 1
 38 1358 l 1
 38 1495 l 1
 252 1495 l 2
 270 1495 285 1491 297 1482 c 0
 309 1473 318 1460 323 1442 c 2
 714 166 l 1
 722 166 l 1
 1115 1442 l 1
EndSplineSet
EndChar

StartChar: W
Encoding: 87 87 73
Width: 2005
Flags: MW
HStem: 0 178<572 583 572 676 471 583 1422 1430> 1358 137<36 172 36 250 999 999 1827 1963 1827 1827>
VStem: 36 1927<1358 1495 1358 1495>
LayerCount: 2
Fore
SplineSet
1682 1442 m 1
 1679 1442 l 1
 1683 1460 1691 1473 1703 1482 c 0
 1715 1491 1731 1495 1751 1495 c 2
 1963 1495 l 1
 1963 1358 l 1
 1827 1358 l 1
 1528 0 l 1
 1323 0 l 1
 999 1358 l 1
 676 0 l 1
 471 0 l 1
 172 1358 l 1
 36 1358 l 1
 36 1495 l 1
 250 1495 l 2
 269 1495 285 1491 297 1482 c 0
 309 1473 317 1460 321 1442 c 2
 572 178 l 1
 583 178 l 1
 890 1442 l 2
 894 1460 902 1473 914 1482 c 0
 926 1491 941 1495 960 1495 c 2
 1042 1495 l 2
 1061 1495 1077 1491 1089 1482 c 0
 1101 1473 1109 1460 1113 1442 c 2
 1422 178 l 1
 1430 178 l 1
 1682 1442 l 1
EndSplineSet
EndChar

StartChar: X
Encoding: 88 88 74
Width: 1378
Flags: MW
HStem: 1359 137<87 223 87 291 1155 1294 1155 1155>
VStem: 87 1207<1359 1496 1359 1496>
LayerCount: 2
Fore
SplineSet
1026 1452 m 1
 1027 1452 l 1
 1036 1467 1047 1478 1059 1485 c 0
 1071 1492 1085 1496 1100 1496 c 2
 1294 1496 l 1
 1294 1359 l 1
 1155 1359 l 1
 786 775 l 1
 1271 1 l 1
 1092 1 l 1
 696 641 l 1
 303 1 l 1
 114 1 l 1
 592 777 l 1
 223 1359 l 1
 87 1359 l 1
 87 1496 l 1
 291 1496 l 2
 307 1496 321 1492 334 1485 c 0
 347 1478 358 1467 367 1452 c 2
 698 915 l 1
 1026 1452 l 1
EndSplineSet
EndChar

StartChar: Y
Encoding: 89 89 75
Width: 1339
Flags: MW
HStem: 1358 137<37 173 37 249 1164 1164 1164 1300>
VStem: 37 1263<1358 1495 1358 1495> 595 167.5
LayerCount: 2
Fore
SplineSet
763 537 m 1xa0
 762 0 l 1
 595 0 l 1
 595 530 l 1xa0
 173 1358 l 1
 37 1358 l 1
 37 1495 l 1
 249 1495 l 2
 268 1495 284 1491 297 1483 c 0
 310 1475 319 1463 325 1447 c 1
 678 710 l 1
 1012 1447 l 2
 1019 1463 1029 1475 1042 1483 c 0
 1055 1491 1071 1495 1090 1495 c 2
 1300 1495 l 1
 1300 1358 l 1xc0
 1164 1358 l 1
 763 537 l 1xa0
EndSplineSet
EndChar

StartChar: Z
Encoding: 90 90 76
Width: 1113
Flags: MW
HStem: 1 135<272 919 272 991> 1359 136<234 861 234 234>
VStem: 98 136<1223 1359 1223 1433 1223 1443.5> 919 134<136 272 272 272>
LayerCount: 2
Fore
SplineSet
919 272 m 1
 1053 274 l 1
 1053 65 l 2
 1053 44 1048 28 1038 17 c 0
 1028 6 1012 1 991 1 c 2
 73 1 l 1
 73 110 l 1
 861 1359 l 1
 234 1359 l 1
 234 1223 l 1
 98 1223 l 1
 98 1433 l 2
 98 1454 103 1470 114 1480 c 0
 125 1490 141 1495 162 1495 c 2
 1045 1495 l 1
 1045 1379 l 1
 272 136 l 1
 919 136 l 1
 919 272 l 1
EndSplineSet
EndChar

StartChar: bracketleft
Encoding: 91 91 77
Width: 623
Flags: MW
HStem: -259 149<328 575 328 575> 1610 149<328 575 328 328>
VStem: 173 155<-110 1610 -110 1759 -110 1759>
LayerCount: 2
Fore
SplineSet
575 1759 m 1
 575 1610 l 1
 328 1610 l 1
 328 -110 l 1
 575 -110 l 1
 575 -259 l 1
 173 -259 l 1
 173 1759 l 1
 575 1759 l 1
EndSplineSet
EndChar

StartChar: backslash
Encoding: 92 92 78
Width: 743
Flags: MW
HStem: -171 1758<45 698 45 537>
VStem: 45 653
LayerCount: 2
Fore
SplineSet
207 1587 m 1
 698 -171 l 1
 537 -171 l 1
 45 1587 l 1
 207 1587 l 1
EndSplineSet
EndChar

StartChar: bracketright
Encoding: 93 93 79
Width: 624
Flags: MW
HStem: -259 149<48 296 48 450 48 296> 1610 149<48 296 48 450>
VStem: 296 154<-110 1610 1610 1610>
LayerCount: 2
Fore
SplineSet
296 -110 m 1
 296 1610 l 1
 48 1610 l 1
 48 1759 l 1
 450 1759 l 1
 450 -259 l 1
 48 -259 l 1
 48 -110 l 1
 296 -110 l 1
EndSplineSet
EndChar

StartChar: asciicircum
Encoding: 94 94 80
Width: 1196
Flags: MW
HStem: 647 619<201 691 201 691 504 996 504 840>
VStem: 201 795<647 647>
LayerCount: 2
Fore
SplineSet
691 1266 m 1
 996 647 l 1
 840 647 l 1
 598 1149 l 1
 356 647 l 1
 201 647 l 1
 504 1266 l 1
 691 1266 l 1
EndSplineSet
EndChar

StartChar: underscore
Encoding: 95 95 81
Width: 1174
Flags: MW
HStem: -127 127<135 1036 135 1036>
VStem: 135 901<-127 0 -127 0>
LayerCount: 2
Fore
SplineSet
1036 0 m 1
 1036 -127 l 1
 135 -127 l 1
 135 0 l 1
 1036 0 l 1
EndSplineSet
EndChar

StartChar: grave
Encoding: 96 96 82
Width: 643
Flags: MW
HStem: 1322 254<126 513 126 366>
VStem: 126 387<1322 1576>
LayerCount: 2
Fore
SplineSet
513 1322 m 1
 366 1322 l 1
 126 1576 l 1
 327 1576 l 1
 513 1322 l 1
EndSplineSet
EndChar

StartChar: a
Encoding: 97 97 83
Width: 1179
Flags: W
HStem: -16 130<279.377 643.577> 0 130<1008.98 1158> 555 130<332.306 845> 985 130<333.448 774.724>
VStem: 76 130<187.609 440.488> 168 137<824 954.925> 847 130<348.359 555 685 918.676>
LayerCount: 2
Fore
SplineSet
840 475 m 1xba
 846 555 l 1
 713 555 l 2
 554 555 433 560 351 521 c 0
 269 482 206 402 206 331 c 0
 206 268 223 219 258 177 c 0
 293 135 381 114 476 114 c 0
 592 114 679.71 162.801 745 254 c 0
 808 342 838 421 840 475 c 1xba
1071 130 m 2x76
 1158 130 l 1
 1158 0 l 1
 1019 0 l 2x76
 986 0 959 4 937 14 c 0
 915 24 896 37 880 56 c 0
 863 75 855 94 852 112 c 0
 849 130 847 158 847 196 c 1
 847 196 813 158 750 82 c 0
 687 6 593 -16 468 -16 c 0
 369 -16 279 2 198 50 c 0
 117 98 76 183 76 325 c 0xba
 76 461 120 553 227 608 c 0
 334 663 506 688 725 685 c 1
 845 685 l 1
 846 721 842 779 833 857 c 0
 824 935 730 986 579 985 c 0
 494 984 427 979 378 967 c 0
 329 955 305 917 305 876 c 2
 305 824 l 1
 168 824 l 1
 168 916 l 2
 168 946 180 1003 227 1048 c 0
 274 1093 383 1107 549 1115 c 1
 620 1115 687 1112 750 1095 c 0
 813 1078 860 1053 891 1019 c 0
 922 985 944 940 957 903 c 0
 970 866 977 813 977 744 c 2
 977 244 l 2
 977 211 987 180 1008 160 c 0
 1029 140 1050 130 1071 130 c 2x76
EndSplineSet
EndChar

StartChar: b
Encoding: 98 98 84
Width: 1320
Flags: W
HStem: -1 136<508.212 923.09> 980 131<553.343 895.053> 1358 137<50 177>
VStem: 50 277<1358 1494.75> 177 150<-1 129 279.846 788.602 927 1358> 1090 149<307.529 777.006>
LayerCount: 2
Fore
SplineSet
721 1111 m 1xec
 721 1110 l 1
 876 1110 1001 1061 1096 963 c 0
 1191 865 1239 723 1239 538 c 0
 1239 367 1192 233 1099 137 c 0
 1006 41 881 -7 724 -7 c 0
 657 -7 588 4 516 26 c 0
 444 48 381 82 326 129 c 1
 326 -1 l 1
 179 -1 l 1
 179 421 l 1
 178 430 177 440 177 450 c 0
 177 460 177 470 177 479 c 2
 177 1358 l 1xec
 50 1358 l 1
 50 1495 l 1
 274 1495 l 2
 303 1495 319 1488 322 1473 c 0
 325 1458 327 1441 327 1421 c 2xf4
 327 927 l 1
 380 988 441 1034 509 1065 c 0
 577 1096 648 1111 721 1111 c 1xec
716 135 m 2
 717 135 l 2
 830 135 919 163 983 219 c 0
 1047 275 1083 377 1090 525 c 1
 1090 678 1058 790 994 860 c 0
 930 930 835 980 709 980 c 1
 644 981 564 950 468 886 c 0
 372 822 324 730 325 642 c 1
 325 470 l 2
 325 341 367 253 452 206 c 0
 537 159 625 135 716 135 c 2
EndSplineSet
EndChar

StartChar: c
Encoding: 99 99 85
Width: 1193
Flags: MW
HStem: -20 150<652 692.5 652 703.5> 978 142<660.5 716.5>
VStem: 110 163<520.5 586 520.5 598.5>
LayerCount: 2
Fore
SplineSet
281 141 m 1
 276 148 l 1
 221 201 180 262 152 330 c 0
 124 398 110 474 110 557 c 0
 110 640 124 716 152 784 c 0
 180 852 221 912 276 964 c 0
 331 1016 392 1055 460 1081 c 0
 528 1107 602 1120 682 1120 c 0
 751 1120 812 1113 865 1098 c 0
 918 1083 963 1061 1000 1032 c 1
 1036 1002 1064 979 1083 963 c 0
 1102 947 1112 939 1112 939 c 1
 1025 820 l 1
 1025 820 1018 826 1004 838 c 0
 990 850 968 869 937 895 c 0
 907 920 872 940 832 955 c 0
 792 970 744 978 689 978 c 0
 632 978 578 968 528 948 c 0
 478 928 432 899 390 861 c 0
 348 822 318 777 300 727 c 0
 282 677 273 619 273 553 c 0
 273 488 282 431 300 383 c 0
 318 335 347 291 388 250 c 0
 429 210 474 180 522 160 c 0
 570 140 623 130 681 130 c 0
 704 130 729 132 755 137 c 0
 781 142 809 149 838 159 c 1
 868 168 893 180 913 195 c 0
 933 210 948 229 959 252 c 2
 981 303 l 1
 1103 247 l 1
 1091 211 l 1
 1074 168 1050 131 1020 101 c 0
 990 71 953 47 910 30 c 0
 867 13 827 0 790 -8 c 0
 753 -16 719 -20 688 -20 c 0
 608 -20 534 -6 466 21 c 0
 398 48 336 88 281 141 c 1
EndSplineSet
EndChar

StartChar: d
Encoding: 100 100 86
Width: 1335
Flags: MW
HStem: -13 135<574.5 663 574.5 665.5> -4 136<1126.5 1314 1209 1314 1209 1314> 982 131<630 639.5 521.5 656> 1356 134<842 1060 842 965>
VStem: 77 149 965 156<881 881 1037 1356 1356 1356>
LayerCount: 2
Fore
SplineSet
966 883 m 1x7c
 965 881 l 1x7c
 924 904 871 927 806 949 c 0
 741 971 682 982 630 982 c 0
 519 983 424 947 345 874 c 0
 266 801 226 683 226 520 c 0
 226 385 265 285 342 220 c 0
 419 155 516 122 633 122 c 0
 693 122 753 145 813 192 c 0xbc
 873 239 923 293 964 355 c 1
 966 883 l 1x7c
842 1356 m 1
 842 1490 l 1
 1060 1490 l 2
 1083 1490 1099 1485 1108 1475 c 0
 1117 1465 1121 1449 1121 1427 c 2
 1121 244 l 2
 1121 207 1128 179 1143 160 c 0
 1158 141 1180 132 1209 132 c 2
 1314 132 l 1
 1314 -4 l 1
 1156 -4 l 2
 1097 -4 1055 10 1029 37 c 0x7c
 1003 64 987 108 981 169 c 1
 936 108 883 62 823 32 c 0
 763 2 699 -13 632 -13 c 0xbc
 449 -13 311 35 218 130 c 0
 125 225 78 358 77 529 c 0
 76 682 119 818 206 936 c 0
 293 1054 429 1113 614 1113 c 0
 665 1113 724 1107 791 1094 c 0
 858 1081 916 1062 965 1037 c 1
 965 1356 l 1
 842 1356 l 1
EndSplineSet
EndChar

StartChar: e
Encoding: 101 101 87
Width: 1190
Flags: MW
HStem: -30 139 501 132<238 975 238 1123 228 975> 994 134<585.5 637>
VStem: 58 180 975 147<633 695>
LayerCount: 2
Fore
SplineSet
1122 616 m 1
 1123 501 l 1
 228 501 l 1
 235 433 244 383 255 351 c 0
 266 319 286 284 315 247 c 0
 346 208 394 175 460 148 c 0
 526 121 589 108 649 109 c 0
 706 110 767 125 833 153 c 0
 899 181 954 207 998 231 c 1
 1060 94 l 1
 991 61 919 32 844 7 c 0
 769 -18 705 -30 651 -30 c 0
 547 -30 454 -13 373 21 c 0
 292 55 231 98 191 151 c 0
 148 208 115 271 93 340 c 0
 71 409 59 479 58 550 c 1
 63 723 115 863 214 969 c 0
 313 1075 453 1128 634 1128 c 0
 781 1128 899 1084 988 995 c 0
 1077 906 1122 780 1122 616 c 1
635 993 m 1
 637 994 l 1
 534 994 444 962 368 899 c 0
 292 836 249 747 238 633 c 1
 975 633 l 1
 975 757 944 848 882 906 c 0
 820 964 738 993 635 993 c 1
EndSplineSet
EndChar

StartChar: f
Encoding: 102 102 88
Width: 816
Flags: MW
HStem: 948 136<446 703 446 703> 1358 137<623.5 739 664 739 664 739>
VStem: 280.5 166
LayerCount: 2
Fore
SplineSet
446 948 m 1
 447 1 l 1
 281 1 l 1
 280 949 l 1
 79 949 l 1
 79 1085 l 1
 280 1085 l 1
 287 1228 319 1332 376 1397 c 0
 433 1462 529 1495 664 1495 c 2
 739 1495 l 1
 739 1358 l 1
 660 1358 l 2
 587 1358 535 1338 503 1299 c 0
 471 1260 452 1188 446 1084 c 1
 703 1084 l 1
 703 948 l 1
 446 948 l 1
EndSplineSet
EndChar

StartChar: g
Encoding: 103 103 89
Width: 1268
Flags: MW
HStem: -476 142 0 146<583 583> 949 136<1132.5 1142 1142 1212> 972 142
VStem: 65 155<498 621 498 634.5> 956 256<974 1050 1050 1055> 962 136<-160 142 142 142>
LayerCount: 2
Fore
SplineSet
951 494 m 1xea
 950 495 l 1xea
 951 594 948 666 942 710 c 0
 936 754 923 794 902 829 c 1
 881 867 841 901 782 930 c 0
 723 959 657 973 584 972 c 0xda
 476 971 388 931 321 852 c 0
 254 773 220 677 220 565 c 0
 220 431 257 328 331 257 c 0
 405 186 489 149 582 146 c 0
 653 143 732 165 819 212 c 0
 906 259 950 353 951 494 c 1xea
877 -426 m 1
 879 -425 l 1xea
 828 -443 763 -458 685 -469 c 0
 607 -480 519 -478 422 -463 c 0
 385 -457 338 -445 281 -427 c 0
 224 -409 182 -395 155 -384 c 1
 207 -245 l 1
 220 -249 255 -261 312 -281 c 0
 369 -301 413 -314 444 -320 c 0
 519 -334 584 -338 639 -331 c 0
 694 -324 740 -315 777 -303 c 1
 819 -287 858 -267 893 -243 c 0
 928 -219 951 -191 962 -160 c 1
 962 142 l 1
 953 135 941 126 927 114 c 0
 913 102 901 93 890 86 c 0
 859 66 814 47 754 28 c 0
 694 9 637 0 583 0 c 0
 472 0 358 46 241 138 c 0
 124 230 65 372 65 563 c 0
 65 706 111 834 203 946 c 0
 295 1058 423 1114 588 1114 c 0
 658 1114 728 1099 797 1070 c 0xda
 866 1041 919 1009 956 974 c 1
 956 1050 l 2
 956 1060 960 1068 968 1075 c 0
 976 1082 986 1085 998 1085 c 2xea
 1212 1085 l 1
 1212 949 l 1
 1142 949 l 2xec
 1123 949 1111 942 1106 929 c 0
 1101 916 1098 900 1098 881 c 2
 1098 -211 l 1
 1095 -224 1091 -236 1086 -248 c 0
 1081 -260 1075 -272 1068 -283 c 0
 1049 -314 1024 -341 994 -365 c 0
 964 -389 925 -409 877 -426 c 1
EndSplineSet
EndChar

StartChar: h
Encoding: 104 104 90
Width: 1363
Flags: MW
HStem: 0 136<1141 1308 1203 1308 1203 1308> 974 142<719.5 763.5> 1359 137<65 208 65 275>
VStem: 208 155<1 799 967 1359 1359 1359> 959 156<234 243 243 756>
LayerCount: 2
Fore
SplineSet
1141 0 m 1
 1141 2 l 1
 1080 2 1034 21 1004 60 c 0
 974 99 959 157 959 234 c 2
 959 769 l 2
 959 855 939 911 899 936 c 0
 859 961 801 974 726 974 c 0
 662 974 601 958 543 925 c 0
 485 892 425 850 363 799 c 1
 363 1 l 1
 208 1 l 1
 208 1359 l 1
 65 1359 l 1
 65 1496 l 1
 275 1496 l 2
 296 1496 316 1491 335 1481 c 0
 354 1471 363 1456 363 1435 c 2
 363 967 l 1
 434 1024 499 1063 558 1084 c 0
 617 1105 683 1116 756 1116 c 0
 875 1116 965 1087 1025 1029 c 0
 1085 971 1115 880 1115 756 c 2
 1115 243 l 2
 1115 206 1122 179 1137 162 c 0
 1152 145 1174 136 1203 136 c 2
 1308 136 l 1
 1308 0 l 1
 1141 0 l 1
EndSplineSet
EndChar

StartChar: i
Encoding: 105 105 91
Width: 632
Flags: MW
HStem: 1 136<359.5 577 473 577 473 577> 948 136<100 223 100 318> 1287 208<284.5 312.5>
VStem: 194 208<1374.5 1402.5> 223 159<218.5 237 237 948 948 948>
LayerCount: 2
Fore
SplineSet
402 1388 m 0xf0
 402 1361 392 1337 372 1317 c 0
 352 1297 327 1287 298 1287 c 0
 271 1287 247 1297 226 1317 c 0
 205 1337 194 1361 194 1388 c 0
 194 1417 205 1442 226 1463 c 0
 247 1484 271 1495 298 1495 c 0
 327 1495 352 1484 372 1463 c 0
 392 1442 402 1417 402 1388 c 0xf0
318 1084 m 1
 317 1084 l 2xf0
 338 1084 354 1078 365 1067 c 0
 376 1056 382 1040 382 1019 c 2
 382 237 l 2
 382 200 390 174 405 159 c 0
 420 144 443 137 473 137 c 2
 577 137 l 1
 577 1 l 1
 390 1 l 2
 329 1 286 18 261 51 c 0
 236 84 223 139 223 216 c 2
 223 948 l 1
 100 948 l 1
 100 1084 l 1xc8
 318 1084 l 1
EndSplineSet
EndChar

StartChar: j
Encoding: 106 106 92
Width: 621
Flags: MW
HStem: -447 137<-44 118 -44 118> 948 136<157 315 157 398> 1287 208<358.5 386.5>
VStem: -44 520 315 144<-59 948 948 948>
LayerCount: 2
Fore
SplineSet
476 1388 m 0xf0
 476 1361 466 1337 446 1317 c 0
 426 1297 401 1287 372 1287 c 0
 345 1287 321 1297 300 1317 c 0
 279 1337 268 1361 268 1388 c 0
 268 1417 279 1442 300 1463 c 0
 321 1484 345 1495 372 1495 c 0
 401 1495 426 1484 446 1463 c 0
 466 1442 476 1417 476 1388 c 0xf0
398 1084 m 1
 397 1083 l 1xf0
 418 1083 434 1077 444 1066 c 0
 454 1055 459 1039 459 1018 c 2
 459 -64 l 2
 459 -145 456 -210 451 -259 c 0
 446 -308 428 -350 397 -385 c 1xc8
 360 -414 323 -432 286 -438 c 0
 249 -444 193 -447 118 -447 c 2
 -44 -447 l 1
 -44 -310 l 1xd0
 118 -310 l 2
 163 -310 198 -308 222 -304 c 0
 246 -300 267 -286 284 -263 c 0
 301 -240 310 -215 312 -187 c 0
 314 -159 315 -116 315 -59 c 2
 315 948 l 1
 157 948 l 1
 157 1084 l 1xc8
 398 1084 l 1
EndSplineSet
EndChar

StartChar: k
Encoding: 107 107 93
Width: 1183
Flags: MW
HStem: 0 136<993 1149 1058 1149 1058 1149> 481 152<422 527 422 532> 1358 137<117 260 117 358>
VStem: 260 162<0 481 0 633 633 1358 1358 1358>
LayerCount: 2
Fore
SplineSet
665 548 m 1
 960 188 l 1
 975 167 991 153 1007 147 c 0
 1023 141 1040 137 1058 136 c 1
 1149 136 l 1
 1149 0 l 1
 1011 0 l 2
 975 0 942 10 912 29 c 0
 882 48 857 72 838 101 c 1
 527 481 l 1
 422 481 l 1
 422 0 l 1
 260 0 l 1
 260 1358 l 1
 117 1358 l 1
 117 1495 l 1
 358 1495 l 2
 379 1495 395 1490 406 1479 c 0
 417 1468 422 1452 422 1431 c 2
 422 633 l 1
 532 633 l 1
 961 1084 l 1
 1144 1084 l 1
 665 548 l 1
EndSplineSet
EndChar

StartChar: l
Encoding: 108 108 94
Width: 599
Flags: MW
HStem: 0 136<347.5 538 433 538 433 538> 1358 137<66 189 66 285>
VStem: 189 156<232 246 246 1358 1358 1358>
LayerCount: 2
Fore
SplineSet
285 1495 m 1
 284 1494 l 1
 305 1494 320 1489 330 1478 c 0
 340 1467 345 1451 345 1430 c 2
 345 246 l 2
 345 209 352 181 367 163 c 0
 382 145 404 136 433 136 c 2
 538 136 l 1
 538 0 l 1
 380 0 l 2
 315 0 267 19 236 58 c 0
 205 97 189 155 189 232 c 2
 189 1358 l 1
 66 1358 l 1
 66 1495 l 1
 285 1495 l 1
EndSplineSet
EndChar

StartChar: m
Encoding: 109 109 95
Width: 2089
Flags: MW
HStem: -5 138<1812.5 2003 1898 2003 1898 2003> 945 136<114 257 114 331> 971 140<696.5 753.5> 974 137<1381.5 1431.5>
VStem: 257 162<-3 802 -3 945 -3 945> 952 163<0 0 0 746 746 789> 1648 162<218.5 237 237 745>
CounterMasks: 1 0e
LayerCount: 2
Fore
SplineSet
1115 0 m 1xce
 952 -1 l 1
 952 746 l 2
 952 832 931 891 890 923 c 0
 849 955 791 971 716 971 c 0
 659 971 606 952 557 915 c 0xae
 508 878 462 840 419 802 c 1
 419 -3 l 1
 257 -3 l 1
 257 945 l 1
 114 945 l 1
 114 1081 l 1
 331 1081 l 2
 352 1081 369 1076 382 1066 c 0
 395 1056 401 1041 401 1020 c 2xce
 401 960 l 1
 433 993 478 1026 537 1060 c 0
 596 1094 661 1111 732 1111 c 0
 804 1111 867 1098 922 1072 c 0xae
 977 1046 1016 1006 1040 953 c 1
 1105 1006 1168 1046 1229 1072 c 0
 1290 1098 1351 1111 1412 1111 c 0
 1537 1111 1635 1081 1705 1021 c 0
 1775 961 1810 869 1810 745 c 2
 1810 237 l 2
 1810 200 1817 173 1832 157 c 0
 1847 141 1869 133 1898 133 c 2
 2003 133 l 1
 2003 -5 l 1
 1845 -5 l 2
 1780 -5 1731 10 1698 40 c 0
 1665 70 1648 124 1648 201 c 2
 1648 745 l 2
 1648 831 1624 891 1577 924 c 0
 1530 957 1469 974 1394 974 c 0
 1339 974 1284 955 1229 918 c 0x9e
 1174 881 1136 844 1115 807 c 1
 1115 0 l 1xce
EndSplineSet
EndChar

StartChar: n
Encoding: 110 110 96
Width: 1376
Flags: MW
HStem: 0 136<1160.5 1331 1245 1331 1245 1331 1192 1331> 947 136<75 219 75 292> 976 137<691 752.5>
VStem: 219 161<-1 804 -1 947 -1 947> 996 161<232 248 248 747>
LayerCount: 2
Fore
SplineSet
1192 0 m 1xd8
 1193 0 l 2xd8
 1128 0 1079 19 1046 58 c 0
 1013 97 996 155 996 232 c 2
 996 747 l 2
 996 833 968 893 912 926 c 0
 856 959 790 976 715 976 c 0
 651 976 588 956 526 915 c 0xb8
 464 874 415 837 380 804 c 1
 380 -1 l 1
 219 -1 l 1
 219 947 l 1
 75 947 l 1
 75 1083 l 1
 292 1083 l 2
 313 1083 329 1078 340 1068 c 0
 351 1058 357 1043 357 1022 c 2xd8
 357 962 l 1
 430 1019 492 1058 543 1080 c 0
 594 1102 655 1113 727 1113 c 0
 846 1113 947 1083 1031 1023 c 0xb8
 1115 963 1157 871 1157 747 c 2
 1157 248 l 2
 1157 211 1164 183 1179 164 c 0
 1194 145 1216 136 1245 136 c 2
 1331 136 l 1
 1331 0 l 1
 1192 0 l 1xd8
EndSplineSet
EndChar

StartChar: o
Encoding: 111 111 97
Width: 1291
Flags: MW
HStem: -19 143<616 674 616 724> 972 143<615 673>
VStem: 78 143<518.5 577 518.5 625> 1067 147<516.5 575>
LayerCount: 2
Fore
SplineSet
646 1115 m 0
 802 1115 936 1059 1047 948 c 0
 1158 837 1214 703 1214 547 c 0
 1214 392 1158 259 1047 148 c 0
 936 37 802 -19 646 -19 c 0
 490 -19 356 37 245 148 c 0
 134 259 78 392 78 547 c 0
 78 703 134 837 245 948 c 0
 356 1059 490 1115 646 1115 c 0
943 252 m 1
 942 250 l 1
 985 293 1017 338 1037 386 c 0
 1057 434 1067 487 1067 546 c 0
 1067 604 1057 658 1037 707 c 0
 1017 756 985 802 942 845 c 0
 899 888 853 920 804 941 c 0
 755 962 702 972 644 972 c 0
 586 972 532 961 483 940 c 0
 434 919 388 887 345 844 c 0
 302 801 271 755 251 707 c 0
 231 659 221 606 221 548 c 0
 221 489 231 436 251 388 c 0
 271 340 303 295 346 252 c 0
 389 209 435 177 484 156 c 0
 533 135 587 124 645 124 c 0
 703 124 756 135 805 156 c 0
 854 177 900 209 943 252 c 1
EndSplineSet
EndChar

StartChar: p
Encoding: 112 112 98
Width: 1419
Flags: MW
HStem: -1 150<745 823 742 857.5> 948 135<80 294 81 224> 973 141<733.5 838.5>
VStem: 224 162<-490 92 -490 948> 1156 158<572 572>
LayerCount: 2
Fore
SplineSet
387 253 m 1xd8
 429 230 490 207 570 184 c 0
 650 161 716 149 768 149 c 0
 878 149 970 180 1044 242 c 0
 1118 304 1155 414 1156 572 c 1
 1155 713 1124 815 1064 878 c 0
 1004 941 906 973 771 973 c 0
 696 973 625 949 558 901 c 0xb8
 491 853 434 797 387 734 c 1
 387 253 l 1xd8
80 948 m 1
 81 1083 l 1
 294 1083 l 2
 315 1083 332 1079 344 1071 c 0
 356 1063 362 1041 362 1006 c 2xd8
 362 913 l 1
 416 979 478 1029 547 1063 c 0
 616 1097 692 1114 775 1114 c 0xb8
 966 1114 1104 1064 1188 964 c 0
 1272 864 1314 733 1314 572 c 0
 1314 410 1267 274 1174 164 c 0
 1081 54 946 -1 769 -1 c 0
 721 -1 658 8 580 26 c 0
 502 44 437 66 386 92 c 1
 386 -490 l 1
 224 -490 l 1
 224 948 l 1
 80 948 l 1
EndSplineSet
EndChar

StartChar: q
Encoding: 113 113 99
Width: 1321
Flags: MW
HStem: -481 140<1166.5 1341> -6 141 969 147
VStem: 75 161 990 157<-238 -234 -234 150 150 150>
LayerCount: 2
Fore
SplineSet
1341 -477 m 1
 1183 -481 l 2
 1150 -481 1121 -476 1097 -465 c 0
 1073 -454 1053 -438 1038 -417 c 0
 1022 -396 1010 -370 1002 -340 c 0
 994 -310 990 -276 990 -238 c 2
 990 150 l 1
 965 122 936 99 903 81 c 0
 870 63 835 46 798 31 c 1
 747 12 678 0 591 -6 c 0
 504 -12 421 7 342 52 c 0
 293 79 245 123 198 183 c 0
 151 243 118 301 100 357 c 0
 91 382 85 410 81 441 c 0
 77 472 75 506 75 543 c 0
 75 625 86 700 109 769 c 0
 132 838 166 899 211 953 c 0
 255 1007 311 1048 378 1075 c 0
 445 1102 523 1116 612 1116 c 0
 654 1116 695 1113 734 1107 c 0
 773 1101 810 1091 845 1078 c 0
 879 1065 910 1047 938 1024 c 0
 966 1001 990 973 1010 940 c 1
 1010 1084 l 1
 1147 1084 l 1
 1147 -234 l 2
 1147 -252 1149 -268 1153 -282 c 0
 1157 -296 1163 -307 1170 -315 c 0
 1177 -324 1186 -331 1197 -335 c 0
 1208 -339 1221 -341 1236 -341 c 2
 1341 -341 l 1
 1341 -477 l 1
796 181 m 1
 798 183 l 1
 834 197 868 217 900 244 c 0
 932 271 963 304 992 343 c 1
 992 671 l 2
 992 717 982 759 962 796 c 0
 942 833 913 866 874 895 c 0
 822 933 740 958 628 969 c 0
 516 980 422 945 346 865 c 0
 313 831 283 766 256 671 c 0
 229 576 229 484 256 395 c 0
 268 356 289 314 319 269 c 0
 349 224 386 192 429 173 c 0
 508 138 580 127 644 140 c 0
 708 153 759 167 796 181 c 1
EndSplineSet
EndChar

StartChar: r
Encoding: 114 114 100
Width: 932
Flags: MW
HStem: 947 136<115 259 115 322>
VStem: 259 152<-1 455 -1 947>
LayerCount: 2
Fore
SplineSet
561 1002 m 1
 565 998 l 1
 596 1017 640 1035 697 1052 c 0
 754 1069 809 1079 862 1082 c 1
 909 1082 l 1
 909 946 l 1
 886 946 l 1
 824 949 760 934 694 901 c 0
 628 868 576 830 539 788 c 0
 502 745 471 697 447 643 c 0
 423 589 411 526 411 455 c 2
 411 -1 l 1
 259 -1 l 1
 259 947 l 1
 115 947 l 1
 115 1083 l 1
 322 1083 l 2
 343 1083 359 1078 370 1068 c 0
 381 1058 386 1042 386 1021 c 2
 386 805 l 1
 403 852 429 892 464 925 c 0
 499 958 531 984 561 1002 c 1
EndSplineSet
EndChar

StartChar: s
Encoding: 115 115 101
Width: 963
Flags: W
HStem: -16 130<333.722 691.117> 985 130<321.677 680.847>
VStem: 728 139<831 878.758>
LayerCount: 2
Fore
SplineSet
622 410 m 1
 622 410 689 372 704 357 c 0
 737 324 752 300 750 261 c 0
 748 222 729 189 689 156 c 0
 667 139 638 127 605 122 c 0
 572 117 536 114 496 114 c 0
 460 114 427 118 397 128 c 0
 367 138 340 152 317 172 c 0
 293 193 272 216 254 247 c 0
 236 278 221 305 210 346 c 1
 68 300 l 1
 81 252 102 215 126 171 c 0
 150 127 179 96 216 67 c 0
 253 38 296 21 345 6 c 0
 394 -9 449 -16 509 -16 c 0
 569 -16 620 -9 661 5 c 0
 702 19 741 40 778 68 c 0
 814 96 843 124 862 154 c 0
 881 184 890 218 891 268 c 0
 892 327 877 366 846 408 c 0
 815 450 776 485 730 513 c 1
 546 596 l 1
 546 596 398 662 368 676 c 0
 338 690 294 711 274 732 c 0
 241 765 239 802 245 836 c 0
 251 870 275 903 316 936 c 0
 337 953 364 965 397 973 c 0
 430 981 467 985 507 985 c 0
 543 985 578 980 612 971 c 0
 646 962 675 947 699 927 c 1
 718 900 727 884 727 879 c 0
 727 874 727 858 728 831 c 1
 867 831 l 1
 864 884 859 923 853 948 c 0
 847 973 826 1000 789 1029 c 0
 752 1058 708 1080 657 1094 c 0
 606 1108 550 1115 490 1115 c 0
 430 1115 376 1108 328 1094 c 0
 280 1080 238 1059 202 1031 c 0
 141 985 106 927 96 858 c 0
 86 789 101 728 140 676 c 0
 167 639 218 600 246 584 c 0
 274 568 468 482 468 482 c 1
 622 410 l 1
EndSplineSet
EndChar

StartChar: t
Encoding: 116 116 102
Width: 698
Flags: MW
HStem: -1 140<391 618 485 618 485 618> 947 136<54 232 394 617>
VStem: 233 161<236 249 249 947>
LayerCount: 2
Fore
SplineSet
233 948 m 1
 54 947 l 1
 54 1083 l 1
 232 1083 l 1
 232 1497 l 1
 394 1497 l 1
 394 1083 l 1
 617 1083 l 1
 617 947 l 1
 394 947 l 1
 394 249 l 2
 394 212 402 184 417 166 c 0
 432 148 455 139 485 139 c 2
 618 139 l 1
 618 -1 l 1
 424 -1 l 2
 358 -1 310 18 279 56 c 0
 248 94 233 154 233 236 c 2
 233 948 l 1
EndSplineSet
EndChar

StartChar: u
Encoding: 117 117 103
Width: 1448
Flags: MW
HStem: -30 156 1 136<1225 1380 1309 1380 1309 1380> 949 136<93 241 93 337>
VStem: 241 168<338 360 360 949 949 949> 1052 163<586 1084 1084 1084>
LayerCount: 2
Fore
SplineSet
1052 1084 m 1xb8
 1215 1085 l 1
 1215 249 l 2
 1215 230 1217 214 1221 200 c 0
 1225 186 1231 174 1238 165 c 0
 1246 156 1256 149 1268 144 c 0
 1280 139 1294 137 1309 137 c 2
 1380 137 l 1
 1380 1 l 1
 1254 1 l 2
 1196 1 1153 13 1125 36 c 0x78
 1097 59 1083 94 1083 141 c 2
 1083 232 l 1
 1072 161 1048 111 1011 83 c 0
 974 55 941 33 912 18 c 0
 881 2 843 -10 798 -18 c 0
 753 -26 714 -30 681 -30 c 0
 615 -30 565 -24 531 -13 c 0
 497 -2 455 18 406 47 c 0
 356 76 316 116 286 167 c 0
 256 218 241 275 241 338 c 2
 241 949 l 1
 93 949 l 1
 93 1085 l 1
 337 1085 l 2
 348 1085 358 1084 367 1082 c 0
 376 1080 384 1076 390 1071 c 0
 396 1066 401 1059 404 1051 c 0
 407 1043 409 1034 409 1023 c 2
 409 360 l 2
 409 309 416 268 430 237 c 0
 444 206 467 182 499 165 c 0
 531 148 558 135 580 126 c 0
 602 117 635 112 679 111 c 0
 714 110 753 115 797 126 c 0
 841 137 884 157 925 185 c 0
 967 213 999 269 1020 352 c 0
 1041 435 1052 513 1052 586 c 2
 1052 1084 l 1xb8
EndSplineSet
EndChar

StartChar: v
Encoding: 118 118 104
Width: 1195
Flags: MW
HStem: 948 136<40 137 40 201 1058 1157 1058 1058>
VStem: 40 1117<948 1084 948 1084>
LayerCount: 2
Fore
SplineSet
996 1084 m 2
 1157 1084 l 1
 1157 948 l 1
 1058 948 l 1
 709 0 l 1
 530 0 l 1
 137 948 l 1
 40 948 l 1
 40 1084 l 1
 201 1084 l 2
 210 1084 219 1083 227 1081 c 0
 235 1079 242 1076 248 1071 c 0
 254 1067 259 1062 264 1055 c 0
 269 1048 273 1040 276 1031 c 2
 617 172 l 1
 920 1031 l 2
 923 1040 927 1048 931 1055 c 0
 935 1062 941 1067 948 1071 c 1
 954 1076 961 1079 969 1081 c 0
 977 1083 986 1084 996 1084 c 2
EndSplineSet
EndChar

StartChar: w
Encoding: 119 119 105
Width: 1679
Flags: MW
HStem: 0 1083<425 914 425 914 765 1254 765 1074> 948 136<39 137 39 201 1540 1640 1540 1540>
VStem: 39 1601<948 1084 948 1084>
LayerCount: 2
Fore
SplineSet
1479 1084 m 2x60
 1640 1084 l 1
 1640 948 l 1
 1540 948 l 1x60
 1254 0 l 1
 1074 0 l 1
 838 892 l 1
 607 0 l 1
 425 0 l 1xa0
 137 948 l 1
 39 948 l 1
 39 1084 l 1
 201 1084 l 2
 210 1084 219 1083 227 1081 c 0
 235 1079 242 1076 249 1072 c 1
 255 1067 260 1061 265 1054 c 0
 270 1047 274 1039 277 1030 c 2x60
 523 171 l 1
 765 1083 l 1
 914 1083 l 1xa0
 1156 171 l 1
 1403 1030 l 2
 1406 1039 1410 1047 1414 1054 c 0
 1418 1061 1424 1067 1431 1072 c 0
 1437 1076 1444 1079 1452 1081 c 0
 1460 1083 1469 1084 1479 1084 c 2x60
EndSplineSet
EndChar

StartChar: x
Encoding: 120 120 106
Width: 1126
Flags: MW
HStem: 945 136<40 140 40 185> 948 136<978 1078 978 978>
VStem: 40 1038<948 1081 1081 1081> 40 1048<-3 1081>
LayerCount: 2
Fore
SplineSet
660 551 m 1x50
 1088 -3 l 1
 909 -3 l 1
 566 421 l 1
 250 -3 l 1
 61 -3 l 1
 471 548 l 1
 140 945 l 1
 40 945 l 1
 40 1081 l 1
 185 1081 l 2
 193 1081 201 1080 209 1078 c 0
 217 1076 224 1073 231 1069 c 0
 237 1066 243 1062 249 1057 c 0
 255 1052 260 1046 265 1039 c 2xa0
 568 665 l 1
 853 1039 l 2
 858 1046 863 1052 868 1058 c 0
 873 1064 879 1069 886 1072 c 1
 892 1076 899 1079 907 1081 c 0
 915 1083 923 1084 932 1084 c 2
 1078 1084 l 1
 1078 948 l 1
 978 948 l 1x60
 660 551 l 1x50
EndSplineSet
EndChar

StartChar: y
Encoding: 121 121 107
Width: 1219
Flags: MW
HStem: -501 133<315.5 321 305 334.5> 948 136<39 139 39 202>
VStem: 39 1140<948 1083 947 1084 947 1084>
LayerCount: 2
Fore
SplineSet
1017 1084 m 2
 1179 1083 l 1
 1179 947 l 1
 1079 947 l 1
 645 -221 l 2
 636 -248 626 -273 616 -295 c 0
 606 -317 596 -337 586 -354 c 0
 577 -371 567 -387 556 -401 c 0
 545 -415 533 -428 521 -439 c 0
 509 -450 496 -459 482 -467 c 0
 468 -475 454 -482 439 -487 c 0
 424 -492 406 -496 385 -498 c 0
 364 -500 344 -501 325 -501 c 0
 306 -501 283 -497 256 -489 c 0
 229 -481 206 -475 188 -470 c 0
 171 -465 149 -457 123 -446 c 0
 97 -435 76 -425 61 -416 c 1
 106 -298 l 1
 119 -305 136 -313 158 -322 c 0
 180 -331 197 -338 210 -342 c 0
 223 -345 240 -350 261 -357 c 0
 282 -364 299 -368 311 -368 c 0
 331 -368 352 -365 373 -360 c 0
 394 -355 412 -347 426 -336 c 0
 440 -325 453 -311 465 -295 c 0
 477 -279 486 -260 492 -239 c 2
 558 -20 l 1
 139 948 l 1
 39 948 l 1
 39 1084 l 1
 202 1084 l 2
 212 1084 221 1083 229 1081 c 0
 237 1079 244 1076 250 1072 c 0
 256 1068 261 1062 266 1055 c 0
 271 1048 275 1040 278 1031 c 2
 629 152 l 1
 941 1031 l 2
 944 1040 948 1048 953 1055 c 0
 958 1062 963 1068 969 1072 c 0
 975 1076 982 1079 990 1081 c 0
 998 1083 1007 1084 1017 1084 c 2
EndSplineSet
EndChar

StartChar: z
Encoding: 122 122 108
Width: 1167
Flags: MW
HStem: -1 137<325 904 325 978> 947 137<290 818 290 290>
VStem: 154 136<811 947 811 1020 811 1030.5> 904 135<136 272>
LayerCount: 2
Fore
SplineSet
904 272 m 1
 1039 272 l 1
 1039 63 l 2
 1039 42 1034 26 1024 15 c 0
 1014 4 999 -1 978 -1 c 2
 122 -1 l 1
 122 111 l 1
 818 947 l 1
 290 947 l 1
 290 811 l 1
 154 811 l 1
 154 1020 l 2
 154 1041 160 1057 171 1068 c 0
 182 1079 198 1084 219 1084 c 2
 1016 1084 l 1
 1016 970 l 1
 325 136 l 1
 904 136 l 1
 904 272 l 1
EndSplineSet
EndChar

StartChar: braceleft
Encoding: 123 123 109
Width: 715
Flags: MW
HStem: -143 139<614.5 657 614.5 657> 691 107<98 118> 1493 141<614.5 655 584.5 657>
VStem: 98 208<742 747 742 798 742 798> 231 170<1218 1253.5> 250 168<598 602.5 886.5 891>
LayerCount: 2
Fore
SplineSet
655 1495 m 1xe8
 657 1493 l 1
 572 1493 508 1471 465 1427 c 0
 422 1383 401 1307 401 1200 c 1xe8
 418 891 l 1
 418 850 408 816 387 790 c 0xe4
 366 764 339 750 306 747 c 1
 306 742 l 1xf0
 339 739 366 725 387 699 c 0xe4
 408 673 418 639 418 598 c 1
 401 289 l 1
 401 182 422 106 465 62 c 0
 508 18 572 -4 657 -4 c 1
 657 -143 l 1
 516 -143 410 -108 339 -39 c 0
 268 30 233 134 233 272 c 1
 250 584 l 1
 250 621 235 648 204 665 c 0xe8
 173 682 138 691 98 691 c 1
 98 798 l 1xf0
 138 798 173 807 204 824 c 0
 235 841 250 868 250 905 c 1
 249 916 248 928 247 941 c 0
 246 954 245 968 244 983 c 0
 243 1009 241 1042 239 1081 c 0
 237 1120 234 1166 231 1218 c 1
 231 1357 266 1461 337 1530 c 0
 408 1599 514 1634 655 1634 c 1
 655 1495 l 1xe8
EndSplineSet
EndChar

StartChar: bar
Encoding: 124 124 110
Width: 657
Flags: MW
HStem: -217 1804<244 414 244 414>
VStem: 244 170<-217 1587 -217 1587>
LayerCount: 2
Fore
SplineSet
414 1587 m 1
 414 -217 l 1
 244 -217 l 1
 244 1587 l 1
 414 1587 l 1
EndSplineSet
EndChar

StartChar: braceright
Encoding: 125 125 111
Width: 715
Flags: MW
HStem: -139 141<59 99.5 57 129.5> 696 107<596.5 616> 1499 139<57 99.5>
VStem: 313 170<241.5 276 207 295> 407 209<748 753 753 753>
LayerCount: 2
Fore
SplineSet
59 0 m 1xf0
 57 2 l 1
 142 2 206 24 249 68 c 0
 292 112 313 188 313 295 c 1
 297 604 l 1
 297 645 307 679 327 705 c 0xf0
 347 731 374 745 407 748 c 1
 407 753 l 1
 374 756 347 770 327 796 c 0xe8
 307 822 297 856 297 897 c 1
 313 1206 l 1
 313 1313 292 1389 249 1433 c 0
 206 1477 142 1499 57 1499 c 1
 57 1638 l 1
 198 1638 304 1603 375 1534 c 0
 446 1465 481 1361 481 1222 c 1
 465 910 l 1
 465 873 480 846 511 829 c 0xf0
 542 812 577 803 616 803 c 1
 616 696 l 1xe8
 577 696 542 687 511 670 c 0
 480 653 465 626 465 589 c 1
 466 578 467 566 468 553 c 0
 469 540 470 526 471 511 c 0
 472 485 474 452 476 413 c 0
 478 374 480 328 483 276 c 1
 483 138 448 34 377 -35 c 0
 306 -104 200 -139 59 -139 c 1
 59 0 l 1xf0
EndSplineSet
EndChar

StartChar: asciitilde
Encoding: 126 126 112
Width: 1196
Flags: MW
HStem: 551 103<752 800.5 752 808> 703 101<403.5 458.5>
VStem: 194 118<543 559.5 543 590.5> 893 113<794.5 811>
LayerCount: 2
Fore
SplineSet
195 543 m 1
 194 542 l 1
 194 639 215 707 257 746 c 0
 299 785 353 804 419 804 c 0
 526 804 601 779 644 729 c 0
 687 679 730 654 774 654 c 0
 827 654 860 672 873 708 c 0
 886 744 893 778 893 811 c 1
 1006 811 l 1
 1006 714 984 646 940 608 c 0
 896 570 841 551 775 551 c 0
 693 551 629 576 583 627 c 0
 537 678 486 703 431 703 c 0
 376 703 342 685 330 648 c 0
 318 611 312 576 312 543 c 1
 195 543 l 1
EndSplineSet
EndChar

StartChar: Adieresis
Encoding: 196 196 113
Width: 1317
Flags: MW
HStem: -2 137<-19 83 -19 145 -19 83> 457 127<393 898 393 939 352 898> 1339 154<640 651 640 640>
VStem: -19 569 346 960
LayerCount: 2
Fore
SplineSet
868 1688 m 1xf0
 868 1687 l 1xf0
 855 1687 842 1690 830 1695 c 0
 818 1700 807 1708 796 1718 c 0
 786 1728 778 1739 773 1751 c 0
 768 1763 765 1776 765 1789 c 0
 765 1816 775 1840 796 1861 c 0xe8
 817 1882 841 1892 868 1892 c 0
 895 1892 919 1882 940 1861 c 0
 961 1840 971 1816 971 1789 c 0
 971 1762 961 1738 940 1718 c 0
 919 1698 895 1688 868 1688 c 1xf0
449 1687 m 1
 449 1686 l 1xf0
 436 1686 423 1689 411 1694 c 0
 399 1699 388 1707 377 1717 c 0
 367 1727 359 1738 354 1750 c 0
 349 1762 346 1775 346 1788 c 0
 346 1815 356 1839 377 1860 c 0xe8
 398 1881 422 1891 449 1891 c 0
 476 1891 500 1881 520 1860 c 0
 540 1839 550 1815 550 1788 c 0
 550 1761 540 1737 520 1717 c 0
 500 1697 476 1687 449 1687 c 1
898 584 m 1
 651 1339 l 1
 640 1339 l 1
 393 584 l 1
 898 584 l 1
218 51 m 2
 212 34 203 21 191 12 c 0
 179 3 164 -2 145 -2 c 2
 -19 -2 l 1
 -19 135 l 1xf0
 83 135 l 1
 536 1493 l 1
 753 1493 l 1
 1208 134 l 1
 1306 134 l 1
 1306 -2 l 1xe8
 1146 -2 l 2
 1127 -2 1111 3 1099 12 c 0
 1087 21 1078 34 1072 51 c 2
 939 457 l 1
 352 457 l 1
 218 51 l 2
EndSplineSet
EndChar

StartChar: Aring
Encoding: 197 197 114
Width: 1317
Flags: MW
HStem: -5 137<-19 83 -19 145 -19 83> 454 127<393 898 393 939 352 898> 1336 154<640 651 640 640> 1590 87<659 674 657 694.5> 1932 97<635.5 668.5>
VStem: -19 905 429 877
LayerCount: 2
Fore
SplineSet
659 1590 m 1xfc
 659 1587 l 1xfc
 590 1587 534 1608 492 1650 c 0
 450 1692 429 1746 429 1811 c 0
 429 1876 449 1929 488 1969 c 0xfa
 527 2009 581 2029 650 2029 c 0
 721 2029 778 2008 821 1966 c 0
 864 1924 886 1870 886 1805 c 0
 886 1739 866 1687 826 1648 c 0
 786 1609 730 1590 659 1590 c 1xfc
657 1679 m 1
 657 1677 l 1xfc
 691 1677 717 1689 736 1712 c 0
 755 1735 764 1765 764 1802 c 0
 764 1839 754 1870 733 1895 c 0xfa
 712 1920 685 1932 652 1932 c 0
 619 1932 593 1920 575 1897 c 0
 557 1874 548 1844 548 1807 c 0
 548 1772 558 1742 578 1717 c 0
 598 1692 624 1679 657 1679 c 1
898 581 m 1
 651 1336 l 1
 640 1336 l 1
 393 581 l 1
 898 581 l 1
218 48 m 2
 212 31 203 18 191 9 c 0
 179 0 164 -5 145 -5 c 2
 -19 -5 l 1
 -19 132 l 1xfc
 83 132 l 1
 536 1490 l 1
 753 1490 l 1
 1208 131 l 1
 1306 131 l 1
 1306 -5 l 1xfa
 1146 -5 l 2
 1127 -5 1111 0 1099 9 c 0
 1087 18 1078 31 1072 48 c 2
 939 454 l 1
 352 454 l 1
 218 48 l 2
EndSplineSet
EndChar

StartChar: Ccedilla
Encoding: 199 199 115
Width: 1272
Flags: MW
HStem: -494 97<658 678.5 647.5 688.5> -37 140<780 872 709.5 884.5> 1377 140<705 831>
VStem: 43 154<662.5 842.5 662.5 859> 465 106<-312.5 -299 -312.5 -299> 767 100<-308.5 -279.5>
LayerCount: 2
Fore
SplineSet
658 -494 m 1
 661 -495 l 1
 600 -495 552 -477 517 -441 c 0
 482 -405 465 -358 465 -299 c 1
 571 -299 l 1
 571 -326 579 -349 594 -368 c 0
 609 -387 632 -397 663 -397 c 0
 694 -397 719 -387 738 -368 c 0
 757 -349 767 -324 767 -293 c 0
 767 -266 758 -244 740 -227 c 0
 722 -210 695 -197 658 -189 c 2
 558 -169 l 1
 594 -13 l 1
 429 31 296 124 195 265 c 0
 94 406 43 568 43 751 c 0
 43 967 114 1149 256 1296 c 0
 398 1443 574 1517 785 1517 c 0
 891 1517 1007 1492 1133 1443 c 0
 1259 1394 1336 1313 1364 1200 c 1
 1227 1162 l 1
 1196 1244 1137 1300 1049 1331 c 0
 961 1362 874 1377 788 1377 c 0
 622 1377 482 1318 368 1200 c 0
 254 1082 197 933 197 752 c 0
 197 573 254 420 368 293 c 0
 482 166 624 103 795 103 c 0
 949 103 1065 134 1143 196 c 0
 1221 258 1260 289 1260 289 c 1
 1372 207 l 1
 1372 207 1322 166 1221 85 c 0
 1120 4 977 -37 792 -37 c 0
 768 -37 744 -36 721 -34 c 0
 698 -32 675 -29 653 -25 c 1
 634 -117 l 1
 709 -129 767 -148 807 -174 c 0
 847 -200 867 -243 867 -303 c 0
 867 -362 847 -409 808 -443 c 0
 769 -477 719 -494 658 -494 c 1
EndSplineSet
EndChar

StartChar: Eacute
Encoding: 201 201 116
Width: 1284
Flags: MW
HStem: 0 138<398 957 398 1029> 691 137<398 980 398 980> 1359 136<398 957 398 398>
VStem: 235 163<138 691 828 1358 1358 1358> 880 213 957 115<1223 1359 1359 1359>
LayerCount: 2
Fore
SplineSet
880 1981 m 1xf8
 968 1853 l 1
 568 1597 l 1
 486 1723 l 1
 880 1981 l 1xf8
99 1358 m 1
 99 1495 l 1
 1011 1495 l 2
 1032 1495 1047 1490 1057 1480 c 0
 1067 1470 1072 1454 1072 1433 c 2
 1072 1223 l 1
 957 1223 l 1
 957 1359 l 1xf4
 398 1359 l 1
 398 828 l 1
 980 828 l 1
 980 691 l 1
 398 691 l 1
 398 138 l 1
 957 138 l 1
 957 273 l 1
 1093 273 l 1
 1093 64 l 2
 1093 43 1088 27 1077 16 c 0
 1066 5 1050 0 1029 0 c 2
 235 0 l 1
 235 1358 l 1
 99 1358 l 1
EndSplineSet
EndChar

StartChar: Ntilde
Encoding: 209 209 117
Width: 1624
Flags: MW
HStem: 0 137<138 274 138 374 138 274> 1357 137<1366 1366 1366 1502> 1706 137<959.5 964 950.5 987.5> 1780 135<680 683 656.5 694.5>
VStem: 138 910 274 162<137 1236> 1202 163
LayerCount: 2
Fore
SplineSet
1145 1903 m 1xea
 1143 1902 l 1
 1126 1837 1103 1788 1074 1755 c 0
 1045 1722 1009 1706 966 1706 c 0
 953 1706 932 1710 904 1718 c 0
 876 1726 847 1735 818 1745 c 0xea
 789 1754 762 1762 737 1769 c 0
 712 1776 697 1780 692 1780 c 0
 668 1780 648 1773 632 1758 c 0
 616 1743 604 1721 596 1692 c 1
 499 1721 l 1
 517 1786 541 1835 571 1867 c 0
 601 1899 636 1915 677 1915 c 0
 689 1915 709 1911 738 1904 c 0
 767 1897 796 1889 826 1880 c 0xda
 856 1870 883 1861 908 1854 c 0
 933 1847 948 1843 953 1843 c 0
 975 1843 994 1851 1010 1866 c 0
 1026 1881 1039 1904 1048 1934 c 1
 1145 1903 l 1xea
1366 1357 m 1xc6
 1364 1 l 1
 1229 1 l 2
 1212 1 1197 5 1184 12 c 0
 1171 19 1161 29 1153 42 c 2
 436 1236 l 1
 436 64 l 2
 436 43 431 27 421 16 c 0
 411 5 395 0 374 0 c 2xc6
 138 0 l 1
 138 137 l 1xca
 274 137 l 1
 274 1497 l 1
 409 1497 l 1
 424 1496 438 1492 452 1485 c 0
 466 1478 477 1468 485 1454 c 2
 1202 258 l 1
 1202 1432 l 2
 1202 1453 1207 1469 1217 1479 c 0
 1227 1489 1243 1494 1264 1494 c 2
 1502 1494 l 1
 1502 1357 l 1
 1366 1357 l 1xc6
EndSplineSet
EndChar

StartChar: Odieresis
Encoding: 214 214 118
Width: 1448
Flags: MW
HStem: -2 141<733 900.5 733 923> 1383 142<733 900.5>
VStem: 51 156<679.5 858.5 679.5 877.5> 413 204<1781.5 1801.5> 832 206<1782.5 1802.5> 1428 155<679.5 858.5>
LayerCount: 2
Fore
SplineSet
935 1688 m 1
 935 1687 l 1
 922 1687 909 1690 897 1695 c 0
 885 1700 874 1708 863 1718 c 0
 853 1728 845 1739 840 1751 c 0
 835 1763 832 1776 832 1789 c 0
 832 1816 842 1840 863 1861 c 0
 884 1882 908 1892 935 1892 c 0
 962 1892 986 1882 1007 1861 c 0
 1028 1840 1038 1816 1038 1789 c 0
 1038 1762 1028 1738 1007 1718 c 0
 986 1698 962 1688 935 1688 c 1
516 1687 m 1
 516 1686 l 1
 503 1686 490 1689 478 1694 c 0
 466 1699 455 1707 444 1717 c 0
 434 1727 426 1738 421 1750 c 0
 416 1762 413 1775 413 1788 c 0
 413 1815 423 1839 444 1860 c 0
 465 1881 489 1891 516 1891 c 0
 543 1891 567 1881 587 1860 c 0
 607 1839 617 1815 617 1788 c 0
 617 1761 607 1737 587 1717 c 0
 567 1697 543 1687 516 1687 c 1
51 770 m 0
 51 985 125 1165 274 1309 c 0
 423 1453 604 1525 817 1525 c 0
 1029 1525 1210 1453 1359 1309 c 0
 1508 1165 1583 985 1583 770 c 0
 1583 551 1508 368 1359 220 c 0
 1210 72 1029 -2 817 -2 c 0
 604 -2 423 72 274 220 c 0
 125 368 51 551 51 770 c 0
207 770 m 0
 207 589 267 439 386 319 c 0
 505 199 649 139 817 139 c 0
 984 139 1128 199 1248 319 c 0
 1368 439 1428 589 1428 770 c 0
 1428 947 1368 1093 1248 1209 c 0
 1128 1325 984 1383 817 1383 c 0
 649 1383 505 1325 386 1209 c 0
 267 1093 207 947 207 770 c 0
EndSplineSet
EndChar

StartChar: Udieresis
Encoding: 220 220 119
Width: 1536
Flags: MW
HStem: -2 146<705 784.5> 1356 137<77 213 77 309 1279 1415 1279 1279>
VStem: 213 164<572 579 579 1356 1356 1356> 456 204<1781.5 1801.5> 875 206<1782.5 1802.5> 1116 163<579 1356>
LayerCount: 2
Fore
SplineSet
978 1688 m 1
 978 1687 l 1
 965 1687 952 1690 940 1695 c 0
 928 1700 917 1708 906 1718 c 0
 896 1728 888 1739 883 1751 c 0
 878 1763 875 1776 875 1789 c 0
 875 1816 885 1840 906 1861 c 0
 927 1882 951 1892 978 1892 c 0
 1005 1892 1029 1882 1050 1861 c 0
 1071 1840 1081 1816 1081 1789 c 0
 1081 1762 1071 1738 1050 1718 c 0
 1029 1698 1005 1688 978 1688 c 1
559 1687 m 1
 559 1686 l 1
 546 1686 533 1689 521 1694 c 0
 509 1699 498 1707 487 1717 c 0
 477 1727 469 1738 464 1750 c 0
 459 1762 456 1775 456 1788 c 0
 456 1815 466 1839 487 1860 c 0
 508 1881 532 1891 559 1891 c 0
 586 1891 610 1881 630 1860 c 0
 650 1839 660 1815 660 1788 c 0
 660 1761 650 1737 630 1717 c 0
 610 1697 586 1687 559 1687 c 1
1279 1356 m 1
 1279 573 l 2
 1279 466 1266 376 1241 303 c 0
 1216 230 1180 171 1133 126 c 0
 1086 81 1030 48 964 28 c 0
 898 8 825 -2 744 -2 c 0
 666 -2 595 8 530 27 c 0
 465 46 409 78 362 123 c 0
 315 168 278 227 252 300 c 0
 226 373 213 464 213 572 c 2
 213 1356 l 1
 77 1356 l 1
 77 1493 l 1
 309 1493 l 2
 332 1493 349 1488 360 1478 c 0
 371 1468 377 1452 377 1431 c 2
 377 579 l 2
 377 429 408 319 469 249 c 0
 530 179 622 144 744 144 c 0
 868 144 961 179 1023 249 c 0
 1085 319 1116 429 1116 579 c 2
 1116 1431 l 2
 1116 1452 1122 1468 1133 1478 c 0
 1144 1488 1161 1493 1183 1493 c 2
 1415 1493 l 1
 1415 1356 l 1
 1279 1356 l 1
EndSplineSet
EndChar

StartChar: aacute
Encoding: 225 225 120
Width: 1253
Flags: MW
HStem: -32 142<428.5 530.5> -2 136<1002.5 1158 1071 1158 1071 1158> 555 134<633.5 831 725 831 725 832> 976 137
VStem: 76 152<299.5 366.5 299.5 393> 158 147<824 878 824 920 824 935> 829.5 147.5
LayerCount: 2
Fore
SplineSet
878 1657 m 1x76
 966 1529 l 1
 566 1273 l 1
 484 1399 l 1
 878 1657 l 1x76
827 479 m 1
 832 555 l 1
 713 555 l 2
 554 555 433 535 351 496 c 0
 269 457 228 402 228 331 c 0
 228 268 246 215 281 173 c 0
 316 131 381 110 476 110 c 0xba
 592 110 679 158 737 254 c 0
 795 350 825 425 827 479 c 1
1071 134 m 2x76
 1158 134 l 1
 1158 -2 l 1
 1019 -2 l 2
 986 -2 959 3 937 13 c 0
 915 23 896 37 880 56 c 0x76
 863 75 853 94 850 112 c 0
 847 130 845 158 845 196 c 1
 845 196 813 158 750 82 c 0
 687 6 593 -32 468 -32 c 0
 369 -32 279 -8 198 40 c 0
 117 88 76 183 76 325 c 0xba
 76 461 129 556 236 611 c 0
 343 666 506 692 725 689 c 1
 831 689 l 1
 832 725 828 782 819 860 c 0
 810 938 730 977 579 976 c 0
 494 975 427 969 378 957 c 0
 329 945 305 919 305 878 c 2
 305 824 l 1
 158 824 l 1
 158 920 l 2
 158 950 182 988 229 1033 c 0
 276 1078 383 1105 549 1113 c 1
 620 1113 687 1104 750 1087 c 0
 813 1070 860 1044 891 1010 c 0
 922 976 944 940 957 903 c 0
 970 866 977 813 977 744 c 2
 977 244 l 2
 977 211 987 184 1008 164 c 0
 1029 144 1050 134 1071 134 c 2x76
EndSplineSet
EndChar

StartChar: agrave
Encoding: 224 224 121
Width: 1253
Flags: MW
HStem: -32 142<428.5 530.5> -2 136<1002.5 1158 1071 1158 1071 1158> 555 134<633.5 831 725 831 725 832> 976 137 1322 254<375 762 375 615>
VStem: 76 152<299.5 366.5 299.5 393> 158 147<824 878 824 920 824 935> 829.5 147.5
LayerCount: 2
Fore
SplineSet
762 1322 m 1x7b
 615 1322 l 1
 375 1576 l 1
 576 1576 l 1
 762 1322 l 1x7b
827 479 m 1
 832 555 l 1
 713 555 l 2
 554 555 433 535 351 496 c 0
 269 457 228 402 228 331 c 0
 228 268 246 215 281 173 c 0
 316 131 381 110 476 110 c 0xbd
 592 110 679 158 737 254 c 0
 795 350 825 425 827 479 c 1
1071 134 m 2x7b
 1158 134 l 1
 1158 -2 l 1
 1019 -2 l 2
 986 -2 959 3 937 13 c 0
 915 23 896 37 880 56 c 0x7b
 863 75 853 94 850 112 c 0
 847 130 845 158 845 196 c 1
 845 196 813 158 750 82 c 0
 687 6 593 -32 468 -32 c 0
 369 -32 279 -8 198 40 c 0
 117 88 76 183 76 325 c 0xbd
 76 461 129 556 236 611 c 0
 343 666 506 692 725 689 c 1
 831 689 l 1
 832 725 828 782 819 860 c 0
 810 938 730 977 579 976 c 0
 494 975 427 969 378 957 c 0
 329 945 305 919 305 878 c 2
 305 824 l 1
 158 824 l 1
 158 920 l 2
 158 950 182 988 229 1033 c 0
 276 1078 383 1105 549 1113 c 1
 620 1113 687 1104 750 1087 c 0
 813 1070 860 1044 891 1010 c 0
 922 976 944 940 957 903 c 0
 970 866 977 813 977 744 c 2
 977 244 l 2
 977 211 987 184 1008 164 c 0
 1029 144 1050 134 1071 134 c 2x7b
EndSplineSet
EndChar

StartChar: acircumflex
Encoding: 226 226 122
Width: 1253
Flags: MW
HStem: -32 142<428.5 530.5> -2 136<1002.5 1158 1071 1158 1071 1158> 555 134<633.5 831 725 831 725 832> 976 137
VStem: 76 152<299.5 366.5 299.5 393> 158 147<824 878 824 920 824 935> 829.5 147.5
LayerCount: 2
Fore
SplineSet
683 1659 m 1x76
 935 1366 l 1
 869 1298 l 1
 640 1499 l 1
 412 1298 l 1
 347 1366 l 1
 597 1659 l 1
 683 1659 l 1x76
827 479 m 1
 832 555 l 1
 713 555 l 2
 554 555 433 535 351 496 c 0
 269 457 228 402 228 331 c 0
 228 268 246 215 281 173 c 0
 316 131 381 110 476 110 c 0xba
 592 110 679 158 737 254 c 0
 795 350 825 425 827 479 c 1
1071 134 m 2x76
 1158 134 l 1
 1158 -2 l 1
 1019 -2 l 2
 986 -2 959 3 937 13 c 0
 915 23 896 37 880 56 c 0x76
 863 75 853 94 850 112 c 0
 847 130 845 158 845 196 c 1
 845 196 813 158 750 82 c 0
 687 6 593 -32 468 -32 c 0
 369 -32 279 -8 198 40 c 0
 117 88 76 183 76 325 c 0xba
 76 461 129 556 236 611 c 0
 343 666 506 692 725 689 c 1
 831 689 l 1
 832 725 828 782 819 860 c 0
 810 938 730 977 579 976 c 0
 494 975 427 969 378 957 c 0
 329 945 305 919 305 878 c 2
 305 824 l 1
 158 824 l 1
 158 920 l 2
 158 950 182 988 229 1033 c 0
 276 1078 383 1105 549 1113 c 1
 620 1113 687 1104 750 1087 c 0
 813 1070 860 1044 891 1010 c 0
 922 976 944 940 957 903 c 0
 970 866 977 813 977 744 c 2
 977 244 l 2
 977 211 987 184 1008 164 c 0
 1029 144 1050 134 1071 134 c 2x76
EndSplineSet
EndChar

StartChar: adieresis
Encoding: 228 228 123
Width: 1253
Flags: MW
HStem: -34 142<428.5 530.5> -4 136<1002.5 1158 1071 1158 1071 1158> 553 134<633.5 831 725 831 725 832> 974 137
VStem: 76 152<297.5 364.5 297.5 391> 158 147<822 876 822 918 822 933> 329 204<1457.5 1477.5> 748 206<1458.5 1478.5> 829.5 147.5
LayerCount: 2
Fore
SplineSet
851 1364 m 1x7480
 851 1363 l 1x7480
 838 1363 825 1366 813 1371 c 0
 801 1376 790 1384 779 1394 c 0
 769 1404 761 1415 756 1427 c 0
 751 1439 748 1452 748 1465 c 0
 748 1492 758 1516 779 1537 c 0
 800 1558 824 1568 851 1568 c 0
 878 1568 902 1558 923 1537 c 0
 944 1516 954 1492 954 1465 c 0
 954 1438 944 1414 923 1394 c 0x75
 902 1374 878 1364 851 1364 c 1x7480
432 1363 m 1
 432 1362 l 1x7480
 419 1362 406 1365 394 1370 c 0
 382 1375 371 1383 360 1393 c 0
 350 1403 342 1414 337 1426 c 0
 332 1438 329 1451 329 1464 c 0
 329 1491 339 1515 360 1536 c 0
 381 1557 405 1567 432 1567 c 0
 459 1567 483 1557 503 1536 c 0
 523 1515 533 1491 533 1464 c 0
 533 1437 523 1413 503 1393 c 0x7680
 483 1373 459 1363 432 1363 c 1
827 477 m 1
 832 553 l 1
 713 553 l 2
 554 553 433 533 351 494 c 0
 269 455 228 400 228 329 c 0
 228 266 246 213 281 171 c 0
 316 129 381 108 476 108 c 0xb880
 592 108 679 156 737 252 c 0
 795 348 825 423 827 477 c 1
1071 132 m 2x7480
 1158 132 l 1
 1158 -4 l 1
 1019 -4 l 2
 986 -4 959 1 937 11 c 0
 915 21 896 35 880 54 c 0x7480
 863 73 853 92 850 110 c 0
 847 128 845 156 845 194 c 1
 845 194 813 156 750 80 c 0
 687 4 593 -34 468 -34 c 0
 369 -34 279 -10 198 38 c 0
 117 86 76 181 76 323 c 0xb880
 76 459 129 554 236 609 c 0
 343 664 506 690 725 687 c 1
 831 687 l 1
 832 723 828 780 819 858 c 0
 810 936 730 975 579 974 c 0
 494 973 427 967 378 955 c 0
 329 943 305 917 305 876 c 2
 305 822 l 1
 158 822 l 1
 158 918 l 2
 158 948 182 986 229 1031 c 0
 276 1076 383 1103 549 1111 c 1
 620 1111 687 1102 750 1085 c 0
 813 1068 860 1042 891 1008 c 0
 922 974 944 938 957 901 c 0
 970 864 977 811 977 742 c 2
 977 242 l 2
 977 209 987 182 1008 162 c 0
 1029 142 1050 132 1071 132 c 2x7480
EndSplineSet
EndChar

StartChar: atilde
Encoding: 227 227 124
Width: 1253
Flags: MW
HStem: -33 142<426.5 528.5> -3 136<1000.5 1156 1069 1156 1069 1156> 554 134<631.5 829 723 829 723 830> 975 137 1382 137<777.5 782 768.5 805.5> 1456 135<498 501 474.5 512.5>
VStem: 74 152<298.5 365.5 298.5 392> 156 147<823 877 823 919 823 934> 827.5 147.5
LayerCount: 2
Fore
SplineSet
963 1579 m 1x7980
 961 1578 l 1
 944 1513 921 1464 892 1431 c 0
 863 1398 827 1382 784 1382 c 0
 771 1382 750 1386 722 1394 c 0
 694 1402 665 1411 636 1421 c 0x7980
 607 1430 580 1438 555 1445 c 0
 530 1452 515 1456 510 1456 c 0
 486 1456 466 1449 450 1434 c 0
 434 1419 422 1397 414 1368 c 1
 317 1397 l 1
 335 1462 359 1511 389 1543 c 0
 419 1575 454 1591 495 1591 c 0
 507 1591 527 1587 556 1580 c 0
 585 1573 614 1565 644 1556 c 0x7580
 674 1546 701 1537 726 1530 c 0
 751 1523 766 1519 771 1519 c 0
 793 1519 812 1527 828 1542 c 0
 844 1557 857 1580 866 1610 c 1
 963 1579 l 1x7980
825 478 m 1
 830 554 l 1
 711 554 l 2
 552 554 431 534 349 495 c 0
 267 456 226 401 226 330 c 0
 226 267 244 214 279 172 c 0
 314 130 379 109 474 109 c 0xba80
 590 109 677 157 735 253 c 0
 793 349 823 424 825 478 c 1
1069 133 m 2x7980
 1156 133 l 1
 1156 -3 l 1
 1017 -3 l 2
 984 -3 957 2 935 12 c 0
 913 22 894 36 878 55 c 0x7980
 861 74 851 93 848 111 c 0
 845 129 843 157 843 195 c 1
 843 195 811 157 748 81 c 0
 685 5 591 -33 466 -33 c 0
 367 -33 277 -9 196 39 c 0
 115 87 74 182 74 324 c 0xba80
 74 460 127 555 234 610 c 0
 341 665 504 691 723 688 c 1
 829 688 l 1
 830 724 826 781 817 859 c 0
 808 937 728 976 577 975 c 0
 492 974 425 968 376 956 c 0
 327 944 303 918 303 877 c 2
 303 823 l 1
 156 823 l 1
 156 919 l 2
 156 949 180 987 227 1032 c 0
 274 1077 381 1104 547 1112 c 1
 618 1112 685 1103 748 1086 c 0
 811 1069 858 1043 889 1009 c 0
 920 975 942 939 955 902 c 0
 968 865 975 812 975 743 c 2
 975 243 l 2
 975 210 985 183 1006 163 c 0
 1027 143 1048 133 1069 133 c 2x7980
EndSplineSet
EndChar

StartChar: aring
Encoding: 229 229 125
Width: 1253
Flags: MW
HStem: -37 142<428.5 530.5> -7 136<1002.5 1158 1071 1158 1071 1158> 550 134<633.5 831 725 831 725 832> 971 137 1266 87<642 657 640 677.5> 1608 97<618.5 651.5>
VStem: 76 152<294.5 361.5 294.5 388> 158 147<819 873 819 915 819 930> 412 119<1465.5 1501.5 1465.5 1519.5> 747 122<1459.5 1496.5> 829.5 147.5
LayerCount: 2
Fore
SplineSet
642 1266 m 1x7da0
 642 1263 l 1x7da0
 573 1263 517 1284 475 1326 c 0
 433 1368 412 1422 412 1487 c 0
 412 1552 432 1605 471 1645 c 0
 510 1685 564 1705 633 1705 c 0
 704 1705 761 1684 804 1642 c 0
 847 1600 869 1546 869 1481 c 0
 869 1415 849 1363 809 1324 c 0x7dc0
 769 1285 713 1266 642 1266 c 1x7da0
640 1355 m 1
 640 1353 l 1x7da0
 674 1353 700 1365 719 1388 c 0
 738 1411 747 1441 747 1478 c 0
 747 1515 737 1546 716 1571 c 0x7dc0
 695 1596 668 1608 635 1608 c 0
 602 1608 576 1596 558 1573 c 0
 540 1550 531 1520 531 1483 c 0
 531 1448 541 1418 561 1393 c 0
 581 1368 607 1355 640 1355 c 1
827 474 m 1
 832 550 l 1
 713 550 l 2
 554 550 433 530 351 491 c 0
 269 452 228 397 228 326 c 0
 228 263 246 210 281 168 c 0
 316 126 381 105 476 105 c 0xbea0
 592 105 679 153 737 249 c 0
 795 345 825 420 827 474 c 1
1071 129 m 2x7da0
 1158 129 l 1
 1158 -7 l 1
 1019 -7 l 2
 986 -7 959 -2 937 8 c 0
 915 18 896 32 880 51 c 0x7da0
 863 70 853 89 850 107 c 0
 847 125 845 153 845 191 c 1
 845 191 813 153 750 77 c 0
 687 1 593 -37 468 -37 c 0
 369 -37 279 -13 198 35 c 0
 117 83 76 178 76 320 c 0xbea0
 76 456 129 551 236 606 c 0
 343 661 506 687 725 684 c 1
 831 684 l 1
 832 720 828 777 819 855 c 0
 810 933 730 972 579 971 c 0
 494 970 427 964 378 952 c 0
 329 940 305 914 305 873 c 2
 305 819 l 1
 158 819 l 1
 158 915 l 2
 158 945 182 983 229 1028 c 0
 276 1073 383 1100 549 1108 c 1
 620 1108 687 1099 750 1082 c 0
 813 1065 860 1039 891 1005 c 0
 922 971 944 935 957 898 c 0
 970 861 977 808 977 739 c 2
 977 239 l 2
 977 206 987 179 1008 159 c 0
 1029 139 1050 129 1071 129 c 2x7da0
EndSplineSet
EndChar

StartChar: ccedilla
Encoding: 231 231 126
Width: 1108
Flags: MW
HStem: -489 98<554.5 568> -21 150<678.5 693.5 653 704.5> 977 142<661.5 717.5>
VStem: 111 163<519.5 585 519.5 597.5> 372 106<-306.5 -293 -306.5 -293> 674 107<-302.5 -273.5>
LayerCount: 2
Fore
SplineSet
572 -494 m 1
 568 -489 l 1
 507 -489 459 -471 424 -435 c 0
 389 -399 372 -352 372 -293 c 1
 478 -293 l 1
 478 -320 486 -343 501 -362 c 0
 516 -381 539 -391 570 -391 c 0
 601 -391 626 -381 645 -362 c 0
 664 -343 674 -318 674 -287 c 0
 674 -260 665 -238 647 -221 c 0
 629 -204 602 -191 565 -183 c 2
 465 -163 l 1
 504 5 l 1
 522 5 l 1
 476 17 432 35 391 59 c 0
 350 83 312 112 277 147 c 0
 222 200 181 261 153 329 c 0
 125 397 111 473 111 556 c 0
 111 639 125 715 153 783 c 0
 181 851 222 911 277 963 c 0
 332 1015 393 1054 461 1080 c 0
 529 1106 603 1119 683 1119 c 0
 752 1119 813 1112 866 1097 c 0
 919 1082 964 1060 1001 1031 c 1
 1037 1001 1065 978 1084 962 c 0
 1103 946 1113 938 1113 938 c 1
 1026 819 l 1
 1026 819 1019 825 1005 837 c 0
 991 849 969 868 938 894 c 0
 908 919 873 939 833 954 c 0
 793 969 745 977 690 977 c 0
 633 977 579 967 529 947 c 0
 479 927 433 898 391 860 c 0
 349 821 319 776 301 726 c 0
 283 676 274 618 274 552 c 0
 274 487 283 430 301 382 c 0
 319 334 348 290 389 249 c 0
 430 209 475 179 523 159 c 0
 571 139 624 129 682 129 c 0
 705 129 730 131 756 136 c 0
 782 141 810 148 839 158 c 1
 869 167 894 179 914 194 c 0
 934 209 949 228 960 251 c 2
 982 302 l 1
 1104 246 l 1
 1092 210 l 1
 1075 167 1051 130 1021 100 c 0
 991 70 954 46 911 29 c 0
 868 12 828 -1 791 -9 c 0
 754 -17 720 -21 689 -21 c 0
 668 -21 648 -20 628 -18 c 0
 608 -16 589 -13 570 -10 c 1
 548 -117 l 1
 623 -129 681 -148 721 -174 c 0
 761 -200 781 -243 781 -303 c 0
 781 -362 761 -409 722 -443 c 0
 683 -477 633 -494 572 -494 c 1
EndSplineSet
EndChar

StartChar: eacute
Encoding: 233 233 127
Width: 1210
Flags: MW
HStem: -30 139 501 132<238 975 238 1123 228 975> 994 134<585.5 637>
VStem: 58 180 975 147<633 695>
LayerCount: 2
Fore
SplineSet
848 1657 m 1
 936 1529 l 1
 536 1273 l 1
 454 1399 l 1
 848 1657 l 1
1122 616 m 1
 1123 501 l 1
 228 501 l 1
 235 433 244 383 255 351 c 0
 266 319 286 284 315 247 c 0
 346 208 394 175 460 148 c 0
 526 121 589 108 649 109 c 0
 706 110 767 125 833 153 c 0
 899 181 954 207 998 231 c 1
 1060 94 l 1
 991 61 919 32 844 7 c 0
 769 -18 705 -30 651 -30 c 0
 547 -30 454 -13 373 21 c 0
 292 55 231 98 191 151 c 0
 148 208 115 271 93 340 c 0
 71 409 59 479 58 550 c 1
 63 723 115 863 214 969 c 0
 313 1075 453 1128 634 1128 c 0
 781 1128 899 1084 988 995 c 0
 1077 906 1122 780 1122 616 c 1
635 993 m 1
 637 994 l 1
 534 994 444 962 368 899 c 0
 292 836 249 747 238 633 c 1
 975 633 l 1
 975 757 944 848 882 906 c 0
 820 964 738 993 635 993 c 1
EndSplineSet
EndChar

StartChar: egrave
Encoding: 232 232 128
Width: 1210
Flags: MW
HStem: -30 139 501 132<238 975 238 1123 228 975> 994 134<585.5 637> 1322 254<345 732 345 585>
VStem: 58 180 975 147<633 695>
LayerCount: 2
Fore
SplineSet
732 1322 m 1
 585 1322 l 1
 345 1576 l 1
 546 1576 l 1
 732 1322 l 1
1122 616 m 1
 1123 501 l 1
 228 501 l 1
 235 433 244 383 255 351 c 0
 266 319 286 284 315 247 c 0
 346 208 394 175 460 148 c 0
 526 121 589 108 649 109 c 0
 706 110 767 125 833 153 c 0
 899 181 954 207 998 231 c 1
 1060 94 l 1
 991 61 919 32 844 7 c 0
 769 -18 705 -30 651 -30 c 0
 547 -30 454 -13 373 21 c 0
 292 55 231 98 191 151 c 0
 148 208 115 271 93 340 c 0
 71 409 59 479 58 550 c 1
 63 723 115 863 214 969 c 0
 313 1075 453 1128 634 1128 c 0
 781 1128 899 1084 988 995 c 0
 1077 906 1122 780 1122 616 c 1
635 993 m 1
 637 994 l 1
 534 994 444 962 368 899 c 0
 292 836 249 747 238 633 c 1
 975 633 l 1
 975 757 944 848 882 906 c 0
 820 964 738 993 635 993 c 1
EndSplineSet
EndChar

StartChar: ecircumflex
Encoding: 234 234 129
Width: 1210
Flags: MW
HStem: -30 139 501 132<238 975 238 1123 228 975> 994 134<585.5 637>
VStem: 58 180 975 147<633 695>
LayerCount: 2
Fore
SplineSet
653 1659 m 1
 905 1366 l 1
 839 1298 l 1
 610 1499 l 1
 382 1298 l 1
 317 1366 l 1
 567 1659 l 1
 653 1659 l 1
1122 616 m 1
 1123 501 l 1
 228 501 l 1
 235 433 244 383 255 351 c 0
 266 319 286 284 315 247 c 0
 346 208 394 175 460 148 c 0
 526 121 589 108 649 109 c 0
 706 110 767 125 833 153 c 0
 899 181 954 207 998 231 c 1
 1060 94 l 1
 991 61 919 32 844 7 c 0
 769 -18 705 -30 651 -30 c 0
 547 -30 454 -13 373 21 c 0
 292 55 231 98 191 151 c 0
 148 208 115 271 93 340 c 0
 71 409 59 479 58 550 c 1
 63 723 115 863 214 969 c 0
 313 1075 453 1128 634 1128 c 0
 781 1128 899 1084 988 995 c 0
 1077 906 1122 780 1122 616 c 1
635 993 m 1
 637 994 l 1
 534 994 444 962 368 899 c 0
 292 836 249 747 238 633 c 1
 975 633 l 1
 975 757 944 848 882 906 c 0
 820 964 738 993 635 993 c 1
EndSplineSet
EndChar

StartChar: edieresis
Encoding: 235 235 130
Width: 1210
Flags: MW
HStem: -32 139 499 132<238 975 238 1123 228 975> 992 134<585.5 637>
VStem: 58 180 298 204<1457.5 1477.5> 717 206<1458.5 1478.5> 975 147<631 693>
LayerCount: 2
Fore
SplineSet
820 1364 m 1
 820 1363 l 1
 807 1363 794 1366 782 1371 c 0
 770 1376 759 1384 748 1394 c 0
 738 1404 730 1415 725 1427 c 0
 720 1439 717 1452 717 1465 c 0
 717 1492 727 1516 748 1537 c 0
 769 1558 793 1568 820 1568 c 0
 847 1568 871 1558 892 1537 c 0
 913 1516 923 1492 923 1465 c 0
 923 1438 913 1414 892 1394 c 0
 871 1374 847 1364 820 1364 c 1
401 1363 m 1
 401 1362 l 1
 388 1362 375 1365 363 1370 c 0
 351 1375 340 1383 329 1393 c 0
 319 1403 311 1414 306 1426 c 0
 301 1438 298 1451 298 1464 c 0
 298 1491 308 1515 329 1536 c 0
 350 1557 374 1567 401 1567 c 0
 428 1567 452 1557 472 1536 c 0
 492 1515 502 1491 502 1464 c 0
 502 1437 492 1413 472 1393 c 0
 452 1373 428 1363 401 1363 c 1
1122 614 m 1
 1123 499 l 1
 228 499 l 1
 235 431 244 381 255 349 c 0
 266 317 286 282 315 245 c 0
 346 206 394 173 460 146 c 0
 526 119 589 106 649 107 c 0
 706 108 767 123 833 151 c 0
 899 179 954 205 998 229 c 1
 1060 92 l 1
 991 59 919 30 844 5 c 0
 769 -20 705 -32 651 -32 c 0
 547 -32 454 -15 373 19 c 0
 292 53 231 96 191 149 c 0
 148 206 115 269 93 338 c 0
 71 407 59 477 58 548 c 1
 63 721 115 861 214 967 c 0
 313 1073 453 1126 634 1126 c 0
 781 1126 899 1082 988 993 c 0
 1077 904 1122 778 1122 614 c 1
635 991 m 1
 637 992 l 1
 534 992 444 960 368 897 c 0
 292 834 249 745 238 631 c 1
 975 631 l 1
 975 755 944 846 882 904 c 0
 820 962 738 991 635 991 c 1
EndSplineSet
EndChar

StartChar: iacute
Encoding: 237 237 131
Width: 690
Flags: MW
HStem: -9 146<401.5 605 500 605 500 605> 1050 121
VStem: 250 159<231.5 250 250 1049 1049 1049>
LayerCount: 2
Fore
SplineSet
603 1657 m 1
 691 1529 l 1
 291 1273 l 1
 209 1399 l 1
 603 1657 l 1
348 1171 m 1
 347 1169 l 1
 368 1169 384 1164 394 1154 c 0
 404 1144 409 1128 409 1107 c 2
 409 250 l 2
 409 213 417 185 432 166 c 0
 447 147 470 137 500 137 c 2
 605 137 l 1
 605 -9 l 1
 432 -9 l 2
 371 -9 325 10 295 49 c 0
 265 88 250 146 250 223 c 2
 250 1049 l 1
 127 1051 l 1
 127 1171 l 1
 348 1171 l 1
EndSplineSet
EndChar

StartChar: igrave
Encoding: 236 236 132
Width: 690
Flags: MW
HStem: -9 146<401.5 605 500 605 500 605> 1050 121 1322 254<101 488 101 341>
VStem: 250 159<231.5 250 250 1049 1049 1049>
LayerCount: 2
Fore
SplineSet
488 1322 m 1
 341 1322 l 1
 101 1576 l 1
 302 1576 l 1
 488 1322 l 1
348 1171 m 1
 347 1169 l 1
 368 1169 384 1164 394 1154 c 0
 404 1144 409 1128 409 1107 c 2
 409 250 l 2
 409 213 417 185 432 166 c 0
 447 147 470 137 500 137 c 2
 605 137 l 1
 605 -9 l 1
 432 -9 l 2
 371 -9 325 10 295 49 c 0
 265 88 250 146 250 223 c 2
 250 1049 l 1
 127 1051 l 1
 127 1171 l 1
 348 1171 l 1
EndSplineSet
EndChar

StartChar: icircumflex
Encoding: 238 238 133
Width: 690
Flags: MW
HStem: -9 146<401.5 605 500 605 500 605> 1050 121
VStem: 250 159<231.5 250 250 1049 1049 1049>
LayerCount: 2
Fore
SplineSet
409 1659 m 1
 661 1366 l 1
 595 1298 l 1
 366 1499 l 1
 138 1298 l 1
 73 1366 l 1
 323 1659 l 1
 409 1659 l 1
348 1171 m 1
 347 1169 l 1
 368 1169 384 1164 394 1154 c 0
 404 1144 409 1128 409 1107 c 2
 409 250 l 2
 409 213 417 185 432 166 c 0
 447 147 470 137 500 137 c 2
 605 137 l 1
 605 -9 l 1
 432 -9 l 2
 371 -9 325 10 295 49 c 0
 265 88 250 146 250 223 c 2
 250 1049 l 1
 127 1051 l 1
 127 1171 l 1
 348 1171 l 1
EndSplineSet
EndChar

StartChar: idieresis
Encoding: 239 239 134
Width: 690
Flags: MW
HStem: -11 146<401.5 605 500 605 500 605> 1048 121
VStem: 54 204<1457.5 1477.5> 250 159<229.5 248 248 1047 1047 1047> 473 206<1458.5 1478.5>
LayerCount: 2
Fore
SplineSet
576 1364 m 1xd8
 576 1363 l 1
 563 1363 550 1366 538 1371 c 0
 526 1376 515 1384 504 1394 c 0
 494 1404 486 1415 481 1427 c 0
 476 1439 473 1452 473 1465 c 0
 473 1492 483 1516 504 1537 c 0
 525 1558 549 1568 576 1568 c 0
 603 1568 627 1558 648 1537 c 0
 669 1516 679 1492 679 1465 c 0
 679 1438 669 1414 648 1394 c 0
 627 1374 603 1364 576 1364 c 1xd8
157 1363 m 1
 157 1362 l 1xd8
 144 1362 131 1365 119 1370 c 0
 107 1375 96 1383 85 1393 c 0
 75 1403 67 1414 62 1426 c 0
 57 1438 54 1451 54 1464 c 0
 54 1491 64 1515 85 1536 c 0
 106 1557 130 1567 157 1567 c 0
 184 1567 208 1557 228 1536 c 0
 248 1515 258 1491 258 1464 c 0
 258 1437 248 1413 228 1393 c 0xe8
 208 1373 184 1363 157 1363 c 1
348 1169 m 1
 347 1167 l 1
 368 1167 384 1162 394 1152 c 0
 404 1142 409 1126 409 1105 c 2
 409 248 l 2
 409 211 417 183 432 164 c 0
 447 145 470 135 500 135 c 2
 605 135 l 1
 605 -11 l 1
 432 -11 l 2
 371 -11 325 8 295 47 c 0
 265 86 250 144 250 221 c 2
 250 1047 l 1
 127 1049 l 1
 127 1169 l 1
 348 1169 l 1
EndSplineSet
EndChar

StartChar: ntilde
Encoding: 241 241 135
Width: 1460
Flags: MW
HStem: -1 136<1158.5 1329 1243 1329 1243 1329 1190 1329> 946 136<73 217 73 290> 975 137<689 750.5> 1382 137<893.5 898 884.5 921.5> 1456 135<614 617 590.5 628.5>
VStem: 217 161<-2 803 -2 946 -2 946> 994 161<231 247 247 746>
LayerCount: 2
Fore
SplineSet
1079 1579 m 1xd6
 1077 1578 l 1
 1060 1513 1037 1464 1008 1431 c 0
 979 1398 943 1382 900 1382 c 0
 887 1382 866 1386 838 1394 c 0
 810 1402 781 1411 752 1421 c 0xd6
 723 1430 696 1438 671 1445 c 0
 646 1452 631 1456 626 1456 c 0
 602 1456 582 1449 566 1434 c 0
 550 1419 538 1397 530 1368 c 1
 433 1397 l 1
 451 1462 475 1511 505 1543 c 0
 535 1575 570 1591 611 1591 c 0
 623 1591 643 1587 672 1580 c 0
 701 1573 730 1565 760 1556 c 0xce
 790 1546 817 1537 842 1530 c 0
 867 1523 882 1519 887 1519 c 0
 909 1519 928 1527 944 1542 c 0
 960 1557 973 1580 982 1610 c 1
 1079 1579 l 1xd6
1190 -1 m 1
 1191 -1 l 2xd6
 1126 -1 1077 18 1044 57 c 0
 1011 96 994 154 994 231 c 2
 994 746 l 2
 994 832 966 892 910 925 c 0
 854 958 788 975 713 975 c 0
 649 975 586 955 524 914 c 0xb6
 462 873 413 836 378 803 c 1
 378 -2 l 1
 217 -2 l 1
 217 946 l 1
 73 946 l 1
 73 1082 l 1
 290 1082 l 2
 311 1082 327 1077 338 1067 c 0
 349 1057 355 1042 355 1021 c 2xd6
 355 961 l 1
 428 1018 490 1057 541 1079 c 0
 592 1101 653 1112 725 1112 c 0
 844 1112 945 1082 1029 1022 c 0xb6
 1113 962 1155 870 1155 746 c 2
 1155 247 l 2
 1155 210 1162 182 1177 163 c 0
 1192 144 1214 135 1243 135 c 2
 1329 135 l 1
 1329 -1 l 1
 1190 -1 l 1
EndSplineSet
EndChar

StartChar: oacute
Encoding: 243 243 136
Width: 1272
Flags: MW
HStem: -19 143<616 674 616 724> 972 143<615 673>
VStem: 78 143<518.5 577 518.5 625> 1067 147<516.5 575>
LayerCount: 2
Fore
SplineSet
874 1657 m 1
 962 1529 l 1
 562 1273 l 1
 480 1399 l 1
 874 1657 l 1
646 1115 m 0
 802 1115 936 1059 1047 948 c 0
 1158 837 1214 703 1214 547 c 0
 1214 392 1158 259 1047 148 c 0
 936 37 802 -19 646 -19 c 0
 490 -19 356 37 245 148 c 0
 134 259 78 392 78 547 c 0
 78 703 134 837 245 948 c 0
 356 1059 490 1115 646 1115 c 0
943 252 m 1
 942 250 l 1
 985 293 1017 338 1037 386 c 0
 1057 434 1067 487 1067 546 c 0
 1067 604 1057 658 1037 707 c 0
 1017 756 985 802 942 845 c 0
 899 888 853 920 804 941 c 0
 755 962 702 972 644 972 c 0
 586 972 532 961 483 940 c 0
 434 919 388 887 345 844 c 0
 302 801 271 755 251 707 c 0
 231 659 221 606 221 548 c 0
 221 489 231 436 251 388 c 0
 271 340 303 295 346 252 c 0
 389 209 435 177 484 156 c 0
 533 135 587 124 645 124 c 0
 703 124 756 135 805 156 c 0
 854 177 900 209 943 252 c 1
EndSplineSet
EndChar

StartChar: ograve
Encoding: 242 242 137
Width: 1272
Flags: MW
HStem: -19 143<616 674 616 724> 972 143<615 673> 1322 254<371 758 371 611>
VStem: 78 143<518.5 577 518.5 625> 1067 147<516.5 575>
LayerCount: 2
Fore
SplineSet
758 1322 m 1
 611 1322 l 1
 371 1576 l 1
 572 1576 l 1
 758 1322 l 1
646 1115 m 0
 802 1115 936 1059 1047 948 c 0
 1158 837 1214 703 1214 547 c 0
 1214 392 1158 259 1047 148 c 0
 936 37 802 -19 646 -19 c 0
 490 -19 356 37 245 148 c 0
 134 259 78 392 78 547 c 0
 78 703 134 837 245 948 c 0
 356 1059 490 1115 646 1115 c 0
943 252 m 1
 942 250 l 1
 985 293 1017 338 1037 386 c 0
 1057 434 1067 487 1067 546 c 0
 1067 604 1057 658 1037 707 c 0
 1017 756 985 802 942 845 c 0
 899 888 853 920 804 941 c 0
 755 962 702 972 644 972 c 0
 586 972 532 961 483 940 c 0
 434 919 388 887 345 844 c 0
 302 801 271 755 251 707 c 0
 231 659 221 606 221 548 c 0
 221 489 231 436 251 388 c 0
 271 340 303 295 346 252 c 0
 389 209 435 177 484 156 c 0
 533 135 587 124 645 124 c 0
 703 124 756 135 805 156 c 0
 854 177 900 209 943 252 c 1
EndSplineSet
EndChar

StartChar: ocircumflex
Encoding: 244 244 138
Width: 1272
Flags: MW
HStem: -19 143<616 674 616 724> 972 143<615 673>
VStem: 78 143<518.5 577 518.5 625> 1067 147<516.5 575>
LayerCount: 2
Fore
SplineSet
679 1659 m 1
 931 1366 l 1
 865 1298 l 1
 636 1499 l 1
 408 1298 l 1
 343 1366 l 1
 593 1659 l 1
 679 1659 l 1
646 1115 m 0
 802 1115 936 1059 1047 948 c 0
 1158 837 1214 703 1214 547 c 0
 1214 392 1158 259 1047 148 c 0
 936 37 802 -19 646 -19 c 0
 490 -19 356 37 245 148 c 0
 134 259 78 392 78 547 c 0
 78 703 134 837 245 948 c 0
 356 1059 490 1115 646 1115 c 0
943 252 m 1
 942 250 l 1
 985 293 1017 338 1037 386 c 0
 1057 434 1067 487 1067 546 c 0
 1067 604 1057 658 1037 707 c 0
 1017 756 985 802 942 845 c 0
 899 888 853 920 804 941 c 0
 755 962 702 972 644 972 c 0
 586 972 532 961 483 940 c 0
 434 919 388 887 345 844 c 0
 302 801 271 755 251 707 c 0
 231 659 221 606 221 548 c 0
 221 489 231 436 251 388 c 0
 271 340 303 295 346 252 c 0
 389 209 435 177 484 156 c 0
 533 135 587 124 645 124 c 0
 703 124 756 135 805 156 c 0
 854 177 900 209 943 252 c 1
EndSplineSet
EndChar

StartChar: odieresis
Encoding: 246 246 139
Width: 1272
Flags: MW
HStem: -21 143<616 674 616 724> 970 143<615 673>
VStem: 78 143<516.5 575 516.5 623> 325 204<1457.5 1477.5> 744 206<1458.5 1478.5> 1067 147<514.5 573>
LayerCount: 2
Fore
SplineSet
847 1364 m 1
 847 1363 l 1
 834 1363 821 1366 809 1371 c 0
 797 1376 786 1384 775 1394 c 0
 765 1404 757 1415 752 1427 c 0
 747 1439 744 1452 744 1465 c 0
 744 1492 754 1516 775 1537 c 0
 796 1558 820 1568 847 1568 c 0
 874 1568 898 1558 919 1537 c 0
 940 1516 950 1492 950 1465 c 0
 950 1438 940 1414 919 1394 c 0
 898 1374 874 1364 847 1364 c 1
428 1363 m 1
 428 1362 l 1
 415 1362 402 1365 390 1370 c 0
 378 1375 367 1383 356 1393 c 0
 346 1403 338 1414 333 1426 c 0
 328 1438 325 1451 325 1464 c 0
 325 1491 335 1515 356 1536 c 0
 377 1557 401 1567 428 1567 c 0
 455 1567 479 1557 499 1536 c 0
 519 1515 529 1491 529 1464 c 0
 529 1437 519 1413 499 1393 c 0
 479 1373 455 1363 428 1363 c 1
646 1113 m 0
 802 1113 936 1057 1047 946 c 0
 1158 835 1214 701 1214 545 c 0
 1214 390 1158 257 1047 146 c 0
 936 35 802 -21 646 -21 c 0
 490 -21 356 35 245 146 c 0
 134 257 78 390 78 545 c 0
 78 701 134 835 245 946 c 0
 356 1057 490 1113 646 1113 c 0
943 250 m 1
 942 248 l 1
 985 291 1017 336 1037 384 c 0
 1057 432 1067 485 1067 544 c 0
 1067 602 1057 656 1037 705 c 0
 1017 754 985 800 942 843 c 0
 899 886 853 918 804 939 c 0
 755 960 702 970 644 970 c 0
 586 970 532 959 483 938 c 0
 434 917 388 885 345 842 c 0
 302 799 271 753 251 705 c 0
 231 657 221 604 221 546 c 0
 221 487 231 434 251 386 c 0
 271 338 303 293 346 250 c 0
 389 207 435 175 484 154 c 0
 533 133 587 122 645 122 c 0
 703 122 756 133 805 154 c 0
 854 175 900 207 943 250 c 1
EndSplineSet
EndChar

StartChar: otilde
Encoding: 245 245 140
Width: 1272
Flags: MW
HStem: -20 143<614 672 614 722> 971 143<613 671> 1382 137<773.5 778 764.5 801.5> 1456 135<494 497 470.5 508.5>
VStem: 76 143<517.5 576 517.5 624> 1065 147<515.5 574>
LayerCount: 2
Fore
SplineSet
959 1579 m 1xec
 957 1578 l 1
 940 1513 917 1464 888 1431 c 0
 859 1398 823 1382 780 1382 c 0
 767 1382 746 1386 718 1394 c 0
 690 1402 661 1411 632 1421 c 0xec
 603 1430 576 1438 551 1445 c 0
 526 1452 511 1456 506 1456 c 0
 482 1456 462 1449 446 1434 c 0
 430 1419 418 1397 410 1368 c 1
 313 1397 l 1
 331 1462 355 1511 385 1543 c 0
 415 1575 450 1591 491 1591 c 0
 503 1591 523 1587 552 1580 c 0
 581 1573 610 1565 640 1556 c 0xdc
 670 1546 697 1537 722 1530 c 0
 747 1523 762 1519 767 1519 c 0
 789 1519 808 1527 824 1542 c 0
 840 1557 853 1580 862 1610 c 1
 959 1579 l 1xec
644 1114 m 0
 800 1114 934 1058 1045 947 c 0
 1156 836 1212 702 1212 546 c 0
 1212 391 1156 258 1045 147 c 0
 934 36 800 -20 644 -20 c 0
 488 -20 354 36 243 147 c 0
 132 258 76 391 76 546 c 0
 76 702 132 836 243 947 c 0
 354 1058 488 1114 644 1114 c 0
941 251 m 1
 940 249 l 1
 983 292 1015 337 1035 385 c 0
 1055 433 1065 486 1065 545 c 0
 1065 603 1055 657 1035 706 c 0
 1015 755 983 801 940 844 c 0
 897 887 851 919 802 940 c 0
 753 961 700 971 642 971 c 0
 584 971 530 960 481 939 c 0
 432 918 386 886 343 843 c 0
 300 800 269 754 249 706 c 0
 229 658 219 605 219 547 c 0
 219 488 229 435 249 387 c 0
 269 339 301 294 344 251 c 0
 387 208 433 176 482 155 c 0
 531 134 585 123 643 123 c 0
 701 123 754 134 803 155 c 0
 852 176 898 208 941 251 c 1
EndSplineSet
EndChar

StartChar: uacute
Encoding: 250 250 141
Width: 1436
Flags: MW
HStem: -30 156 1 136<1225 1380 1309 1380 1309 1380> 949 136<93 241 93 337>
VStem: 241 168<338 360 360 949 949 949> 1052 163<586 1084 1084 1084>
LayerCount: 2
Fore
SplineSet
960 1657 m 1xb8
 1048 1529 l 1
 648 1273 l 1
 566 1399 l 1
 960 1657 l 1xb8
1052 1084 m 1
 1215 1085 l 1
 1215 249 l 2
 1215 230 1217 214 1221 200 c 0
 1225 186 1231 174 1238 165 c 0
 1246 156 1256 149 1268 144 c 0
 1280 139 1294 137 1309 137 c 2
 1380 137 l 1
 1380 1 l 1
 1254 1 l 2
 1196 1 1153 13 1125 36 c 0x78
 1097 59 1083 94 1083 141 c 2
 1083 232 l 1
 1072 161 1048 111 1011 83 c 0
 974 55 941 33 912 18 c 0
 881 2 843 -10 798 -18 c 0
 753 -26 714 -30 681 -30 c 0
 615 -30 565 -24 531 -13 c 0
 497 -2 455 18 406 47 c 0
 356 76 316 116 286 167 c 0
 256 218 241 275 241 338 c 2
 241 949 l 1
 93 949 l 1
 93 1085 l 1
 337 1085 l 2
 348 1085 358 1084 367 1082 c 0
 376 1080 384 1076 390 1071 c 0
 396 1066 401 1059 404 1051 c 0
 407 1043 409 1034 409 1023 c 2
 409 360 l 2
 409 309 416 268 430 237 c 0
 444 206 467 182 499 165 c 0
 531 148 558 135 580 126 c 0
 602 117 635 112 679 111 c 0
 714 110 753 115 797 126 c 0
 841 137 884 157 925 185 c 0
 967 213 999 269 1020 352 c 0
 1041 435 1052 513 1052 586 c 2
 1052 1084 l 1
EndSplineSet
EndChar

StartChar: ugrave
Encoding: 249 249 142
Width: 1436
Flags: MW
HStem: -30 156 1 136<1225 1380 1309 1380 1309 1380> 949 136<93 241 93 337> 1322 254<457 844 457 697>
VStem: 241 168<338 360 360 949 949 949> 1052 163<586 1084 1084 1084>
LayerCount: 2
Fore
SplineSet
844 1322 m 1xbc
 697 1322 l 1
 457 1576 l 1
 658 1576 l 1
 844 1322 l 1xbc
1052 1084 m 1
 1215 1085 l 1
 1215 249 l 2
 1215 230 1217 214 1221 200 c 0
 1225 186 1231 174 1238 165 c 0
 1246 156 1256 149 1268 144 c 0
 1280 139 1294 137 1309 137 c 2
 1380 137 l 1
 1380 1 l 1
 1254 1 l 2
 1196 1 1153 13 1125 36 c 0x7c
 1097 59 1083 94 1083 141 c 2
 1083 232 l 1
 1072 161 1048 111 1011 83 c 0
 974 55 941 33 912 18 c 0
 881 2 843 -10 798 -18 c 0
 753 -26 714 -30 681 -30 c 0
 615 -30 565 -24 531 -13 c 0
 497 -2 455 18 406 47 c 0
 356 76 316 116 286 167 c 0
 256 218 241 275 241 338 c 2
 241 949 l 1
 93 949 l 1
 93 1085 l 1
 337 1085 l 2
 348 1085 358 1084 367 1082 c 0
 376 1080 384 1076 390 1071 c 0
 396 1066 401 1059 404 1051 c 0
 407 1043 409 1034 409 1023 c 2
 409 360 l 2
 409 309 416 268 430 237 c 0
 444 206 467 182 499 165 c 0
 531 148 558 135 580 126 c 0
 602 117 635 112 679 111 c 0
 714 110 753 115 797 126 c 0
 841 137 884 157 925 185 c 0
 967 213 999 269 1020 352 c 0
 1041 435 1052 513 1052 586 c 2
 1052 1084 l 1
EndSplineSet
EndChar

StartChar: ucircumflex
Encoding: 251 251 143
Width: 1436
Flags: MW
HStem: -30 156 1 136<1225 1380 1309 1380 1309 1380> 949 136<93 241 93 337>
VStem: 241 168<338 360 360 949 949 949> 1052 163<586 1084 1084 1084>
LayerCount: 2
Fore
SplineSet
765 1659 m 1xb8
 1017 1366 l 1
 951 1298 l 1
 722 1499 l 1
 494 1298 l 1
 429 1366 l 1
 679 1659 l 1
 765 1659 l 1xb8
1052 1084 m 1
 1215 1085 l 1
 1215 249 l 2
 1215 230 1217 214 1221 200 c 0
 1225 186 1231 174 1238 165 c 0
 1246 156 1256 149 1268 144 c 0
 1280 139 1294 137 1309 137 c 2
 1380 137 l 1
 1380 1 l 1
 1254 1 l 2
 1196 1 1153 13 1125 36 c 0x78
 1097 59 1083 94 1083 141 c 2
 1083 232 l 1
 1072 161 1048 111 1011 83 c 0
 974 55 941 33 912 18 c 0
 881 2 843 -10 798 -18 c 0
 753 -26 714 -30 681 -30 c 0
 615 -30 565 -24 531 -13 c 0
 497 -2 455 18 406 47 c 0
 356 76 316 116 286 167 c 0
 256 218 241 275 241 338 c 2
 241 949 l 1
 93 949 l 1
 93 1085 l 1
 337 1085 l 2
 348 1085 358 1084 367 1082 c 0
 376 1080 384 1076 390 1071 c 0
 396 1066 401 1059 404 1051 c 0
 407 1043 409 1034 409 1023 c 2
 409 360 l 2
 409 309 416 268 430 237 c 0
 444 206 467 182 499 165 c 0
 531 148 558 135 580 126 c 0
 602 117 635 112 679 111 c 0
 714 110 753 115 797 126 c 0
 841 137 884 157 925 185 c 0
 967 213 999 269 1020 352 c 0
 1041 435 1052 513 1052 586 c 2
 1052 1084 l 1
EndSplineSet
EndChar

StartChar: udieresis
Encoding: 252 252 144
Width: 1436
Flags: MW
HStem: -32 156 -1 136<1225 1380 1309 1380 1309 1380> 947 136<93 241 93 337>
VStem: 241 168<336 358 358 947 947 947> 411 204<1457.5 1477.5> 830 206<1458.5 1478.5> 1052 163<584 1082 1082 1082>
LayerCount: 2
Fore
SplineSet
933 1364 m 1xb2
 933 1363 l 1xb2
 920 1363 907 1366 895 1371 c 0
 883 1376 872 1384 861 1394 c 0
 851 1404 843 1415 838 1427 c 0
 833 1439 830 1452 830 1465 c 0
 830 1492 840 1516 861 1537 c 0
 882 1558 906 1568 933 1568 c 0
 960 1568 984 1558 1005 1537 c 0
 1026 1516 1036 1492 1036 1465 c 0
 1036 1438 1026 1414 1005 1394 c 0xb6
 984 1374 960 1364 933 1364 c 1xb2
514 1363 m 1
 514 1362 l 1xb2
 501 1362 488 1365 476 1370 c 0
 464 1375 453 1383 442 1393 c 0
 432 1403 424 1414 419 1426 c 0
 414 1438 411 1451 411 1464 c 0
 411 1491 421 1515 442 1536 c 0
 463 1557 487 1567 514 1567 c 0
 541 1567 565 1557 585 1536 c 0
 605 1515 615 1491 615 1464 c 0
 615 1437 605 1413 585 1393 c 0xaa
 565 1373 541 1363 514 1363 c 1
1052 1082 m 1
 1215 1083 l 1
 1215 247 l 2
 1215 228 1217 212 1221 198 c 0
 1225 184 1231 172 1238 163 c 0
 1246 154 1256 147 1268 142 c 0
 1280 137 1294 135 1309 135 c 2
 1380 135 l 1
 1380 -1 l 1
 1254 -1 l 2
 1196 -1 1153 11 1125 34 c 0x72
 1097 57 1083 92 1083 139 c 2
 1083 230 l 1
 1072 159 1048 109 1011 81 c 0
 974 53 941 31 912 16 c 0
 881 0 843 -12 798 -20 c 0
 753 -28 714 -32 681 -32 c 0
 615 -32 565 -26 531 -15 c 0
 497 -4 455 16 406 45 c 0
 356 74 316 114 286 165 c 0
 256 216 241 273 241 336 c 2
 241 947 l 1
 93 947 l 1
 93 1083 l 1
 337 1083 l 2
 348 1083 358 1082 367 1080 c 0
 376 1078 384 1074 390 1069 c 0
 396 1064 401 1057 404 1049 c 0
 407 1041 409 1032 409 1021 c 2
 409 358 l 2
 409 307 416 266 430 235 c 0
 444 204 467 180 499 163 c 0
 531 146 558 133 580 124 c 0
 602 115 635 110 679 109 c 0
 714 108 753 113 797 124 c 0
 841 135 884 155 925 183 c 0
 967 211 999 267 1020 350 c 0
 1041 433 1052 511 1052 584 c 2
 1052 1082 l 1
EndSplineSet
EndChar

StartChar: dagger
Encoding: 8224 8224 145
Width: 905
Flags: MW
HStem: 0 1495<375 530 375 530> 1034 137<39 375 39 375>
VStem: 375 155<0 1034 0 1034 1171 1495>
LayerCount: 2
Fore
SplineSet
39 1034 m 1x60
 39 1171 l 1
 375 1171 l 1x60
 375 1495 l 1
 530 1495 l 1xa0
 530 1171 l 1
 866 1169 l 1
 866 1034 l 1
 530 1034 l 1x60
 530 0 l 1
 375 0 l 1xa0
 375 1034 l 1
 39 1034 l 1x60
EndSplineSet
EndChar

StartChar: degree
Encoding: 176 176 146
Width: 895
Flags: MW
HStem: 719 100<424.5 487.5 413.5 511> 1414 104<406.5 480>
VStem: 79 134<1121 1167.5 1121 1186.5> 684 133<1067.5 1160>
LayerCount: 2
Fore
SplineSet
179 829 m 1
 181 828 l 1
 149 863 124 906 106 956 c 0
 88 1006 79 1062 79 1123 c 0
 79 1250 110 1348 172 1416 c 0
 234 1484 323 1518 439 1518 c 0
 555 1518 647 1482 715 1409 c 0
 783 1336 817 1236 817 1109 c 0
 817 985 785 889 722 821 c 0
 659 753 569 719 453 719 c 0
 396 719 344 729 297 748 c 0
 250 767 211 794 179 829 c 1
213 1121 m 1
 212 1120 l 1
 212 1026 234 952 278 899 c 0
 322 846 379 819 448 819 c 0
 527 819 586 844 625 894 c 0
 664 944 684 1018 684 1117 c 0
 684 1203 662 1274 619 1330 c 0
 576 1386 517 1414 443 1414 c 0
 370 1414 313 1388 273 1337 c 0
 233 1286 213 1214 213 1121 c 1
EndSplineSet
EndChar

StartChar: cent
Encoding: 162 162 147
Width: 1108
Flags: MW
HStem: 134 124<626 626 626 663.5> 1240 120<615 625>
VStem: 127 161<736 784.5>
LayerCount: 2
Fore
SplineSet
338 457 m 1
 339 457 l 1
 358 412 383 373 414 340 c 0
 445 307 484 284 531 271 c 1
 615 1240 l 1
 550 1237 496 1220 454 1189 c 0
 412 1158 378 1120 353 1075 c 0
 328 1029 311 979 302 924 c 0
 293 869 288 815 288 762 c 0
 288 710 292 657 299 604 c 0
 306 551 319 502 338 457 c 1
233 1164 m 1
 232 1160 l 1
 270 1218 321 1266 385 1303 c 0
 449 1340 529 1359 625 1360 c 1
 655 1708 l 1
 750 1708 l 1
 719 1356 l 1
 762 1351 808 1341 856 1327 c 0
 904 1313 954 1293 1006 1267 c 1
 952 1148 l 1
 910 1171 869 1190 829 1204 c 0
 789 1218 749 1228 710 1233 c 1
 626 258 l 1
 691 260 747 279 793 315 c 0
 839 351 875 403 901 472 c 1
 1032 429 l 1
 994 331 940 257 870 208 c 0
 800 159 714 134 613 134 c 1
 585 -216 l 1
 490 -216 l 1
 521 140 l 1
 449 153 388 180 338 222 c 0
 288 264 247 314 216 371 c 0
 185 428 162 490 148 556 c 0
 134 622 127 686 127 748 c 0
 127 821 135 894 151 967 c 0
 167 1040 194 1106 233 1164 c 1
EndSplineSet
EndChar

StartChar: sterling
Encoding: 163 163 148
Width: 1255
Flags: MW
HStem: 1 135.5 647 126<431 841 431 841> 1400 126<649 736>
VStem: 266 165<317 336 336 647 775 1063> 1019 136<137 273 1 273>
LayerCount: 2
Fore
SplineSet
369 136 m 1
 1019 137 l 1
 1019 273 l 1
 1155 273 l 1
 1155 1 l 1
 162 1 l 1
 162 95 l 1
 197 124 223 157 240 194 c 0
 257 231 266 272 266 317 c 2
 266 649 l 1
 78 649 l 1
 78 775 l 1
 266 775 l 1
 266 1065 l 2
 266 1215 300 1329 367 1408 c 0
 434 1487 545 1526 699 1526 c 0
 820 1526 917 1495 991 1433 c 0
 1065 1371 1116 1278 1143 1154 c 1
 997 1119 l 1
 974 1213 937 1283 887 1330 c 0
 837 1377 774 1400 698 1400 c 0
 600 1400 531 1372 491 1315 c 0
 451 1258 431 1174 431 1063 c 2
 431 773 l 1
 841 773 l 1
 841 647 l 1
 431 647 l 1
 431 336 l 2
 431 280 428 240 423 217 c 0
 418 194 400 167 369 136 c 1
EndSplineSet
EndChar

StartChar: section
Encoding: 167 167 149
Width: 1079
Flags: MW
HStem: -500 123<488.5 565> 1427 127<503.5 584>
VStem: 115 164<1180 1222.5> 139 165<514.5 569> 772 157<480.5 510> 794 161<-170 -125>
LayerCount: 2
Fore
SplineSet
772 510 m 1xd8
 771 507 l 1
 771 568 755 617 722 653 c 0
 689 689 642 722 581 752 c 1
 574 753 566 754 558 755 c 0
 550 756 541 756 531 756 c 0
 460 756 404 736 364 696 c 0
 324 656 304 605 304 544 c 0
 304 485 320 437 351 401 c 0
 382 365 429 332 491 302 c 1
 498 301 506 300 515 299 c 0
 524 298 534 298 545 298 c 0
 612 298 667 319 709 360 c 0
 751 401 772 451 772 510 c 1xd8
933 521 m 1
 929 520 l 1
 929 438 908 371 867 319 c 0xd8
 826 267 770 228 699 203 c 1
 780 163 843 117 888 65 c 0
 933 13 955 -56 955 -142 c 0
 955 -198 944 -248 923 -292 c 0
 902 -336 873 -374 836 -405 c 0
 798 -436 753 -460 702 -476 c 0
 651 -492 595 -500 535 -500 c 0
 410 -500 310 -468 236 -404 c 0
 162 -340 113 -248 90 -128 c 1
 232 -93 l 1
 255 -188 291 -259 340 -306 c 0
 389 -353 451 -377 526 -377 c 0
 613 -377 679 -356 725 -315 c 0
 771 -274 794 -220 794 -153 c 0
 794 -97 778 -52 746 -18 c 0
 714 16 673 46 624 72 c 0
 575 98 522 123 466 146 c 0
 410 169 358 196 309 227 c 0
 260 258 219 298 187 346 c 0
 155 394 139 455 139 528 c 0
 139 610 159 677 199 730 c 0xd4
 239 783 296 822 370 847 c 1
 288 886 225 932 181 985 c 0
 137 1038 115 1108 115 1194 c 0
 115 1251 126 1302 147 1346 c 0
 168 1390 198 1428 236 1459 c 0
 273 1490 317 1514 368 1530 c 0
 419 1546 474 1554 533 1554 c 0
 656 1554 755 1522 829 1458 c 0
 903 1394 953 1303 979 1184 c 1
 836 1149 l 1
 815 1242 780 1312 732 1358 c 0
 684 1404 622 1427 546 1427 c 0
 460 1427 394 1407 348 1367 c 0
 302 1327 279 1274 279 1208 c 0
 279 1152 295 1107 327 1072 c 0xe4
 359 1037 399 1007 448 981 c 0
 496 955 548 930 605 907 c 0
 662 884 715 856 764 823 c 0
 813 790 853 750 885 703 c 0
 917 656 933 595 933 521 c 1
EndSplineSet
EndChar

StartChar: bullet
Encoding: 8226 8226 150
Width: 526
Flags: MW
HStem: 527 320
VStem: 109 320
LayerCount: 2
Fore
SplineSet
379 565 m 0
 364 549 346 536 326 527 c 0
 306 518 285 513 263 513 c 0
 241 513 220 518 200 527 c 0
 180 536 162 549 147 565 c 1
 131 580 118 598 109 618 c 0
 100 638 95 659 95 681 c 0
 95 703 100 724 109 744 c 0
 118 764 131 782 147 797 c 0
 162 812 180 824 200 833 c 0
 220 842 241 847 263 847 c 0
 308 847 347 831 380 798 c 0
 413 765 429 726 429 681 c 0
 429 659 424 638 415 618 c 0
 406 598 394 580 379 565 c 0
EndSplineSet
EndChar

StartChar: paragraph
Encoding: 182 182 151
Width: 1159
Flags: MW
HStem: 0 112.5 560 934<612 613 613 718>
VStem: 717.5 165.5
LayerCount: 2
Fore
SplineSet
717 121 m 1
 718 560 l 1
 613 560 l 2
 542 560 478 572 421 595 c 0
 364 618 315 650 274 691 c 0
 233 732 201 781 179 838 c 0
 157 895 146 958 146 1026 c 0
 146 1096 157 1160 180 1217 c 0
 203 1274 235 1323 276 1364 c 0
 317 1405 366 1437 423 1460 c 0
 480 1483 543 1494 612 1494 c 2
 819 1494 l 2
 840 1494 856 1489 867 1479 c 0
 878 1469 883 1453 883 1432 c 2
 883 121 l 1
 1010 106 l 1
 1010 0 l 1
 500 0 l 1
 500 104 l 1
 717 121 l 1
EndSplineSet
EndChar

StartChar: germandbls
Encoding: 223 223 152
Width: 1368
Flags: MW
HStem: -29 129 -4 120 691 145<413 840> 1398 125<664.5 762>
VStem: 246 165<117 688 990 1058> 1014 156<1077.5 1154> 1128 164<342 435.5 310.5 436.5>
LayerCount: 2
Fore
SplineSet
782 691 m 2x7a
 411 688 l 1
 411 60 l 2
 411 39 405 23 393 12 c 0
 381 1 363 -4 340 -4 c 2
 117 -4 l 1
 117 115 l 1
 246 117 l 1
 246 987 l 2
 246 1164 287 1298 370 1388 c 0
 453 1478 566 1523 709 1523 c 0
 854 1523 967 1487 1048 1415 c 0
 1129 1343 1170 1244 1170 1119 c 0
 1170 1036 1157 964 1131 904 c 0x7c
 1105 844 1050 803 967 781 c 1
 1061 776 1139 738 1200 667 c 0
 1261 596 1292 498 1292 373 c 0
 1292 248 1257 148 1188 73 c 0
 1119 -2 1017 -36 882 -29 c 0
 771 -23 704 -15 680 -5 c 0
 656 5 620 29 573 67 c 1
 654 188 l 1
 716 140 752 113 762 108 c 0
 772 103 815 100 892 100 c 0
 967 100 1025 125 1066 174 c 0xba
 1107 223 1128 295 1128 389 c 0
 1128 484 1099 558 1042 611 c 0
 985 664 898 691 782 691 c 2x7a
411 990 m 1
 413 836 l 1
 724 836 l 2
 815 836 886 858 937 901 c 0
 988 944 1014 1013 1014 1107 c 0
 1014 1201 988 1273 935 1323 c 0
 882 1373 809 1398 715 1398 c 0
 614 1398 538 1364 487 1296 c 0
 436 1228 411 1126 411 990 c 1
EndSplineSet
EndChar

StartChar: registered
Encoding: 174 174 153
Width: 1475
Flags: MW
HStem: 544 65<701.5 779 701.5 781.5> 750 67<641 733 641 733> 1078 72<702 727 702 764> 1487 69<475 539 475 764 641 764 641 641> 1685 67<696.5 779>
VStem: 133 78<1156 1157 1156 1193 1154 1199.5> 539 102<819 1487 817 1487> 928 97<1289.5 1344.5> 1266 75<1115.5 1193>
LayerCount: 2
Fore
SplineSet
133 1157 m 2
 133 1156 l 2
 133 1243 146 1322 172 1393 c 0
 198 1464 238 1528 291 1584 c 0
 343 1640 406 1682 480 1710 c 0
 554 1738 640 1752 737 1752 c 0
 833 1752 919 1737 994 1708 c 0
 1069 1679 1133 1638 1185 1585 c 0
 1237 1532 1276 1469 1302 1396 c 0
 1328 1323 1341 1243 1341 1157 c 0
 1341 1071 1326 991 1296 917 c 0
 1266 843 1225 778 1172 723 c 0
 1119 668 1055 624 981 592 c 0
 907 560 826 544 737 544 c 0
 647 544 565 560 491 591 c 0
 417 622 353 665 300 720 c 0
 247 775 206 840 177 915 c 0
 148 990 133 1071 133 1157 c 2
211 1154 m 1
 214 1154 l 1
 214 1077 226 1006 251 941 c 0
 276 876 313 817 362 765 c 0
 411 713 467 674 530 648 c 0
 593 622 663 609 740 609 c 0
 818 609 889 623 953 651 c 0
 1017 679 1072 718 1119 767 c 0
 1165 816 1201 874 1227 940 c 0
 1253 1006 1266 1077 1266 1154 c 0
 1266 1232 1254 1303 1230 1368 c 0
 1206 1433 1172 1489 1127 1536 c 0
 1082 1583 1026 1620 960 1646 c 0
 894 1672 820 1685 738 1685 c 0
 655 1685 581 1672 516 1646 c 0
 451 1620 396 1583 351 1536 c 0
 306 1489 271 1433 247 1368 c 0
 223 1303 211 1232 211 1154 c 1
853 1005 m 1
 856 1005 l 1
 845 1035 830 1055 811 1064 c 0
 792 1073 764 1078 727 1078 c 2
 702 1078 l 1
 702 1150 l 1
 764 1150 l 2
 819 1150 860 1164 887 1192 c 0
 914 1220 928 1262 928 1317 c 0
 928 1372 914 1414 886 1443 c 0
 858 1472 817 1487 764 1487 c 2
 641 1487 l 1
 641 817 l 1
 733 817 l 1
 733 750 l 1
 475 750 l 1
 475 819 l 1
 539 819 l 1
 539 1487 l 1
 475 1487 l 1
 475 1556 l 1
 764 1556 l 2
 850 1556 915 1536 959 1495 c 0
 1003 1454 1025 1395 1025 1317 c 0
 1025 1258 1013 1210 988 1174 c 0
 963 1138 926 1112 877 1097 c 1
 896 1088 912 1076 925 1062 c 0
 938 1048 948 1032 955 1013 c 2
 1062 749 l 1
 951 749 l 1
 853 1005 l 1
EndSplineSet
EndChar

StartChar: copyright
Encoding: 169 169 154
Width: 1475
Flags: MW
HStem: 544 65<701.5 779 701.5 781.5> 733 78<719 766 719 777> 1498 73<725.5 759.5> 1685 67<696.5 779>
VStem: 133 78<1156 1157 1156 1193 1154 1199.5> 442 90 1266 75<1115.5 1193>
LayerCount: 2
Fore
SplineSet
133 1157 m 2
 133 1156 l 2
 133 1243 146 1322 172 1393 c 0
 198 1464 238 1528 291 1584 c 0
 343 1640 406 1682 480 1710 c 0
 554 1738 640 1752 737 1752 c 0
 833 1752 919 1737 994 1708 c 0
 1069 1679 1133 1638 1185 1585 c 0
 1237 1532 1276 1469 1302 1396 c 0
 1328 1323 1341 1243 1341 1157 c 0
 1341 1071 1326 991 1296 917 c 0
 1266 843 1225 778 1172 723 c 0
 1119 668 1055 624 981 592 c 0
 907 560 826 544 737 544 c 0
 647 544 565 560 491 591 c 0
 417 622 353 665 300 720 c 0
 247 775 206 840 177 915 c 0
 148 990 133 1071 133 1157 c 2
211 1154 m 1
 214 1154 l 1
 214 1077 226 1006 251 941 c 0
 276 876 313 817 362 765 c 0
 411 713 467 674 530 648 c 0
 593 622 663 609 740 609 c 0
 818 609 889 623 953 651 c 0
 1017 679 1072 718 1119 767 c 0
 1165 816 1201 874 1227 940 c 0
 1253 1006 1266 1077 1266 1154 c 0
 1266 1232 1254 1303 1230 1368 c 0
 1206 1433 1172 1489 1127 1536 c 0
 1082 1583 1026 1620 960 1646 c 0
 894 1672 820 1685 738 1685 c 0
 655 1685 581 1672 516 1646 c 0
 451 1620 396 1583 351 1536 c 0
 306 1489 271 1433 247 1368 c 0
 223 1303 211 1232 211 1154 c 1
961 1433 m 1
 960 1437 l 1
 918 1458 879 1473 843 1483 c 0
 807 1493 774 1498 745 1498 c 0
 706 1498 673 1489 646 1471 c 0
 619 1453 597 1429 581 1399 c 0
 564 1369 552 1334 544 1294 c 0
 536 1254 532 1212 532 1169 c 0
 532 1128 535 1087 541 1045 c 0
 547 1003 558 965 574 930 c 0
 589 895 610 866 637 844 c 0
 664 822 698 811 740 811 c 0
 792 811 834 829 866 865 c 0
 898 901 919 955 930 1027 c 1
 1020 1007 l 1
 1001 916 968 848 921 802 c 0
 874 756 814 733 740 733 c 0
 677 733 625 747 585 774 c 0
 545 801 513 836 490 878 c 0
 467 919 451 964 442 1013 c 0
 433 1062 428 1109 428 1154 c 0
 428 1202 433 1251 442 1300 c 0
 451 1349 468 1394 493 1435 c 0
 517 1475 550 1508 592 1533 c 0
 634 1558 688 1571 754 1571 c 0
 791 1571 830 1566 871 1556 c 0
 912 1546 953 1529 994 1506 c 1
 961 1433 l 1
EndSplineSet
EndChar

StartChar: trademark
Encoding: 8482 8482 155
Width: 1784
Flags: MW
HStem: 696 897<276 403 276 276 57 739 57 909 1501 1501 1501 1575> 1507 86<57 276 57 623 403 623 403 403>
VStem: 276 127<696 1507 696 1507> 739 170<696 1427 696 1593 696 1593>
LayerCount: 2
Fore
SplineSet
403 1507 m 1x70
 403 696 l 1
 276 696 l 1
 276 1507 l 1
 57 1507 l 1
 57 1593 l 1
 623 1593 l 1
 623 1507 l 1
 403 1507 l 1x70
739 1593 m 1xb0
 923 1592 l 2
 937 1592 948 1589 956 1583 c 0
 964 1577 969 1567 972 1554 c 1
 1177 973 l 1
 1390 1556 l 2
 1394 1569 1400 1578 1409 1584 c 0
 1418 1590 1429 1593 1442 1593 c 2
 1575 1593 l 1
 1575 696 l 1
 1501 696 l 1
 1456 1427 l 1
 1235 842 l 1
 1120 842 l 1
 909 1427 l 1
 909 696 l 1
 739 696 l 1
 739 1593 l 1xb0
EndSplineSet
EndChar

StartChar: acute
Encoding: 180 180 156
Width: 643
Flags: MW
HStem: 1273 384<184 496>
VStem: 102 482<1399 1529>
LayerCount: 2
Fore
SplineSet
496 1657 m 1
 584 1529 l 1
 184 1273 l 1
 102 1399 l 1
 496 1657 l 1
EndSplineSet
EndChar

StartChar: dieresis
Encoding: 168 168 157
Width: 987
Flags: MW
HStem: 1362 206
VStem: 180 204<1457.5 1477.5> 180 625<1457.5 1477.5> 599 206<1458.5 1478.5>
LayerCount: 2
Fore
SplineSet
702 1364 m 1xa0
 702 1363 l 1xa0
 689 1363 676 1366 664 1371 c 0
 652 1376 641 1384 630 1394 c 0
 620 1404 612 1415 607 1427 c 0
 602 1439 599 1452 599 1465 c 0
 599 1492 609 1516 630 1537 c 0
 651 1558 675 1568 702 1568 c 0
 729 1568 753 1558 774 1537 c 0
 795 1516 805 1492 805 1465 c 0
 805 1438 795 1414 774 1394 c 0x90
 753 1374 729 1364 702 1364 c 1xa0
283 1363 m 1
 283 1362 l 1xa0
 270 1362 257 1365 245 1370 c 0
 233 1375 222 1383 211 1393 c 0
 201 1403 193 1414 188 1426 c 0
 183 1438 180 1451 180 1464 c 0
 180 1491 190 1515 211 1536 c 0
 232 1557 256 1567 283 1567 c 0
 310 1567 334 1557 354 1536 c 0
 374 1515 384 1491 384 1464 c 0
 384 1437 374 1413 354 1393 c 0xc0
 334 1373 310 1363 283 1363 c 1
EndSplineSet
EndChar

StartChar: AE
Encoding: 198 198 158
Width: 1909
Flags: MW
HStem: 0 112<1062 1635 1062 1696> 0 121<137 235 137 297 137 235> 638 113<1062 1644 1062 1644> 1383 112<1062 1615 1062 1062>
VStem: 899 163<112 637 637 637 751 1382 1382 1382> 1614.5 123.5 1635.5 122.5
LayerCount: 2
Fore
SplineSet
899 750 m 1xbc
 899 1382 l 1
 803 1382 l 1
 596 750 l 1
 899 750 l 1xbc
688 1495 m 1
 1674 1495 l 2
 1695 1495 1711 1490 1722 1480 c 0
 1733 1470 1738 1454 1738 1433 c 2
 1738 1264 l 1
 1614 1264 l 1
 1615 1383 l 1xbc
 1062 1383 l 1
 1062 751 l 1
 1644 751 l 1
 1644 638 l 1
 1062 638 l 1
 1062 112 l 1
 1635 112 l 1
 1636 212 l 1
 1758 212 l 1
 1758 64 l 2
 1758 43 1753 27 1743 16 c 0
 1733 5 1717 0 1696 0 c 2
 899 0 l 1xba
 899 637 l 1
 559 637 l 1
 370 53 l 2
 364 36 355 23 343 14 c 0
 331 5 316 0 297 0 c 2
 137 0 l 1
 137 121 l 1
 235 121 l 1x7c
 688 1495 l 1
EndSplineSet
EndChar

StartChar: Oslash
Encoding: 216 216 159
Width: 1785
Flags: MW
HStem: 6 137<860.5 931.5 860.5 939.5> 1387 143<850.5 915.5>
VStem: 124 157<729.5 774 729.5 830.5> 1499 155<730 818.5>
LayerCount: 2
Fore
SplineSet
283 774 m 1
 281 774 l 1
 281 685 298 600 332 520 c 0
 366 440 412 370 471 311 c 1
 1162 1318 l 1
 1123 1336 1080 1352 1033 1366 c 0
 986 1380 939 1387 892 1387 c 0
 809 1387 731 1372 659 1343 c 0
 587 1314 521 1271 462 1214 c 0
 403 1156 358 1090 328 1016 c 0
 298 942 283 861 283 774 c 1
1321 323 m 1
 1320 323 l 1
 1379 382 1424 450 1454 526 c 0
 1484 602 1499 685 1499 775 c 0
 1499 862 1484 943 1454 1017 c 0
 1424 1091 1379 1157 1320 1215 c 1
 1311 1222 1305 1227 1301 1230 c 0
 1297 1233 1291 1238 1282 1245 c 1
 580 222 l 1
 627 191 676 170 726 159 c 0
 776 148 831 143 890 143 c 0
 973 143 1051 158 1123 188 c 0
 1195 218 1261 263 1321 323 c 1
1431 1312 m 1
 1429 1317 l 1
 1503 1246 1559 1165 1597 1075 c 0
 1635 985 1654 886 1654 779 c 0
 1654 670 1635 569 1597 477 c 0
 1559 385 1503 302 1429 229 c 0
 1355 155 1272 99 1181 62 c 0
 1090 25 992 6 887 6 c 0
 812 6 743 13 680 27 c 0
 617 41 556 67 497 104 c 1
 387 -44 l 1
 269 37 l 1
 383 192 l 1
 379 195 373 201 365 209 c 0
 357 217 351 223 347 227 c 0
 273 300 217 383 180 475 c 0
 143 567 124 668 124 777 c 0
 124 884 143 983 180 1073 c 0
 217 1163 273 1244 347 1315 c 0
 421 1386 503 1440 594 1476 c 0
 685 1512 783 1530 889 1530 c 0
 951 1530 1013 1521 1074 1504 c 0
 1135 1487 1191 1466 1242 1441 c 1
 1339 1576 l 1
 1458 1495 l 1
 1365 1367 l 1
 1378 1357 1389 1348 1398 1341 c 0
 1407 1334 1418 1324 1431 1312 c 1
EndSplineSet
EndChar

StartChar: plusminus
Encoding: 177 177 160
Width: 1196
Flags: MW
HStem: 0 131<195 1001 195 1001> 682 131<195 530 195 530 664 999>
VStem: 195 806<0 131 0 131 0 813 0 813> 530 134<342 682 342 682 813 1151>
LayerCount: 2
Fore
SplineSet
664 1151 m 1xd0
 664 813 l 1
 999 813 l 1
 999 682 l 1
 664 682 l 1
 664 342 l 1
 530 342 l 1
 530 682 l 1
 195 682 l 1
 195 813 l 1
 530 813 l 1
 530 1151 l 1
 664 1151 l 1xd0
1001 131 m 1xe0
 1001 0 l 1
 195 0 l 1
 195 131 l 1
 1001 131 l 1xe0
EndSplineSet
EndChar

StartChar: yen
Encoding: 165 165 161
Width: 1122
Flags: MW
HStem: 510 94<80 449 80 481 80 449 676 1047> 811 94<82 315 82 358 82 315 809 1047>
VStem: 481 164<0 510 0 510>
LayerCount: 2
Fore
SplineSet
645 510 m 1
 645 0 l 1
 481 0 l 1
 481 510 l 1
 80 510 l 1
 80 604 l 1
 449 604 l 1
 358 811 l 1
 82 811 l 1
 82 905 l 1
 315 905 l 1
 55 1495 l 1
 238 1495 l 1
 563 711 l 1
 887 1495 l 1
 1071 1495 l 1
 809 905 l 1
 1047 905 l 1
 1047 811 l 1
 768 811 l 1
 676 604 l 1
 1047 604 l 1
 1047 510 l 1
 645 510 l 1
EndSplineSet
EndChar

StartChar: ordfeminine
Encoding: 170 170 162
Width: 838
Flags: MW
HStem: 719 101<300 306> 719 115<656 726.5> 1104 84<480 535> 1418 101<377.5 408.5>
VStem: 80 124<918.5 965.5 918.5 969.5> 536 132<1188 1237 1237 1245>
LayerCount: 2
Fore
SplineSet
276 719 m 1xb4
 276 718 l 1xb4
 217 718 170 736 134 772 c 0xbc
 98 808 80 859 80 925 c 0
 80 1014 116 1080 188 1123 c 0
 260 1166 376 1188 536 1188 c 1
 536 1237 l 2
 536 1304 524 1351 499 1378 c 0
 474 1405 435 1418 382 1418 c 0
 353 1418 321 1413 285 1403 c 0
 249 1393 211 1376 172 1353 c 1
 129 1451 l 1
 176 1474 222 1491 267 1502 c 0
 312 1513 356 1519 399 1519 c 0
 485 1519 551 1498 598 1457 c 0
 645 1416 668 1345 668 1245 c 2
 668 899 l 2
 668 878 673 862 682 851 c 0
 691 840 704 834 721 834 c 0
 732 834 742 835 751 836 c 0
 760 837 768 839 775 841 c 1
 792 738 l 1
 771 732 751 727 732 724 c 0
 713 721 694 719 676 719 c 0
 636 719 603 730 577 752 c 0x7c
 551 774 537 815 536 874 c 1
 509 823 474 784 431 758 c 0
 388 732 336 719 276 719 c 1xb4
319 820 m 1
 320 821 l 1xb4
 383 821 435 847 475 898 c 0
 515 949 535 1018 535 1104 c 1
 425 1104 342 1090 287 1062 c 0
 232 1034 204 993 204 938 c 0
 204 899 214 870 233 850 c 0xbc
 252 830 281 820 319 820 c 1
EndSplineSet
EndChar

StartChar: ordmasculine
Encoding: 186 186 163
Width: 834
Flags: MW
HStem: 717 103<385.5 420> 1414 104<377 442.5>
VStem: 76 131<1120 1166 1120 1186.5> 622 134<1068.5 1161.5>
LayerCount: 2
Fore
SplineSet
422 719 m 1
 420 717 l 1
 313 717 229 754 168 827 c 0
 107 900 76 999 76 1123 c 0
 76 1250 104 1348 161 1416 c 0
 218 1484 300 1518 407 1518 c 0
 513 1518 598 1482 661 1409 c 0
 724 1336 756 1236 756 1109 c 0
 756 985 727 889 669 821 c 0
 611 753 529 719 422 719 c 1
207 1120 m 1
 210 1121 l 1
 210 1027 229 953 267 900 c 0
 305 847 355 820 416 820 c 0
 485 820 537 845 571 895 c 0
 605 945 622 1019 622 1118 c 0
 622 1205 603 1276 565 1331 c 0
 527 1386 475 1414 410 1414 c 0
 344 1414 294 1388 259 1336 c 0
 224 1284 207 1212 207 1120 c 1
EndSplineSet
EndChar

StartChar: ae
Encoding: 230 230 164
Width: 1975
Flags: MW
HStem: -32 136<432.5 477.5> -27 126<1404 1457.5> 600 140<992 1723 992 1882 985 1723> 640 138 1070 132<1376 1425 1346 1453> 1072 120<509.5 554>
VStem: 83 156<324.5 389> 825 160<566 640> 1723 159<600 802>
LayerCount: 2
Fore
SplineSet
1082 957 m 1x6780
 1083 956 l 1x6780
 1056 919 1035 888 1021 863 c 0
 1007 838 997 797 992 740 c 1
 1723 740 l 1
 1723 864 1695 950 1639 998 c 0
 1583 1046 1504 1070 1402 1070 c 0
 1350 1070 1290 1060 1223 1041 c 0x6b80
 1156 1022 1109 994 1082 957 c 1x6780
713 226 m 1
 711 223 l 1x6780
 743 260 770 320 792 402 c 0
 814 484 825 563 825 640 c 1
 633 640 487 617 388 571 c 0
 289 525 239 453 239 355 c 0
 239 294 260 237 302 184 c 0
 344 131 399 104 466 104 c 0
 517 104 563 115 604 137 c 0x9780
 645 159 681 189 713 226 c 1
878 279 m 1
 875 279 l 1x6780
 838 170 779 91 699 42 c 0
 619 -7 528 -32 427 -32 c 0
 328 -32 246 8 181 88 c 0
 116 168 83 258 83 357 c 0
 83 421 104 484 145 545 c 0
 186 606 233 653 286 685 c 0
 339 717 404 739 480 751 c 0
 556 763 655 772 777 777 c 1
 814 779 l 1
 810 810 803 853 794 907 c 0
 785 961 773 995 759 1010 c 0
 737 1033 705 1049 664 1058 c 0
 623 1067 578 1072 530 1072 c 0
 483 1072 428 1059 365 1034 c 0
 302 1009 241 980 183 947 c 1
 129 1070 l 1
 200 1103 271 1132 341 1156 c 0
 411 1180 478 1192 541 1192 c 0
 632 1192 715 1178 789 1149 c 0x9780
 863 1120 914 1075 942 1014 c 1
 986 1075 1050 1122 1135 1154 c 0
 1220 1186 1304 1202 1388 1202 c 0
 1462 1202 1536 1190 1609 1166 c 0x6b80
 1682 1142 1739 1106 1779 1058 c 1
 1818 1009 1845 952 1860 886 c 0
 1875 820 1882 746 1882 664 c 2
 1882 600 l 1
 985 600 l 1
 985 532 993 462 1009 389 c 0
 1025 316 1048 260 1079 220 c 0
 1110 179 1162 149 1235 129 c 0
 1308 109 1374 99 1434 99 c 0
 1486 99 1540 107 1595 123 c 0
 1650 139 1707 163 1766 194 c 1
 1817 76 l 1
 1748 43 1681 18 1616 0 c 0
 1551 -18 1488 -27 1427 -27 c 0
 1314 -27 1205 -2 1100 48 c 0
 995 98 921 175 878 279 c 1
EndSplineSet
EndChar

StartChar: oslash
Encoding: 248 248 165
Width: 1482
Flags: MW
HStem: -4 145<703.5 769.5 717.5 742 742 769.5 717.5 771> 1081 150
VStem: 124 146<610 615 615 641.5 610 646 640.5 641.5 610 651.5> 1212 144
LayerCount: 2
Fore
SplineSet
270 610 m 1
 267 612 l 1
 267 549 278 490 301 435 c 0
 324 380 358 330 403 284 c 1
 927 1041 l 1
 898 1054 868 1064 837 1071 c 0
 806 1078 774 1081 741 1081 c 0
 677 1081 617 1069 562 1045 c 0
 507 1021 456 986 410 940 c 0
 363 893 328 842 305 787 c 0
 282 732 270 673 270 610 c 1
1068 281 m 1
 1071 283 l 1
 1117 329 1152 380 1176 435 c 0
 1200 490 1212 550 1212 614 c 0
 1212 677 1200 736 1176 791 c 0
 1152 846 1117 897 1071 944 c 0
 1066 948 1061 952 1056 956 c 0
 1051 960 1046 964 1041 968 c 1
 511 201 l 1
 545 181 581 166 619 156 c 0
 657 146 697 141 738 141 c 0
 801 141 860 153 915 176 c 0
 970 199 1021 234 1068 281 c 1
1353 676 m 1
 1353 678 l 1
 1354 667 1355 656 1356 645 c 0
 1357 634 1357 624 1357 614 c 0
 1357 604 1357 594 1356 584 c 0
 1355 574 1354 564 1353 554 c 0
 1352 543 1350 532 1348 522 c 0
 1346 512 1344 502 1343 493 c 0
 1341 483 1339 473 1336 463 c 0
 1333 453 1330 443 1327 433 c 0
 1324 423 1321 413 1318 403 c 0
 1315 393 1312 384 1309 375 c 0
 1305 366 1301 357 1296 348 c 0
 1291 339 1287 330 1283 322 c 0
 1278 313 1273 304 1268 295 c 0
 1263 286 1258 278 1253 270 c 0
 1247 261 1241 253 1235 245 c 0
 1229 237 1223 229 1217 222 c 0
 1210 214 1203 206 1196 199 c 0
 1189 192 1183 185 1177 178 c 0
 1170 171 1163 164 1156 157 c 0
 1149 150 1142 144 1135 138 c 0
 1127 131 1119 125 1111 119 c 0
 1103 113 1095 107 1087 102 c 0
 1078 96 1069 90 1060 85 c 0
 1051 80 1043 75 1035 71 c 0
 1026 66 1017 61 1008 56 c 0
 999 51 990 47 981 44 c 0
 972 40 962 36 952 33 c 0
 942 30 932 27 922 24 c 0
 912 21 902 18 892 15 c 0
 882 12 872 10 863 9 c 0
 853 7 843 5 833 3 c 0
 823 1 813 -1 803 -2 c 0
 792 -3 781 -4 771 -4 c 0
 761 -4 751 -4 742 -4 c 0
 731 -4 720 -4 709 -4 c 0
 698 -4 688 -3 678 -2 c 0
 667 -1 656 1 646 3 c 0
 636 5 626 7 617 9 c 1
 607 10 597 12 587 15 c 0
 577 18 567 21 557 24 c 0
 547 27 537 30 528 33 c 0
 519 36 510 40 501 44 c 0
 492 47 483 51 474 56 c 0
 465 61 456 66 448 71 c 0
 445 72 442 74 439 76 c 0
 436 78 433 80 430 81 c 1
 329 -64 l 1
 216 13 l 1
 320 163 l 1
 317 165 314 167 311 170 c 0
 308 173 306 176 304 179 c 0
 297 186 290 193 283 200 c 0
 276 207 270 215 264 223 c 1
 257 230 251 238 245 246 c 0
 239 254 233 262 228 271 c 1
 222 279 216 287 211 296 c 0
 206 305 201 314 197 323 c 1
 192 331 187 340 183 349 c 0
 179 358 175 367 172 376 c 0
 168 385 164 394 160 404 c 0
 156 414 152 424 149 434 c 0
 146 444 143 454 141 464 c 0
 139 474 137 484 136 494 c 1
 134 503 132 513 130 523 c 0
 128 533 127 544 126 555 c 0
 125 565 124 575 124 585 c 0
 124 595 124 605 124 615 c 0
 124 625 124 635 124 646 c 0
 124 657 125 668 126 679 c 0
 127 689 128 699 130 709 c 0
 132 719 134 729 136 739 c 0
 137 748 139 758 141 768 c 0
 143 778 146 788 149 798 c 0
 152 808 156 818 160 827 c 0
 164 836 168 845 172 854 c 0
 175 863 179 872 183 881 c 0
 187 890 192 899 197 908 c 0
 201 916 206 924 211 933 c 0
 216 942 222 951 228 960 c 0
 233 968 239 976 245 984 c 0
 251 992 257 1000 264 1008 c 0
 270 1015 276 1022 283 1029 c 0
 290 1036 297 1043 304 1050 c 0
 310 1057 317 1064 324 1071 c 0
 331 1078 339 1085 347 1092 c 0
 354 1098 362 1104 370 1110 c 0
 378 1116 386 1122 395 1128 c 0
 403 1133 411 1138 420 1143 c 0
 429 1148 438 1153 447 1158 c 0
 455 1162 464 1166 473 1170 c 0
 482 1174 491 1178 500 1182 c 0
 509 1185 518 1189 527 1193 c 0
 536 1197 546 1201 556 1204 c 0
 566 1207 576 1210 586 1212 c 0
 596 1214 606 1216 616 1218 c 0
 625 1219 635 1221 645 1223 c 0
 655 1225 666 1227 677 1228 c 0
 687 1229 697 1230 708 1231 c 0
 719 1232 730 1232 741 1232 c 0
 750 1232 760 1232 770 1231 c 0
 780 1230 791 1229 802 1228 c 0
 812 1227 822 1225 832 1223 c 0
 842 1221 852 1219 862 1218 c 1
 871 1216 881 1214 891 1212 c 0
 901 1210 911 1207 921 1204 c 0
 931 1201 941 1197 951 1193 c 0
 961 1189 971 1185 980 1182 c 1
 985 1179 991 1176 997 1174 c 0
 1003 1172 1009 1169 1014 1166 c 1
 1113 1309 l 1
 1226 1232 l 1
 1129 1091 l 2
 1130 1091 1131 1091 1132 1090 c 0
 1133 1089 1134 1089 1135 1089 c 0
 1142 1082 1149 1075 1156 1068 c 0
 1163 1061 1170 1054 1177 1047 c 0
 1183 1040 1189 1033 1196 1026 c 0
 1203 1019 1210 1012 1217 1005 c 1
 1223 997 1229 989 1235 981 c 0
 1241 973 1247 965 1253 957 c 1
 1258 948 1263 939 1268 930 c 0
 1273 921 1278 913 1283 905 c 1
 1287 896 1291 887 1296 878 c 0
 1301 869 1305 860 1309 851 c 0
 1312 842 1315 833 1318 824 c 0
 1321 815 1324 805 1327 795 c 0
 1330 785 1333 775 1336 765 c 0
 1339 755 1341 745 1343 736 c 1
 1344 726 1346 716 1348 706 c 0
 1350 696 1352 686 1353 676 c 1
EndSplineSet
EndChar

StartChar: questiondown
Encoding: 191 191 166
Width: 936
Flags: MW
HStem: -338 126<503 527.5> 983 218<508.5 538>
VStem: 98 149<31.5 76 31.5 79.5> 416 218<1077.5 1107> 466 119<826 826> 759 141<27.5 57 27.5 57>
LayerCount: 2
Fore
SplineSet
416 1092 m 0xf4
 416 1122 427 1148 448 1169 c 0
 469 1190 494 1201 523 1201 c 0
 553 1201 579 1190 601 1169 c 0
 623 1148 634 1122 634 1092 c 0
 634 1063 623 1038 601 1016 c 0
 579 994 553 983 523 983 c 0
 494 983 469 994 448 1016 c 0
 427 1038 416 1063 416 1092 c 0xf4
500 -217 m 1
 503 -212 l 1
 582 -212 644 -186 690 -135 c 0
 736 -84 759 -20 759 57 c 1
 900 57 l 1
 900 -2 891 -56 873 -104 c 0
 855 -152 828 -194 793 -229 c 0
 758 -263 715 -290 665 -309 c 0
 615 -328 559 -338 496 -338 c 0
 371 -338 273 -303 203 -233 c 0
 133 -163 98 -68 98 51 c 0
 98 108 109 164 130 219 c 0
 151 274 183 326 226 375 c 2
 337 498 l 2
 380 547 412 599 433 654 c 0
 454 709 465 766 466 826 c 1
 585 826 l 1
 584 755 574 689 555 627 c 0xec
 536 565 506 510 465 461 c 2
 367 342 l 2
 327 294 297 246 277 199 c 0
 257 152 247 102 247 50 c 0
 247 13 253 -21 265 -53 c 0
 277 -85 294 -113 316 -138 c 0
 337 -163 363 -182 394 -196 c 0
 425 -210 460 -217 500 -217 c 1
EndSplineSet
EndChar

StartChar: exclamdown
Encoding: 161 161 167
Width: 575
Flags: MW
HStem: -311 1512<195 301 271.5 301 271.5 372> 983 218<271.5 301>
VStem: 177 218<1077.5 1107> 211.5 144.5
LayerCount: 2
Fore
SplineSet
395 1092 m 0x60
 395 1063 384 1038 363 1016 c 0
 342 994 316 983 286 983 c 0
 257 983 232 994 210 1016 c 0
 188 1038 177 1063 177 1092 c 0
 177 1122 188 1148 210 1169 c 0
 232 1190 257 1201 286 1201 c 0
 316 1201 342 1190 363 1169 c 0
 384 1148 395 1122 395 1092 c 0x60
195 -311 m 1x90
 228 823 l 1
 340 823 l 1
 372 -311 l 1
 195 -311 l 1x90
EndSplineSet
EndChar

StartChar: logicalnot
Encoding: 172 172 168
Width: 1196
Flags: MW
HStem: 682 131<195 879 195 1001>
VStem: 879 122<399 682 682 682>
LayerCount: 2
Fore
SplineSet
1001 813 m 1
 1001 399 l 1
 879 399 l 1
 879 682 l 1
 195 682 l 1
 195 813 l 1
 1001 813 l 1
EndSplineSet
EndChar

StartChar: florin
Encoding: 402 402 169
Width: 979
Flags: MW
HStem: 654 129<471 838 471 838> 1398 126<685 746.5 649.5 750>
VStem: 307 164<-464 654 -464 654 -464 654 784 1032>
LayerCount: 2
Fore
SplineSet
838 783 m 1
 838 654 l 1
 471 654 l 1
 471 -464 l 1
 307 -476 l 1
 307 654 l 1
 78 654 l 1
 78 784 l 1
 307 784 l 1
 307 1033 l 2
 307 1194 340 1316 405 1399 c 0
 470 1482 576 1524 723 1524 c 0
 770 1524 813 1519 852 1510 c 0
 891 1501 927 1487 959 1469 c 1
 916 1349 l 1
 891 1366 863 1378 832 1386 c 0
 801 1394 768 1398 732 1398 c 0
 638 1398 571 1367 531 1305 c 0
 491 1243 471 1152 471 1032 c 2
 471 783 l 1
 838 783 l 1
EndSplineSet
EndChar

StartChar: guillemotleft
Encoding: 171 171 170
Width: 913
Flags: MW
HStem: 301 717<367 367 367 731>
VStem: 96 701<344 705 344 705>
LayerCount: 2
Fore
SplineSet
461 705 m 1
 731 1018 l 1
 797 971 l 1
 604 657 l 1
 797 344 l 1
 731 301 l 1
 461 610 l 1
 461 705 l 1
96 705 m 1
 367 1018 l 1
 432 971 l 1
 242 657 l 1
 432 344 l 1
 367 301 l 1
 96 610 l 1
 96 705 l 1
EndSplineSet
EndChar

StartChar: guillemotright
Encoding: 187 187 171
Width: 913
Flags: MW
HStem: 301 717<164 164 164 526>
VStem: 96 701<344 705 610 971>
LayerCount: 2
Fore
SplineSet
289 657 m 1
 96 971 l 1
 164 1018 l 1
 432 705 l 1
 432 610 l 1
 164 301 l 1
 96 344 l 1
 289 657 l 1
653 657 m 1
 461 971 l 1
 526 1018 l 1
 797 705 l 1
 797 610 l 1
 526 301 l 1
 461 344 l 1
 653 657 l 1
EndSplineSet
EndChar

StartChar: ellipsis
Encoding: 8230 8230 172
Width: 1610
Flags: MW
HStem: -21 226<255 285 255 285.5> -21 230 -17 226<1326 1356 1326 1356.5>
VStem: 159 1297<79 94 79 105.5> 694 226<77 92 92 94 77 107.5>
LayerCount: 2
Fore
SplineSet
1454 96 m 1x50
 1456 94 l 1x50
 1456 64 1445 38 1422 16 c 0
 1399 -6 1372 -17 1341 -17 c 0
 1311 -17 1285 -6 1263 16 c 0
 1241 38 1230 64 1230 94 c 0
 1230 125 1241 152 1263 175 c 0
 1285 198 1311 209 1341 209 c 0
 1371 209 1397 198 1420 175 c 0x30
 1443 152 1454 126 1454 96 c 1x50
920 94 m 2x28
 920 92 l 2
 920 62 909 36 886 14 c 0
 863 -8 836 -19 805 -19 c 0
 775 -19 749 -8 727 14 c 0
 705 36 694 62 694 92 c 0
 694 123 705 150 728 173 c 0
 751 196 777 207 807 207 c 0
 837 207 863 196 886 173 c 0
 909 150 920 124 920 94 c 2x28
383 92 m 1
 385 90 l 1x28
 385 60 374 34 351 12 c 0
 328 -10 301 -21 270 -21 c 0
 240 -21 214 -10 192 12 c 0
 170 34 159 60 159 90 c 0
 159 121 170 148 192 171 c 0
 214 194 240 205 270 205 c 0
 300 205 326 194 349 171 c 0x90
 372 148 383 122 383 92 c 1
EndSplineSet
EndChar

StartChar: Agrave
Encoding: 192 192 173
Width: 1317
Flags: MW
HStem: 0 137<-19 83 -19 145 -19 83> 459 127<393 898 393 939 352 898> 1341 154<640 651 640 640> 1646 254<393 780 393 633>
VStem: -19 613 393 913<0 586>
LayerCount: 2
Fore
SplineSet
780 1646 m 1xf8
 633 1646 l 1
 393 1900 l 1xf4
 594 1900 l 1
 780 1646 l 1xf8
898 586 m 1
 651 1341 l 1
 640 1341 l 1
 393 586 l 1
 898 586 l 1
218 53 m 2
 212 36 203 23 191 14 c 0
 179 5 164 0 145 0 c 2
 -19 0 l 1
 -19 137 l 1xf8
 83 137 l 1
 536 1495 l 1
 753 1495 l 1
 1208 136 l 1
 1306 136 l 1
 1306 0 l 1
 1146 0 l 2
 1127 0 1111 5 1099 14 c 0
 1087 23 1078 36 1072 53 c 2
 939 459 l 1
 352 459 l 1
 218 53 l 2
EndSplineSet
EndChar

StartChar: Atilde
Encoding: 195 195 174
Width: 1317
Flags: MW
HStem: -1 137<-21 81 -21 143 -21 81> 458 127<391 896 391 937 350 896> 1340 154<638 649 638 638> 1706 137<795.5 800 786.5 823.5> 1780 135<516 519 492.5 530.5>
VStem: -21 905 884 420
LayerCount: 2
Fore
SplineSet
981 1903 m 1xf4
 979 1902 l 1
 962 1837 939 1788 910 1755 c 0
 881 1722 845 1706 802 1706 c 0
 789 1706 768 1710 740 1718 c 0
 712 1726 683 1735 654 1745 c 0xf4
 625 1754 598 1762 573 1769 c 0
 548 1776 533 1780 528 1780 c 0
 504 1780 484 1773 468 1758 c 0
 452 1743 440 1721 432 1692 c 1
 335 1721 l 1
 353 1786 377 1835 407 1867 c 0
 437 1899 472 1915 513 1915 c 0
 525 1915 545 1911 574 1904 c 0
 603 1897 632 1889 662 1880 c 0xec
 692 1870 719 1861 744 1854 c 0
 769 1847 784 1843 789 1843 c 0
 811 1843 830 1851 846 1866 c 0
 862 1881 875 1904 884 1934 c 1xf2
 981 1903 l 1xf4
896 585 m 1
 649 1340 l 1
 638 1340 l 1
 391 585 l 1
 896 585 l 1
216 52 m 2
 210 35 201 22 189 13 c 0
 177 4 162 -1 143 -1 c 2
 -21 -1 l 1
 -21 136 l 1xf4
 81 136 l 1
 534 1494 l 1
 751 1494 l 1
 1206 135 l 1
 1304 135 l 1
 1304 -1 l 1xf2
 1144 -1 l 2
 1125 -1 1109 4 1097 13 c 0
 1085 22 1076 35 1070 52 c 2
 937 458 l 1
 350 458 l 1
 216 52 l 2
EndSplineSet
EndChar

StartChar: Otilde
Encoding: 213 213 175
Width: 1448
Flags: MW
HStem: -1 141<731 898.5 731 921> 1384 142<731 898.5> 1706 137<861.5 866 852.5 889.5> 1780 135<582 585 558.5 596.5>
VStem: 49 156<680.5 859.5 680.5 878.5> 1426 155<680.5 859.5>
LayerCount: 2
Fore
SplineSet
1047 1903 m 1xec
 1045 1902 l 1
 1028 1837 1005 1788 976 1755 c 0
 947 1722 911 1706 868 1706 c 0
 855 1706 834 1710 806 1718 c 0
 778 1726 749 1735 720 1745 c 0xec
 691 1754 664 1762 639 1769 c 0
 614 1776 599 1780 594 1780 c 0
 570 1780 550 1773 534 1758 c 0
 518 1743 506 1721 498 1692 c 1
 401 1721 l 1
 419 1786 443 1835 473 1867 c 0
 503 1899 538 1915 579 1915 c 0
 591 1915 611 1911 640 1904 c 0
 669 1897 698 1889 728 1880 c 0xdc
 758 1870 785 1861 810 1854 c 0
 835 1847 850 1843 855 1843 c 0
 877 1843 896 1851 912 1866 c 0
 928 1881 941 1904 950 1934 c 1
 1047 1903 l 1xec
49 771 m 0
 49 986 123 1166 272 1310 c 0
 421 1454 602 1526 815 1526 c 0
 1027 1526 1208 1454 1357 1310 c 0
 1506 1166 1581 986 1581 771 c 0
 1581 552 1506 369 1357 221 c 0
 1208 73 1027 -1 815 -1 c 0
 602 -1 421 73 272 221 c 0
 123 369 49 552 49 771 c 0
205 771 m 0
 205 590 265 440 384 320 c 0
 503 200 647 140 815 140 c 0
 982 140 1126 200 1246 320 c 0
 1366 440 1426 590 1426 771 c 0
 1426 948 1366 1094 1246 1210 c 0
 1126 1326 982 1384 815 1384 c 0
 647 1384 503 1326 384 1210 c 0
 265 1094 205 948 205 771 c 0
EndSplineSet
EndChar

StartChar: OE
Encoding: 338 338 176
Width: 1974
Flags: MW
HStem: -26 122<679.5 742> 3 112<1111 1705 1111 1764> 707 108<1327 1711 1322 1714 1327 1327> 1383 112<1110 1683 1110 1110> 1399 125<679.5 742 679.5 791.5>
VStem: 131 158<748 812> 1160 162<815 815 815 851> 1684 122 1706 122
LayerCount: 2
Fore
SplineSet
289 748 m 1x77
 290 748 l 1x77
 290 537 328 376 404 264 c 0
 480 152 587 96 724 96 c 0
 802 96 869 115 924 152 c 0
 979 189 1024 238 1059 299 c 0
 1094 360 1120 430 1136 508 c 0
 1152 586 1160 666 1160 748 c 0
 1160 954 1121 1114 1044 1228 c 0
 967 1342 860 1399 723 1399 c 0xaf
 588 1399 482 1343 405 1231 c 0
 328 1119 289 958 289 748 c 1x77
1711 815 m 1
 1714 707 l 1
 1327 707 l 1
 1323 575 1303 460 1267 361 c 0
 1231 262 1179 180 1111 115 c 1
 1705 115 l 1
 1707 275 l 1
 1828 275 l 1
 1828 67 l 2
 1828 46 1823 30 1812 19 c 0
 1801 8 1785 3 1764 3 c 2
 918 3 l 1x7680
 886 -6 854 -13 822 -18 c 0
 790 -23 758 -26 726 -26 c 0
 633 -26 550 -9 476 25 c 0
 402 59 340 109 289 175 c 0
 238 241 199 322 172 418 c 0
 145 514 131 625 131 750 c 0
 131 874 145 984 172 1080 c 0
 199 1176 238 1257 289 1323 c 0
 340 1389 402 1439 476 1473 c 0
 550 1507 633 1524 726 1524 c 0
 758 1524 790 1522 822 1517 c 0xaf
 854 1512 886 1505 918 1495 c 1
 1744 1495 l 2
 1765 1495 1781 1490 1791 1480 c 0
 1801 1470 1806 1454 1806 1433 c 2
 1806 1218 l 1
 1685 1218 l 1
 1683 1383 l 1
 1110 1383 l 1
 1175 1322 1225 1244 1260 1150 c 0
 1295 1056 1316 944 1322 815 c 1
 1711 815 l 1
EndSplineSet
EndChar

StartChar: oe
Encoding: 339 339 177
Width: 2068
Flags: MW
HStem: -27 126<1455 1536> 552 118 1079 121<574 683 553.5 683.5>
VStem: 128 160<561.5 676.5 561.5 694> 986 162 1792 160<551 732>
LayerCount: 2
Fore
SplineSet
1952 551 m 1
 1149 553 l 1
 1147 524 l 1
 1156 389 1191 284 1251 210 c 0
 1311 136 1398 99 1511 99 c 0
 1562 99 1615 107 1671 122 c 0
 1727 137 1785 160 1846 191 c 1
 1897 73 l 1
 1828 40 1761 15 1696 -2 c 0
 1631 -19 1567 -27 1505 -27 c 0
 1405 -27 1319 -7 1247 33 c 0
 1175 73 1117 133 1073 213 c 1
 1031 133 974 73 901 33 c 0
 828 -7 740 -27 637 -27 c 0
 560 -27 491 -12 429 17 c 0
 367 46 314 88 270 142 c 0
 225 196 190 262 165 339 c 0
 140 416 128 502 128 597 c 0
 128 791 171 940 258 1044 c 0
 345 1148 471 1200 636 1200 c 0
 730 1200 814 1178 887 1134 c 0
 960 1090 1019 1028 1064 949 c 1
 1106 1033 1162 1096 1232 1138 c 0
 1302 1180 1387 1201 1486 1201 c 0
 1559 1201 1625 1188 1683 1161 c 0
 1741 1134 1790 1097 1830 1049 c 1
 1869 1000 1899 942 1920 875 c 0
 1941 808 1952 733 1952 651 c 2
 1952 551 l 1
1242 959 m 1
 1242 962 l 1
 1215 925 1194 881 1180 831 c 0
 1166 781 1156 727 1151 670 c 1
 1792 670 l 1
 1792 794 1765 893 1710 967 c 0
 1655 1041 1577 1078 1475 1078 c 0
 1423 1078 1378 1067 1340 1046 c 0
 1302 1025 1269 996 1242 959 c 1
645 101 m 1
 643 100 l 1
 754 100 839 142 898 226 c 0
 957 310 986 429 986 582 c 0
 986 737 954 859 890 947 c 0
 826 1035 739 1079 628 1079 c 0
 520 1079 436 1037 377 954 c 0
 318 871 288 753 288 600 c 0
 288 523 297 454 314 393 c 0
 331 332 355 280 386 237 c 0
 417 193 455 159 499 136 c 0
 543 113 592 101 645 101 c 1
EndSplineSet
EndChar

StartChar: endash
Encoding: 8211 8211 178
Width: 1174
Flags: MW
HStem: 594 113<135 1036 135 1036>
VStem: 135 901<594 707 594 707>
LayerCount: 2
Fore
SplineSet
1036 707 m 1
 1036 594 l 1
 135 594 l 1
 135 707 l 1
 1036 707 l 1
EndSplineSet
EndChar

StartChar: emdash
Encoding: 8212 8212 179
Width: 1855
Flags: MW
HStem: 594 113<135 1718 135 1718>
VStem: 135 1583<594 707 594 707>
LayerCount: 2
Fore
SplineSet
1718 707 m 1
 1718 594 l 1
 135 594 l 1
 135 707 l 1
 1718 707 l 1
EndSplineSet
EndChar

StartChar: quotedblleft
Encoding: 8220 8220 180
Width: 811
Flags: MW
HStem: 1085 492<181.5 665>
VStem: 92 212<1173.5 1198.5 1173 1207.5> 92 620<1173.5 1520> 427 213<1176 1201.5 1176 1209.5>
LayerCount: 2
Fore
SplineSet
532 1090 m 1xa0
 530 1087 l 1xa0
 497 1087 472 1097 454 1117 c 0
 436 1137 427 1161 427 1190 c 0
 427 1229 434 1267 447 1304 c 0
 460 1341 478 1376 500 1409 c 0
 522 1442 547 1472 575 1500 c 0
 603 1528 633 1554 665 1577 c 1
 712 1520 l 1
 680 1490 656 1459 640 1428 c 0
 624 1397 616 1365 616 1332 c 0
 616 1313 620 1291 628 1265 c 0
 636 1239 640 1214 640 1189 c 0
 640 1163 631 1140 613 1120 c 0x90
 595 1100 568 1090 532 1090 c 1xa0
199 1087 m 1
 198 1085 l 1xa0
 165 1085 139 1095 120 1115 c 0
 101 1135 92 1159 92 1188 c 0
 92 1227 99 1265 112 1302 c 0
 125 1339 143 1374 165 1407 c 0
 187 1440 212 1470 240 1498 c 0
 268 1526 298 1552 329 1575 c 1
 378 1518 l 1
 345 1487 320 1456 304 1425 c 0
 288 1394 280 1362 280 1329 c 0
 280 1310 284 1288 292 1262 c 0
 300 1236 304 1211 304 1186 c 0
 304 1160 295 1137 277 1117 c 0xc0
 259 1097 233 1087 199 1087 c 1
EndSplineSet
EndChar

StartChar: quotedblright
Encoding: 8221 8221 181
Width: 811
Flags: MW
HStem: 1077 492<144 276 259.5 476>
VStem: 95 617<1137 1480.5> 169 211<1456 1480.5 1430.5 1481.5> 501 211<1454 1479.5>
LayerCount: 2
Fore
SplineSet
276 1569 m 1xc0
 276 1567 l 1xc0
 309 1567 335 1557 353 1538 c 0
 371 1519 380 1495 380 1466 c 0
 380 1395 360 1327 321 1262 c 0
 282 1197 223 1135 144 1077 c 1
 95 1137 l 1
 128 1168 153 1199 169 1230 c 0
 185 1261 193 1292 193 1323 c 0
 193 1342 189 1365 181 1392 c 0
 173 1419 169 1444 169 1468 c 0
 169 1495 179 1519 198 1539 c 0xa0
 217 1559 243 1569 276 1569 c 1xc0
608 1567 m 2
 607 1567 l 2xc0
 641 1567 667 1557 685 1538 c 0
 703 1519 712 1495 712 1466 c 0
 712 1395 692 1327 653 1262 c 0
 614 1197 555 1135 476 1077 c 1
 429 1137 l 1
 461 1167 485 1197 501 1228 c 0
 517 1259 525 1290 525 1321 c 0
 525 1340 521 1363 513 1390 c 0
 505 1417 501 1442 501 1466 c 0
 501 1493 511 1517 530 1537 c 0x90
 549 1557 575 1567 608 1567 c 2
EndSplineSet
EndChar

StartChar: quoteleft
Encoding: 8216 8216 182
Width: 477
Flags: MW
HStem: 1088 490<183.5 331>
VStem: 94 212<1176.5 1201.5 1176 1210.5> 94 286
LayerCount: 2
Fore
SplineSet
201 1090 m 1xa0
 200 1088 l 1xa0
 167 1088 141 1098 122 1118 c 0
 103 1138 94 1162 94 1191 c 0
 94 1230 101 1268 114 1305 c 0
 127 1342 145 1377 167 1410 c 0
 189 1443 214 1473 242 1501 c 0
 270 1529 300 1555 331 1578 c 1
 380 1521 l 1
 347 1490 322 1459 306 1428 c 0
 290 1397 282 1365 282 1332 c 0
 282 1313 286 1291 294 1265 c 0
 302 1239 306 1214 306 1189 c 0
 306 1163 297 1140 279 1120 c 0xc0
 261 1100 235 1090 201 1090 c 1xa0
EndSplineSet
EndChar

StartChar: quoteright
Encoding: 8217 8217 183
Width: 477
Flags: MW
HStem: 1077 492<144 276>
VStem: 95 285 169 211<1456 1480.5 1430.5 1481.5>
LayerCount: 2
Fore
SplineSet
276 1569 m 1xc0
 276 1567 l 1xc0
 309 1567 335 1557 353 1538 c 0
 371 1519 380 1495 380 1466 c 0
 380 1395 360 1327 321 1262 c 0
 282 1197 223 1135 144 1077 c 1
 95 1137 l 1
 128 1168 153 1199 169 1230 c 0
 185 1261 193 1292 193 1323 c 0
 193 1342 189 1365 181 1392 c 0
 173 1419 169 1444 169 1468 c 0
 169 1495 179 1519 198 1539 c 0xa0
 217 1559 243 1569 276 1569 c 1xc0
EndSplineSet
EndChar

StartChar: divide
Encoding: 247 247 184
Width: 1196
Flags: MW
HStem: 264 226<583 613> 680 131<195 1001 195 1001> 1003 226<583 613>
VStem: 195 806<680 811 680 811> 485 226<362 390.5 1099 1114 1114 1116>
LayerCount: 2
Fore
SplineSet
711 1116 m 2x68
 711 1114 l 2
 711 1084 700 1058 677 1036 c 0
 654 1014 628 1003 598 1003 c 0
 568 1003 542 1014 519 1036 c 0
 496 1058 485 1084 485 1114 c 0
 485 1145 496 1172 519 1195 c 0
 542 1218 568 1229 598 1229 c 0
 628 1229 654 1218 677 1195 c 0
 700 1172 711 1146 711 1116 c 2x68
1001 811 m 1xd0
 1001 680 l 1
 195 680 l 1
 195 811 l 1
 1001 811 l 1xd0
711 377 m 0
 711 347 700 321 677 298 c 0
 654 275 628 264 598 264 c 0
 568 264 542 275 519 297 c 0
 496 319 485 345 485 375 c 0
 485 406 496 433 519 456 c 0
 542 479 568 490 598 490 c 0
 628 490 654 479 677 456 c 0
 700 433 711 407 711 377 c 0
EndSplineSet
EndChar

StartChar: ydieresis
Encoding: 255 255 185
Width: 1219
Flags: MW
HStem: -503 133<315.5 321 305 334.5> 946 136<39 139 39 202>
VStem: 39 1140<946 1081 945 1082 945 1082> 61 413 689 206<1458.5 1478.5>
LayerCount: 2
Fore
SplineSet
792 1364 m 1x58
 792 1363 l 1
 779 1363 766 1366 754 1371 c 0
 742 1376 731 1384 720 1394 c 0
 710 1404 702 1415 697 1427 c 0
 692 1439 689 1452 689 1465 c 0
 689 1492 699 1516 720 1537 c 0
 741 1558 765 1568 792 1568 c 0
 819 1568 843 1558 864 1537 c 0
 885 1516 895 1492 895 1465 c 0
 895 1438 885 1414 864 1394 c 0
 843 1374 819 1364 792 1364 c 1x58
373 1363 m 1
 373 1362 l 1
 360 1362 347 1365 335 1370 c 0
 323 1375 312 1383 301 1393 c 0
 291 1403 283 1414 278 1426 c 0
 273 1438 270 1451 270 1464 c 0
 270 1491 280 1515 301 1536 c 0
 322 1557 346 1567 373 1567 c 0
 400 1567 424 1557 444 1536 c 0
 464 1515 474 1491 474 1464 c 0
 474 1437 464 1413 444 1393 c 0
 424 1373 400 1363 373 1363 c 1
1017 1082 m 2
 1179 1081 l 1
 1179 945 l 1
 1079 945 l 1x60
 645 -223 l 2
 636 -250 626 -275 616 -297 c 0
 606 -319 596 -339 586 -356 c 0
 577 -373 567 -389 556 -403 c 0
 545 -417 533 -430 521 -441 c 0
 509 -452 496 -461 482 -469 c 0
 468 -477 454 -484 439 -489 c 0
 424 -494 406 -498 385 -500 c 0
 364 -502 344 -503 325 -503 c 0
 306 -503 283 -499 256 -491 c 0
 229 -483 206 -477 188 -472 c 0
 171 -467 149 -459 123 -448 c 0
 97 -437 76 -427 61 -418 c 1
 106 -300 l 1
 119 -307 136 -315 158 -324 c 0xd8
 180 -333 197 -340 210 -344 c 0
 223 -347 240 -352 261 -359 c 0
 282 -366 299 -370 311 -370 c 0
 331 -370 352 -367 373 -362 c 0
 394 -357 412 -349 426 -338 c 0
 440 -327 453 -313 465 -297 c 0
 477 -281 486 -262 492 -241 c 2
 558 -22 l 1
 139 946 l 1
 39 946 l 1
 39 1082 l 1xe0
 202 1082 l 2
 212 1082 221 1081 229 1079 c 0
 237 1077 244 1074 250 1070 c 0
 256 1066 261 1060 266 1053 c 0
 271 1046 275 1038 278 1029 c 2
 629 150 l 1
 941 1029 l 2
 944 1038 948 1046 953 1053 c 0
 958 1060 963 1066 969 1070 c 0
 975 1074 982 1077 990 1079 c 0
 998 1081 1007 1082 1017 1082 c 2
EndSplineSet
EndChar

StartChar: Ydieresis
Encoding: 376 376 186
Width: 1288
Flags: MW
HStem: 1356 137<37 173 37 249 1164 1164 1164 1300>
VStem: 37 1263<1356 1493 1356 1493> 248 204<1781.5 1801.5> 595 167.5 667 95
LayerCount: 2
Fore
SplineSet
770 1688 m 1x90
 770 1687 l 1x90
 757 1687 744 1690 732 1695 c 0
 720 1700 709 1708 698 1718 c 0
 688 1728 680 1739 675 1751 c 0
 670 1763 667 1776 667 1789 c 0
 667 1816 677 1840 698 1861 c 0x88
 719 1882 743 1892 770 1892 c 0
 797 1892 821 1882 842 1861 c 0
 863 1840 873 1816 873 1789 c 0
 873 1762 863 1738 842 1718 c 0
 821 1698 797 1688 770 1688 c 1x90
351 1687 m 1
 351 1686 l 1x90
 338 1686 325 1689 313 1694 c 0
 301 1699 290 1707 279 1717 c 0
 269 1727 261 1738 256 1750 c 0
 251 1762 248 1775 248 1788 c 0
 248 1815 258 1839 279 1860 c 0
 300 1881 324 1891 351 1891 c 0
 378 1891 402 1881 422 1860 c 0
 442 1839 452 1815 452 1788 c 0
 452 1761 442 1737 422 1717 c 0xb0
 402 1697 378 1687 351 1687 c 1
763 535 m 1
 762 -2 l 1
 595 -2 l 1
 595 528 l 1x90
 173 1356 l 1
 37 1356 l 1
 37 1493 l 1
 249 1493 l 2
 268 1493 284 1489 297 1481 c 0
 310 1473 319 1461 325 1445 c 1
 678 708 l 1
 1012 1445 l 2
 1019 1461 1029 1473 1042 1481 c 0
 1055 1489 1071 1493 1090 1493 c 2
 1300 1493 l 1
 1300 1356 l 1xc0
 1164 1356 l 1
 763 535 l 1
EndSplineSet
EndChar

StartChar: fraction
Encoding: 8260 8260 187
Width: 618
Flags: MW
HStem: -135 1763<0 618 0 618>
VStem: 0 618
LayerCount: 2
Fore
SplineSet
618 1628 m 1
 127 -135 l 1
 0 -135 l 1
 492 1628 l 1
 618 1628 l 1
EndSplineSet
EndChar

StartChar: currency
Encoding: 164 164 188
Width: 1278
Flags: MW
HStem: 317 137<616.5 657.5 616.5 662> 1041 137<616.5 655.5>
VStem: 207 137<726.5 767.5 726.5 772> 930 138<726.5 766.5>
LayerCount: 2
Fore
SplineSet
1221 1235 m 1
 986 999 l 1
 1013 962 1033 922 1047 880 c 0
 1061 838 1068 793 1068 746 c 0
 1068 701 1061 657 1047 615 c 0
 1033 573 1012 533 984 495 c 1
 1220 261 l 1
 1125 167 l 1
 890 400 l 1
 854 373 815 352 773 338 c 0
 731 324 686 317 638 317 c 0
 591 317 546 324 504 338 c 0
 462 352 423 373 386 400 c 1
 151 167 l 1
 56 261 l 1
 290 495 l 1
 263 532 242 572 228 614 c 0
 214 656 207 701 207 748 c 0
 207 796 214 841 228 883 c 0
 242 925 263 964 290 1000 c 1
 56 1236 l 1
 151 1330 l 1
 384 1095 l 1
 421 1122 461 1143 505 1157 c 0
 549 1171 594 1178 639 1178 c 0
 686 1178 731 1171 773 1157 c 0
 815 1143 855 1122 893 1094 c 1
 1126 1329 l 1
 1221 1235 l 1
842 953 m 2
 840 955 l 2
 813 982 782 1003 747 1018 c 0
 712 1033 675 1041 636 1041 c 0
 597 1041 560 1033 525 1018 c 0
 490 1003 459 982 432 956 c 0
 405 930 384 899 368 863 c 0
 352 827 344 788 344 747 c 0
 344 706 352 668 367 633 c 0
 382 598 403 567 430 540 c 0
 457 513 488 492 523 477 c 0
 558 462 596 454 637 454 c 0
 678 454 716 462 751 478 c 0
 786 494 817 515 844 542 c 0
 871 569 892 600 907 635 c 0
 922 670 930 707 930 746 c 0
 930 787 922 825 906 860 c 0
 890 895 869 926 842 953 c 2
EndSplineSet
EndChar

StartChar: guilsinglleft
Encoding: 8249 8249 189
Width: 549
Flags: MW
HStem: 301 717<367 367>
VStem: 96 372<610 920 705 920>
LayerCount: 2
Fore
SplineSet
96 705 m 1
 367 1018 l 1
 468 920 l 1
 242 657 l 1
 465 403 l 1
 367 301 l 1
 96 610 l 1
 96 705 l 1
EndSplineSet
EndChar

StartChar: guilsinglright
Encoding: 8250 8250 190
Width: 549
Flags: MW
HStem: 301 717<164 164>
VStem: 63 369<396 705>
LayerCount: 2
Fore
SplineSet
289 657 m 1
 66 951 l 1
 164 1018 l 1
 432 705 l 1
 432 610 l 1
 164 301 l 1
 63 396 l 1
 289 657 l 1
EndSplineSet
EndChar

StartChar: daggerdbl
Encoding: 8225 8225 191
Width: 905
Flags: MW
HStem: 324 137<39 375 39 375 530 866> 1034 137<39 375 39 375>
VStem: 375 155<0 324 0 324 461 1034 1171 1495>
LayerCount: 2
Fore
SplineSet
866 1034 m 1
 530 1034 l 1
 530 461 l 1
 866 461 l 1
 866 324 l 1
 530 324 l 1
 530 0 l 1
 375 0 l 1
 375 324 l 1
 39 324 l 1
 39 461 l 1
 375 461 l 1
 375 1034 l 1
 39 1034 l 1
 39 1171 l 1
 375 1171 l 1
 375 1495 l 1
 530 1495 l 1
 530 1171 l 1
 866 1169 l 1
 866 1034 l 1
EndSplineSet
EndChar

StartChar: periodcentered
Encoding: 183 183 192
Width: 537
Flags: MW
HStem: 518 226<266 282.5>
VStem: 155 226<623.5 645.5 617.5 646.5>
LayerCount: 2
Fore
SplineSet
266 518 m 1
 265 519 l 1
 250 519 236 522 223 528 c 0
 210 534 198 542 187 553 c 0
 176 564 168 576 163 589 c 0
 158 602 155 616 155 631 c 0
 155 662 167 689 191 711 c 0
 215 733 241 744 268 744 c 0
 297 744 323 732 346 709 c 0
 369 686 381 660 381 631 c 0
 381 604 370 578 348 554 c 0
 326 530 299 518 266 518 c 1
EndSplineSet
EndChar

StartChar: quotesinglbase
Encoding: 8218 8218 193
Width: 537
Flags: MW
HStem: -281 491<149 280.5>
VStem: 97 274
LayerCount: 2
Fore
SplineSet
279 209 m 1
 277 210 l 1
 284 210 291 208 299 205 c 0
 307 202 312 200 315 200 c 1
 334 189 348 175 357 159 c 0
 366 143 371 124 371 103 c 2
 371 89 l 1
 368 63 364 37 359 11 c 0
 354 -15 344 -42 329 -69 c 2
 312 -99 l 2
 301 -117 289 -135 276 -153 c 0
 263 -171 247 -190 228 -209 c 2
 192 -246 l 1
 149 -281 l 1
 97 -223 l 1
 122 -199 l 1
 149 -162 168 -133 178 -113 c 0
 188 -93 191 -70 188 -45 c 1
 186 -16 l 1
 183 -13 181 -9 180 -4 c 0
 179 1 178 6 177 11 c 0
 176 14 175 17 175 20 c 0
 175 23 175 26 175 29 c 2
 169 49 l 2
 168 54 166 60 163 66 c 0
 160 72 159 80 159 91 c 0
 159 100 161 112 165 126 c 0
 169 140 177 158 189 180 c 1
 228 203 l 1
 232 205 l 1
 235 205 238 205 240 205 c 0
 242 205 243 206 244 207 c 2
 279 209 l 1
EndSplineSet
EndChar

StartChar: quotedblbase
Encoding: 8222 8222 194
Width: 870
Flags: MW
HStem: -283 493<150 613>
VStem: 98 609<-225 101> 160 212 499 207
LayerCount: 2
Fore
SplineSet
678 180 m 1xc0
 691 162 l 1
 690 159 693 153 699 145 c 0
 705 137 708 122 707 101 c 2
 705 60 l 1
 701 35 695 10 687 -15 c 0
 679 -40 668 -65 655 -90 c 1
 616 -150 l 2
 611 -157 606 -164 601 -171 c 0
 596 -178 590 -185 583 -192 c 2
 529 -245 l 1
 486 -280 l 1
 435 -222 l 1
 436 -220 438 -218 441 -215 c 0
 444 -212 448 -209 452 -206 c 0
 471 -188 486 -168 496 -147 c 0
 506 -126 516 -102 525 -75 c 1
 525 -65 l 1
 526 -63 527 -60 527 -56 c 0
 527 -52 527 -48 527 -43 c 2
 525 -14 l 1
 522 -10 519 -3 516 6 c 0
 513 15 510 25 507 36 c 0
 504 47 502 58 501 68 c 0
 500 78 499 86 499 91 c 2
 499 103 l 2
 499 115 501 127 504 138 c 0
 507 149 512 160 519 171 c 1
 538 189 l 1
 550 202 562 208 573 208 c 0xb0
 584 208 594 209 603 210 c 1
 613 210 l 1
 627 207 638 205 645 204 c 0
 652 203 663 195 678 180 c 1xc0
261 209 m 2
 263 209 l 2
 282 209 297 207 307 202 c 0
 317 197 323 195 324 195 c 0
 337 188 348 178 356 164 c 0
 364 150 370 132 373 111 c 1
 371 61 l 1
 368 50 364 34 360 12 c 0
 356 -10 344 -41 325 -81 c 1
 314 -101 l 2
 311 -105 307 -113 301 -125 c 0
 295 -137 286 -151 274 -167 c 1
 261 -182 245 -200 225 -220 c 0
 205 -240 180 -261 150 -283 c 1
 98 -225 l 1
 123 -201 l 1
 150 -164 168 -135 176 -115 c 0
 184 -95 188 -72 188 -47 c 2
 188 -33 l 1
 178 14 l 1
 170 35 165 50 163 60 c 0
 161 70 160 78 160 85 c 0
 160 114 167 142 180 169 c 0
 193 196 220 209 261 209 c 2
EndSplineSet
EndChar

StartChar: perthousand
Encoding: 8240 8240 195
Width: 2423
Flags: MW
HStem: -24 98<1236 1267> -21 96<1970 2002> 698 102<1229.5 1284> 699 104<1965.5 2020> 713 99<403 435> 1436 100<398.5 453>
VStem: 124 131<1081.5 1178.5 1081.5 1198> 601 133<1071.5 1168.5> 955 131<392 440 392 460.5> 1026 241 1434 132<333.5 430> 1691 131<343 392 392 393 343 463.5> 2168 133<334.5 431>
LayerCount: 2
Fore
SplineSet
1153 1628 m 1x67b8
 662 -135 l 1
 535 -135 l 1
 1026 1628 l 1x4f48
 1153 1628 l 1x67b8
434 715 m 1
 435 713 l 1
 340 713 264 751 208 827 c 0
 152 903 124 1005 124 1134 c 0
 124 1262 150 1361 203 1431 c 0
 256 1501 329 1536 423 1536 c 0
 518 1536 594 1499 650 1425 c 0
 706 1351 734 1248 734 1117 c 0
 734 989 708 890 656 820 c 0
 604 750 530 715 434 715 c 1
255 1131 m 0
 255 1032 271 954 303 897 c 0
 335 840 377 812 429 812 c 0
 486 812 529 838 558 890 c 0
 587 942 601 1020 601 1123 c 0
 601 1214 586 1289 555 1348 c 0
 524 1407 481 1436 425 1436 c 0
 372 1436 330 1409 300 1355 c 0
 270 1301 255 1226 255 1131 c 0
2002 -18 m 1
 2002 -21 l 1x4f48
 1907 -21 1831 17 1775 93 c 0
 1719 169 1691 271 1691 399 c 0
 1691 528 1717 628 1769 698 c 0
 1821 768 1895 803 1990 803 c 0x1018
 2085 803 2161 766 2217 692 c 0
 2273 618 2301 515 2301 384 c 0
 2301 256 2275 157 2223 87 c 0
 2171 17 2097 -18 2002 -18 c 1
1267 -21 m 1
 1267 -24 l 1x4f48
 1171 -24 1095 14 1039 90 c 0
 983 166 955 268 955 396 c 0
 955 525 981 625 1034 695 c 0
 1087 765 1160 800 1254 800 c 0
 1350 800 1426 763 1482 689 c 0
 1538 615 1566 512 1566 381 c 0
 1566 253 1540 154 1488 84 c 0x60a0
 1436 14 1362 -21 1267 -21 c 1
1822 393 m 2x5098
 1822 392 l 2
 1822 294 1838 217 1870 160 c 0
 1902 103 1944 75 1996 75 c 0
 2053 75 2096 101 2125 153 c 0
 2154 205 2168 283 2168 386 c 0
 2168 476 2153 551 2122 610 c 0
 2091 669 2048 699 1992 699 c 0
 1939 699 1897 672 1867 618 c 0
 1837 564 1822 489 1822 393 c 2x5098
1086 392 m 1
 1088 391 l 1x5098
 1088 293 1104 216 1136 159 c 0
 1168 102 1210 74 1262 74 c 0
 1319 74 1362 100 1391 152 c 0
 1420 204 1434 282 1434 385 c 0
 1434 475 1418 550 1387 609 c 0
 1356 668 1312 698 1256 698 c 0
 1203 698 1161 671 1131 617 c 0xa0a0
 1101 563 1086 488 1086 392 c 1
EndSplineSet
EndChar

StartChar: Acircumflex
Encoding: 194 194 196
Width: 1317
Flags: MW
HStem: 0 137<-19 83 -19 145 -19 83> 459 127<393 898 393 939 352 898> 1341 154<640 651 640 640>
VStem: -19 677 615 691
LayerCount: 2
Fore
SplineSet
701 1983 m 1xf0
 953 1690 l 1
 887 1622 l 1
 658 1823 l 1xf0
 430 1622 l 1
 365 1690 l 1
 615 1983 l 1xe8
 701 1983 l 1xf0
898 586 m 1
 651 1341 l 1
 640 1341 l 1
 393 586 l 1
 898 586 l 1
218 53 m 2
 212 36 203 23 191 14 c 0
 179 5 164 0 145 0 c 2
 -19 0 l 1
 -19 137 l 1xf0
 83 137 l 1
 536 1495 l 1
 753 1495 l 1
 1208 136 l 1
 1306 136 l 1
 1306 0 l 1xe8
 1146 0 l 2
 1127 0 1111 5 1099 14 c 0
 1087 23 1078 36 1072 53 c 2
 939 459 l 1
 352 459 l 1
 218 53 l 2
EndSplineSet
EndChar

StartChar: Ecircumflex
Encoding: 202 202 197
Width: 1284
Flags: MW
HStem: 0 138<398 957 398 1029> 691 137<398 980 398 980> 1359 136<398 957 398 398>
VStem: 235 163<138 691 828 1358 1358 1358> 599 494 957 115<1223 1359 1359 1359>
LayerCount: 2
Fore
SplineSet
685 1983 m 1xf8
 937 1690 l 1
 871 1622 l 1
 642 1823 l 1
 414 1622 l 1
 349 1690 l 1
 599 1983 l 1
 685 1983 l 1xf8
99 1358 m 1
 99 1495 l 1
 1011 1495 l 2
 1032 1495 1047 1490 1057 1480 c 0
 1067 1470 1072 1454 1072 1433 c 2
 1072 1223 l 1
 957 1223 l 1
 957 1359 l 1xf4
 398 1359 l 1
 398 828 l 1
 980 828 l 1
 980 691 l 1
 398 691 l 1
 398 138 l 1
 957 138 l 1
 957 273 l 1
 1093 273 l 1
 1093 64 l 2
 1093 43 1088 27 1077 16 c 0
 1066 5 1050 0 1029 0 c 2
 235 0 l 1
 235 1358 l 1
 99 1358 l 1
EndSplineSet
EndChar

StartChar: Aacute
Encoding: 193 193 198
Width: 1317
Flags: MW
HStem: 0 137<-19 83 -19 145 -19 83> 459 127<393 898 393 939 352 898> 1341 154<640 651 640 640>
VStem: -19 915 896 410
LayerCount: 2
Fore
SplineSet
896 1981 m 1
 984 1853 l 1xf0
 584 1597 l 1
 502 1723 l 1
 896 1981 l 1
898 586 m 1
 651 1341 l 1
 640 1341 l 1
 393 586 l 1
 898 586 l 1
218 53 m 2
 212 36 203 23 191 14 c 0
 179 5 164 0 145 0 c 2
 -19 0 l 1
 -19 137 l 1xf0
 83 137 l 1
 536 1495 l 1
 753 1495 l 1
 1208 136 l 1
 1306 136 l 1
 1306 0 l 1xe8
 1146 0 l 2
 1127 0 1111 5 1099 14 c 0
 1087 23 1078 36 1072 53 c 2
 939 459 l 1
 352 459 l 1
 218 53 l 2
EndSplineSet
EndChar

StartChar: Edieresis
Encoding: 203 203 199
Width: 1284
Flags: MW
HStem: -2 138<398 957 398 1029> 689 137<398 980 398 980> 1357 136<398 957 398 398>
VStem: 235 163<136 689 826 1356 1356 1356> 330 204<1781.5 1801.5> 749 206<1782.5 1802.5> 957 115<1221 1357 1357 1357> 957 136<136 271>
LayerCount: 2
Fore
SplineSet
852 1688 m 1xf2
 852 1687 l 1xf2
 839 1687 826 1690 814 1695 c 0
 802 1700 791 1708 780 1718 c 0
 770 1728 762 1739 757 1751 c 0
 752 1763 749 1776 749 1789 c 0
 749 1816 759 1840 780 1861 c 0
 801 1882 825 1892 852 1892 c 0
 879 1892 903 1882 924 1861 c 0
 945 1840 955 1816 955 1789 c 0
 955 1762 945 1738 924 1718 c 0xf4
 903 1698 879 1688 852 1688 c 1xf2
433 1687 m 1
 433 1686 l 1xf2
 420 1686 407 1689 395 1694 c 0
 383 1699 372 1707 361 1717 c 0
 351 1727 343 1738 338 1750 c 0
 333 1762 330 1775 330 1788 c 0
 330 1815 340 1839 361 1860 c 0
 382 1881 406 1891 433 1891 c 0
 460 1891 484 1881 504 1860 c 0
 524 1839 534 1815 534 1788 c 0
 534 1761 524 1737 504 1717 c 0xea
 484 1697 460 1687 433 1687 c 1
99 1356 m 1
 99 1493 l 1
 1011 1493 l 2
 1032 1493 1047 1488 1057 1478 c 0
 1067 1468 1072 1452 1072 1431 c 2
 1072 1221 l 1
 957 1221 l 1
 957 1357 l 1xf2
 398 1357 l 1
 398 826 l 1
 980 826 l 1
 980 689 l 1
 398 689 l 1
 398 136 l 1
 957 136 l 1
 957 271 l 1
 1093 271 l 1
 1093 62 l 2
 1093 41 1088 25 1077 14 c 0
 1066 3 1050 -2 1029 -2 c 2xf1
 235 -2 l 1
 235 1356 l 1
 99 1356 l 1
EndSplineSet
EndChar

StartChar: Egrave
Encoding: 200 200 200
Width: 1284
Flags: MW
HStem: 0 138<398 957 398 1029> 691 137<398 980 398 980> 1359 136<398 957 398 398> 1646 254<377 764 377 617>
VStem: 235 163<138 691 828 1358 1358 1358> 377 716 957 115<1223 1359 1359 1359>
LayerCount: 2
Fore
SplineSet
764 1646 m 1xfa
 617 1646 l 1
 377 1900 l 1xf4
 578 1900 l 1
 764 1646 l 1xfa
99 1358 m 1xfa
 99 1495 l 1
 1011 1495 l 2
 1032 1495 1047 1490 1057 1480 c 0
 1067 1470 1072 1454 1072 1433 c 2
 1072 1223 l 1
 957 1223 l 1
 957 1359 l 1
 398 1359 l 1
 398 828 l 1
 980 828 l 1
 980 691 l 1
 398 691 l 1
 398 138 l 1xfa
 957 138 l 1
 957 273 l 1
 1093 273 l 1
 1093 64 l 2
 1093 43 1088 27 1077 16 c 0
 1066 5 1050 0 1029 0 c 2xf4
 235 0 l 1
 235 1358 l 1
 99 1358 l 1xfa
EndSplineSet
EndChar

StartChar: Iacute
Encoding: 205 205 201
Width: 717
Flags: MW
HStem: 0 137<140 276 440 576 140 276> 1358 137<140 276 140 576 440 440 440 576>
VStem: 140 456 276 164<137 1358 137 1358>
LayerCount: 2
Fore
SplineSet
596 1981 m 1xe0
 684 1853 l 1
 284 1597 l 1
 202 1723 l 1
 596 1981 l 1xe0
576 137 m 1xd0
 576 0 l 1
 140 0 l 1
 140 137 l 1
 276 137 l 1
 276 1358 l 1
 140 1358 l 1
 140 1495 l 1
 576 1495 l 1
 576 1358 l 1
 440 1358 l 1
 440 137 l 1
 576 137 l 1xd0
EndSplineSet
EndChar

StartChar: Icircumflex
Encoding: 206 206 202
Width: 717
Flags: MW
HStem: 0 137<140 276 440 576 140 276> 1358 137<140 276 140 576 440 440 440 576>
VStem: 140 219 276 164<137 1358 137 1358> 316 260
LayerCount: 2
Fore
SplineSet
402 1983 m 1xe0
 654 1690 l 1
 588 1622 l 1
 359 1823 l 1xe0
 131 1622 l 1
 66 1690 l 1
 316 1983 l 1xc8
 402 1983 l 1xe0
576 137 m 1xd0
 576 0 l 1
 140 0 l 1
 140 137 l 1
 276 137 l 1
 276 1358 l 1
 140 1358 l 1
 140 1495 l 1
 576 1495 l 1
 576 1358 l 1
 440 1358 l 1
 440 137 l 1
 576 137 l 1xd0
EndSplineSet
EndChar

StartChar: Idieresis
Encoding: 207 207 203
Width: 717
Flags: MW
HStem: -2 137<140 276 440 576 140 276> 1356 137<140 276 140 576 440 440 440 576>
VStem: 47 529 140 111 276 164<135 1356 135 1356>
LayerCount: 2
Fore
SplineSet
569 1688 m 1xc8
 569 1687 l 1xc8
 556 1687 543 1690 531 1695 c 0
 519 1700 508 1708 497 1718 c 0
 487 1728 479 1739 474 1751 c 0
 469 1763 466 1776 466 1789 c 0
 466 1816 476 1840 497 1861 c 0xe0
 518 1882 542 1892 569 1892 c 0
 596 1892 620 1882 641 1861 c 0
 662 1840 672 1816 672 1789 c 0
 672 1762 662 1738 641 1718 c 0xd8
 620 1698 596 1688 569 1688 c 1xc8
150 1687 m 1
 150 1686 l 1xc8
 137 1686 124 1689 112 1694 c 0
 100 1699 89 1707 78 1717 c 0
 68 1727 60 1738 55 1750 c 0
 50 1762 47 1775 47 1788 c 0
 47 1815 57 1839 78 1860 c 0xe0
 99 1881 123 1891 150 1891 c 0
 177 1891 201 1881 221 1860 c 0
 241 1839 251 1815 251 1788 c 0
 251 1761 241 1737 221 1717 c 0xd8
 201 1697 177 1687 150 1687 c 1
576 135 m 1xe0
 576 -2 l 1xe0
 140 -2 l 1
 140 135 l 1xd8
 276 135 l 1
 276 1356 l 1
 140 1356 l 1
 140 1493 l 1
 576 1493 l 1
 576 1356 l 1
 440 1356 l 1
 440 135 l 1xc8
 576 135 l 1xe0
EndSplineSet
EndChar

StartChar: Igrave
Encoding: 204 204 204
Width: 717
Flags: MW
HStem: 0 137<140 276 440 576 140 276> 1358 137<140 276 140 576 440 440 440 576> 1646 254<94 481 94 334>
VStem: 94 482 140 155 276 164<137 1358 137 1358>
LayerCount: 2
Fore
SplineSet
481 1646 m 1xe4
 334 1646 l 1
 94 1900 l 1xf0
 295 1900 l 1xe8
 481 1646 l 1xe4
576 137 m 1xe4
 576 0 l 1
 140 0 l 1
 140 137 l 1
 276 137 l 1
 276 1358 l 1
 140 1358 l 1
 140 1495 l 1
 576 1495 l 1
 576 1358 l 1
 440 1358 l 1
 440 137 l 1
 576 137 l 1xe4
EndSplineSet
EndChar

StartChar: Oacute
Encoding: 211 211 205
Width: 1448
Flags: MW
HStem: 0 141<733 900.5 733 923> 1385 142<733 900.5>
VStem: 51 156<681.5 860.5 681.5 879.5> 1428 155<681.5 860.5>
LayerCount: 2
Fore
SplineSet
962 1981 m 1
 1050 1853 l 1
 650 1597 l 1
 568 1723 l 1
 962 1981 l 1
51 772 m 0
 51 987 125 1167 274 1311 c 0
 423 1455 604 1527 817 1527 c 0
 1029 1527 1210 1455 1359 1311 c 0
 1508 1167 1583 987 1583 772 c 0
 1583 553 1508 370 1359 222 c 0
 1210 74 1029 0 817 0 c 0
 604 0 423 74 274 222 c 0
 125 370 51 553 51 772 c 0
207 772 m 0
 207 591 267 441 386 321 c 0
 505 201 649 141 817 141 c 0
 984 141 1128 201 1248 321 c 0
 1368 441 1428 591 1428 772 c 0
 1428 949 1368 1095 1248 1211 c 0
 1128 1327 984 1385 817 1385 c 0
 649 1385 505 1327 386 1211 c 0
 267 1095 207 949 207 772 c 0
EndSplineSet
EndChar

